<svg width="100" height="100" fill="none" xmlns="http://www.w3.org/2000/svg"><path d="M5.13 67.224h89.738v2.737H5.13v-2.737z" fill="#D4E1F4"/><path d="M14.226 42.12a1.172 1.172 0 001.171 1.173h5.694a1.172 1.172 0 001.172-1.172v-.726H32.92V39.05H22.263v-.726a1.172 1.172 0 00-1.172-1.172h-5.694a1.172 1.172 0 00-1.171 1.172v.726H3.694a1.172 1.172 0 100 2.344h10.532v.726zm2.343-2.623h3.35v1.452h-3.35v-1.452z" fill="url(#paint0_linear)"/><path d="M35.45 41.395h10.531v.726a1.172 1.172 0 001.172 1.172h5.694a1.172 1.172 0 001.172-1.172v-.726h10.657V39.05H54.019v-.726a1.172 1.172 0 00-1.172-1.172h-5.694a1.172 1.172 0 00-1.172 1.172v.726h-10.53a1.171 1.171 0 100 2.344zm12.875-1.898h3.35v1.452h-3.35v-1.452z" fill="url(#paint1_linear)"/><path d="M85.774 38.325a1.171 1.171 0 00-1.171-1.172h-5.694a1.172 1.172 0 00-1.172 1.172v.726h-10.53a1.172 1.172 0 100 2.344h10.531v.726a1.172 1.172 0 001.172 1.172h5.694a1.172 1.172 0 001.171-1.172v-.726h10.657V39.05H85.774v-.726zm-2.343 2.624h-3.35v-1.452h3.35v1.452z" fill="url(#paint2_linear)"/><path d="M90.89 45.832a1.173 1.173 0 00-.758 2.218 5.345 5.345 0 013.618 5.06v15.6H6.25v-15.6a5.338 5.338 0 013.265-4.925 1.172 1.172 0 00-.913-2.159 7.678 7.678 0 00-4.696 7.084v16.773a1.172 1.172 0 001.172 1.172h89.844a1.172 1.172 0 001.172-1.172V53.11a7.689 7.689 0 00-5.205-7.278z" fill="url(#paint3_linear)"/><path d="M87.27 29.38A12.07 12.07 0 0083.682 31c-.615.4-1.26.752-1.93 1.052a71.34 71.34 0 01-.49-.282c-1.559-.9-3.914-2.26-5.986-2.535-4.567-.607-8.065 1.442-9.355 5.477l-.005.017a9.707 9.707 0 00-.321-.962c-.599-1.511-3.094-6.294-10.083-4.388a12.07 12.07 0 00-3.587 1.62c-.615.4-1.26.752-1.93 1.052a65.55 65.55 0 01-.49-.282c-1.558-.9-3.913-2.26-5.985-2.534-4.568-.607-8.065 1.441-9.355 5.476l-.006.017a9.71 9.71 0 00-.321-.962c-.598-1.51-3.093-6.293-10.082-4.388-1.277.34-2.488.888-3.587 1.621-.616.4-1.26.751-1.93 1.052a65.55 65.55 0 01-.49-.282c-1.559-.9-3.914-2.26-5.986-2.535-4.569-.607-8.065 1.441-9.355 5.476-1.228 3.841.106 8.2 2.973 9.718 1.556.824 2.513 1.393 2.804 1.862.22.356.18.95.07 2.263-.02.239-.042.495-.063.77-.154 2.019-.385 8.884 3.129 12.514.26.25.575.435.92.54a2.296 2.296 0 003.045-2.538c-.054-.586-.685-8.228 2.518-12.127a.627.627 0 01.95.004c3.146 3.925 2.52 11.54 2.467 12.124a2.287 2.287 0 002.282 2.665c.26 0 .516-.044.762-.128.345-.104.66-.29.92-.54 3.514-3.63 3.283-10.495 3.129-12.513-.021-.274-.042-.53-.063-.768-.11-1.313-.15-1.908.07-2.263.291-.47 1.249-1.039 2.805-1.865 1.416-.752 2.446-2.227 2.985-3.998.537 1.764 1.589 3.238 3.025 3.998 1.556.824 2.513 1.393 2.804 1.862.22.356.18.95.07 2.263-.02.239-.042.495-.063.77-.154 2.018-.385 8.884 3.128 12.514.26.25.575.435.921.54a2.296 2.296 0 003.045-2.537c-.054-.584-.686-8.228 2.518-12.128a.628.628 0 01.95.004c3.146 3.925 2.52 11.54 2.467 12.124a2.288 2.288 0 002.282 2.665c.259 0 .516-.043.761-.128.346-.104.662-.29.922-.54 3.513-3.63 3.282-10.495 3.128-12.513-.02-.274-.042-.53-.062-.768-.11-1.313-.15-1.908.07-2.263.29-.47 1.248-1.039 2.804-1.865 1.416-.752 2.447-2.227 2.985-3.998.538 1.764 1.589 3.238 3.025 3.998 1.556.824 2.513 1.393 2.804 1.862.22.355.18.95.07 2.263-.02.239-.042.495-.063.77-.154 2.019-.385 8.884 3.128 12.514.26.25.576.435.921.54a2.297 2.297 0 003.045-2.537c-.053-.584-.685-8.228 2.518-12.128a.627.627 0 01.95.004c3.146 3.925 2.52 11.54 2.467 12.124a2.287 2.287 0 002.282 2.665c.26 0 .517-.043.762-.128.345-.104.66-.29.92-.54 3.514-3.63 3.284-10.495 3.13-12.513-.021-.274-.043-.53-.063-.768-.11-1.313-.15-1.908.07-2.263.29-.47 1.248-1.039 2.805-1.865 3.051-1.62 4.318-6.602 2.71-10.662-.594-1.51-3.09-6.292-10.079-4.387zM30.03 42.36c-4.121 2.187-4.399 2.97-4.111 6.394.02.233.04.482.06.75.277 3.614-.214 8.282-2.406 10.633l-.026.01a.722.722 0 00.004-.027c.039-.367.895-9.05-2.967-13.867a2.97 2.97 0 00-4.59-.026c-3.94 4.796-3.073 13.525-3.034 13.895 0 .009.002.018.004.027l-.026-.01c-2.193-2.35-2.684-7.02-2.408-10.634.02-.27.042-.52.061-.753.289-3.426.01-4.21-4.112-6.392-1.88-.995-2.72-4.17-1.838-6.934 1.32-4.13 5.205-4.08 6.815-3.867 1.61.213 3.808 1.483 5.12 2.241.444.256.828.478 1.124.625 1.428.71 3.58 1.605 5.766 1.179a1.173 1.173 0 00-.449-2.3 4.594 4.594 0 01-1.97-.092c.123-.074.242-.148.357-.22a9.818 9.818 0 012.97-1.351c4.793-1.306 6.622 1.312 7.287 2.99 1.154 2.915.362 6.671-1.631 7.729zm31.756 0c-4.121 2.187-4.399 2.97-4.111 6.394.02.233.04.482.06.75.277 3.614-.214 8.282-2.406 10.633l-.026.01.003-.027c.04-.367.896-9.05-2.966-13.867a2.97 2.97 0 00-4.59-.026c-3.94 4.796-3.073 13.525-3.034 13.895 0 .009.002.018.004.027l-.026-.01c-2.194-2.35-2.684-7.021-2.408-10.634.02-.27.042-.52.062-.753.288-3.426.01-4.21-4.113-6.392-1.88-.995-2.72-4.17-1.838-6.934 1.32-4.13 5.205-4.08 6.815-3.867 1.609.213 3.808 1.483 5.12 2.241.445.256.828.478 1.124.625 1.428.71 3.581 1.605 5.766 1.179a1.173 1.173 0 00-.449-2.3 4.593 4.593 0 01-1.97-.092c.123-.074.242-.148.357-.22a9.815 9.815 0 012.969-1.352c4.793-1.306 6.622 1.313 7.287 2.99 1.154 2.916.362 6.672-1.63 7.73zm31.756 0c-4.122 2.187-4.4 2.97-4.111 6.394.02.233.04.482.06.75.277 3.614-.214 8.282-2.406 10.633l-.026.01.003-.027c.04-.367.896-9.05-2.966-13.867a2.97 2.97 0 00-4.59-.026c-3.94 4.796-3.073 13.525-3.034 13.895 0 .01.002.02.003.027l-.025-.01c-2.194-2.35-2.684-7.021-2.408-10.634.02-.27.041-.52.061-.753.288-3.426.01-4.21-4.112-6.392-1.88-.995-2.72-4.17-1.838-6.934 1.32-4.13 5.205-4.08 6.815-3.867 1.61.213 3.808 1.483 5.12 2.241.444.256.828.478 1.124.625 1.428.71 3.58 1.605 5.766 1.179a1.173 1.173 0 00-.449-2.3 4.594 4.594 0 01-1.97-.092c.123-.074.241-.148.357-.22a9.815 9.815 0 012.969-1.352c4.793-1.306 6.622 1.313 7.286 2.99 1.156 2.916.363 6.672-1.63 7.73z" fill="url(#paint4_linear)"/><defs><linearGradient id="paint0_linear" x1="17.721" y1="37.153" x2="17.721" y2="43.293" gradientUnits="userSpaceOnUse"><stop stop-color="#8888D3"/><stop offset="1" stop-color="#5E60A3"/></linearGradient><linearGradient id="paint1_linear" x1="49.477" y1="37.153" x2="49.477" y2="43.293" gradientUnits="userSpaceOnUse"><stop stop-color="#8888D3"/><stop offset="1" stop-color="#5E60A3"/></linearGradient><linearGradient id="paint2_linear" x1="81.233" y1="37.153" x2="81.233" y2="43.293" gradientUnits="userSpaceOnUse"><stop stop-color="#8888D3"/><stop offset="1" stop-color="#5E60A3"/></linearGradient><linearGradient id="paint3_linear" x1="50" y1="45.769" x2="50" y2="71.055" gradientUnits="userSpaceOnUse"><stop stop-color="#8888D3"/><stop offset="1" stop-color="#5E60A3"/></linearGradient><linearGradient id="paint4_linear" x1="50" y1="28.936" x2="50" y2="62.513" gradientUnits="userSpaceOnUse"><stop stop-color="#8888D3"/><stop offset="1" stop-color="#5E60A3"/></linearGradient></defs></svg>