<svg width="80" height="80" fill="none" xmlns="http://www.w3.org/2000/svg"><path d="M46.535 10.856c1.832-1.136 3.415-2.117 6.527-2.966 2.6-.709 4.998-.917 7.146-.653-3.083-1.843-7.13-2.191-11.834-.909-3.112.848-4.694 1.83-6.527 2.966a35.113 35.113 0 01-3.613 2.03c1.837.784 3.476 1.253 4.972 1.424a36.541 36.541 0 003.329-1.892zM26.652 66.471a7.53 7.53 0 01-.016-.169c-3.078-5.538-3.772-13.665-3.274-20.17.043-.56.086-1.081.127-1.568.263-3.129.422-5.017-.636-6.726-1.018-1.645-3.094-2.94-7.08-5.049-2.196-1.163-3.874-3.497-4.723-6.57a17.116 17.116 0 01.206-9.524c.97-3.032 2.751-5.472 5.154-7.058 2.806-1.852 6.352-2.51 10.54-1.953.148.02.297.044.448.07-1.747-.787-3.53-1.42-5.136-1.632-4.187-.556-7.734.102-10.54 1.953C9.32 9.66 7.537 12.1 6.568 15.132a17.115 17.115 0 00-.206 9.524c.849 3.074 2.527 5.408 4.723 6.57 3.985 2.11 6.061 3.404 7.08 5.05 1.058 1.709.899 3.597.636 6.725-.041.487-.085 1.008-.128 1.569-.601 7.866.536 18.11 5.532 23.272a1.8 1.8 0 00.582.275 1.391 1.391 0 001.877-1.569.791.791 0 01-.012-.077z" fill="#D4E1F4"/><path d="M60.404 5.074c-3.44-1.736-7.627-1.95-12.445-.637-3.375.92-5.147 2.018-7.022 3.18-1.291.802-2.627 1.63-4.62 2.464a1.773 1.773 0 00-.217.111 74.49 74.49 0 01-1.69-.96c-3.12-1.8-7.834-4.523-11.824-5.052-8.67-1.149-15.297 2.7-17.726 10.3-2.329 7.286.105 15.504 5.426 18.322 3.603 1.907 5.577 3.108 6.363 4.378.732 1.183.6 2.745.362 5.582-.042.491-.086 1.017-.13 1.583-.348 4.564-.097 9.275.709 13.266 1.003 4.972 2.801 8.825 5.345 11.453.284.293.715.536 1.32.744.353.122.724.184 1.099.184a3.246 3.246 0 003.237-3.832c-.082-.853-1.58-17.546 5.53-26.203a2.782 2.782 0 014.268.022c.38.476.736.971 1.064 1.484a.938.938 0 101.578-1.012 19.338 19.338 0 00-1.179-1.645 4.655 4.655 0 00-7.18-.039c-3.271 3.983-5.265 9.852-5.924 17.445a58.563 58.563 0 00-.018 10.177.874.874 0 00.011.076 1.39 1.39 0 01-1.877 1.57 1.81 1.81 0 01-.582-.276c-3.275-3.384-6.448-11.275-5.531-23.272.043-.56.086-1.082.127-1.568.263-3.129.422-5.017-.636-6.726-1.018-1.646-3.094-2.94-7.08-5.05-2.196-1.162-3.874-3.496-4.723-6.57a17.117 17.117 0 01.206-9.524c.97-3.031 2.751-5.471 5.154-7.057 2.806-1.851 6.353-2.509 10.54-1.953 3.622.48 8.142 3.09 11.133 4.818.895.517 1.67.964 2.24 1.248 2.759 1.372 6.897 3.104 10.973 2.308a.938.938 0 00-.359-1.84c-2.267.443-4.847.016-8.012-1.332a35.117 35.117 0 003.611-2.03c1.833-1.136 3.415-2.117 6.527-2.965 8.05-2.195 14.185.381 16.832 7.065 1.268 3.202 1.548 7.026.767 10.492-.776 3.452-2.534 6.128-4.82 7.342-2.198 1.166-3.91 2.13-5.122 3.038a.937.937 0 001.125 1.5c1.116-.836 2.756-1.757 4.875-2.882 2.812-1.492 4.861-4.542 5.772-8.586.86-3.825.55-8.051-.854-11.594-1.361-3.438-3.652-6.048-6.623-7.547z" fill="url(#paint0_linear)"/><path d="M54.766 33.906c-11.718 0-21.25 9.533-21.25 21.25s9.532 21.25 21.25 21.25c11.717 0 21.25-9.533 21.25-21.25s-9.533-21.25-21.25-21.25zm0 40.625A19.375 19.375 0 1174.14 55.156a19.397 19.397 0 01-19.375 19.375z" fill="url(#paint1_linear)"/><path d="M53.668 42.82c.709 0 1.395-.258 2.058-.775.17-.132.316-.26.446-.373.272-.274.602-.484.965-.615.496-.168 1.105-.1 1.813.202a.937.937 0 00.737-1.724c-1.145-.49-2.206-.575-3.153-.253a4.382 4.382 0 00-1.593.977 8.364 8.364 0 01-.366.307c-.533.415-1.218.748-2.625-.55a.94.94 0 00-1.516.365.938.938 0 00.244 1.013c1.029.95 2.029 1.425 2.99 1.425z" fill="url(#paint2_linear)"/><path d="M51.296 51.997a.939.939 0 00-1.127.698c-.589 2.5.088 4.175 2.013 4.976.21.088.406.158.58.22.442.155.733.259 1.103.589.432.385.697 1.004.79 1.839a.938.938 0 101.863-.206c-.145-1.309-.617-2.328-1.403-3.031-.5-.44-1.09-.768-1.73-.96a9.176 9.176 0 01-.482-.18c-.693-.289-1.39-.768-.91-2.816a.94.94 0 00-.697-1.129z" fill="url(#paint3_linear)"/><path d="M66.056 55.906a9.917 9.917 0 01-.397.33c-.595.457-1.358.824-2.895-.612a.937.937 0 10-1.28 1.37c1.09 1.018 2.148 1.527 3.169 1.527.738 0 1.454-.266 2.149-.8.181-.14.339-.275.477-.394.356-.306.591-.509 1.061-.665.549-.183 1.217-.106 1.988.23a.938.938 0 00.748-1.72c-1.208-.525-2.329-.622-3.329-.289a4.634 4.634 0 00-1.691 1.023z" fill="url(#paint4_linear)"/><path d="M64.957 50.667a.938.938 0 00.821-1.387 1.462 1.462 0 01.464-1.92 3.34 3.34 0 00.334-5.271.938.938 0 00-1.24 1.406 1.466 1.466 0 01-.147 2.315 3.328 3.328 0 00-1.055 4.37.938.938 0 00.823.487z" fill="url(#paint5_linear)"/><path d="M57.065 66.266a.938.938 0 00-1.008.86 1.631 1.631 0 01-2.26 1.375l-.366-.155a3.504 3.504 0 00-4.7 2.148l-.063.19a.938.938 0 101.784.579l.062-.191a1.63 1.63 0 012.186-.999l.365.154a3.505 3.505 0 004.861-2.953.938.938 0 00-.861-1.008z" fill="url(#paint6_linear)"/><path d="M45.311 51.888a.937.937 0 00-1.873.082 1.63 1.63 0 01-2.076 1.64l-.381-.11a3.506 3.506 0 00-4.404 2.705l-.038.196a.936.936 0 101.841.357l.038-.197a1.629 1.629 0 012.049-1.258l.38.109a3.504 3.504 0 004.464-3.525z" fill="url(#paint7_linear)"/><path d="M45.938 58.541a.937.937 0 00-.165 1.316 1.484 1.484 0 01-.903 2.371 3.36 3.36 0 00-2.563 4.41.937.937 0 101.771-.617 1.484 1.484 0 011.133-1.949 3.36 3.36 0 002.043-5.366.938.938 0 00-1.316-.165z" fill="url(#paint8_linear)"/><path d="M41.326 45.484a.937.937 0 001.279-.35 1.178 1.178 0 012.19.411 3.023 3.023 0 002.412 2.549c.206.042.415.063.625.063a3.017 3.017 0 002.591-1.468.938.938 0 00-1.602-.975 1.178 1.178 0 01-2.171-.441 3.052 3.052 0 00-5.675-1.068.939.939 0 00.351 1.28z" fill="url(#paint9_linear)"/><path d="M64.576 68.167a1.179 1.179 0 01-.86-2.044 3.052 3.052 0 00-2.316-5.288.938.938 0 00.152 1.869 1.178 1.178 0 01.894 2.04 3.053 3.053 0 002.227 5.295.938.938 0 00-.097-1.872z" fill="url(#paint10_linear)"/><path d="M60.717 51.867a.94.94 0 00-.984-.888 1.179 1.179 0 01-.86-2.043 3.054 3.054 0 00-2.316-5.289.938.938 0 00.152 1.87 1.179 1.179 0 01.894 2.04 3.054 3.054 0 002.227 5.295.937.937 0 00.887-.985z" fill="url(#paint11_linear)"/><defs><linearGradient id="paint1_linear" x1="54.766" y1="33.906" x2="54.766" y2="76.406" gradientUnits="userSpaceOnUse"><stop stop-color="#8888D3"/><stop offset="1" stop-color="#5E60A3"/></linearGradient><linearGradient id="paint6_linear" x1="53.275" y1="66.263" x2="53.275" y2="71.918" gradientUnits="userSpaceOnUse"><stop stop-color="#8888D3"/><stop offset="1" stop-color="#5E60A3"/></linearGradient><linearGradient id="paint2_linear" x1="55.315" y1="39.091" x2="55.315" y2="42.819" gradientUnits="userSpaceOnUse"><stop stop-color="#8888D3"/><stop offset="1" stop-color="#5E60A3"/></linearGradient><linearGradient id="paint3_linear" x1="53.243" y1="51.972" x2="53.243" y2="61.154" gradientUnits="userSpaceOnUse"><stop stop-color="#8888D3"/><stop offset="1" stop-color="#5E60A3"/></linearGradient><linearGradient id="paint4_linear" x1="66.401" y1="54.69" x2="66.401" y2="58.521" gradientUnits="userSpaceOnUse"><stop stop-color="#8888D3"/><stop offset="1" stop-color="#5E60A3"/></linearGradient><linearGradient id="paint5_linear" x1="65.713" y1="41.855" x2="65.713" y2="50.667" gradientUnits="userSpaceOnUse"><stop stop-color="#8888D3"/><stop offset="1" stop-color="#5E60A3"/></linearGradient><linearGradient id="paint0_linear" x1="36.168" y1="3.59" x2="36.168" y2="69.993" gradientUnits="userSpaceOnUse"><stop stop-color="#8888D3"/><stop offset="1" stop-color="#5E60A3"/></linearGradient><linearGradient id="paint7_linear" x1="40.919" y1="50.999" x2="40.919" y2="57.517" gradientUnits="userSpaceOnUse"><stop stop-color="#8888D3"/><stop offset="1" stop-color="#5E60A3"/></linearGradient><linearGradient id="paint8_linear" x1="45.041" y1="58.344" x2="45.041" y2="67.267" gradientUnits="userSpaceOnUse"><stop stop-color="#8888D3"/><stop offset="1" stop-color="#5E60A3"/></linearGradient><linearGradient id="paint9_linear" x1="45.706" y1="42.663" x2="45.706" y2="48.157" gradientUnits="userSpaceOnUse"><stop stop-color="#8888D3"/><stop offset="1" stop-color="#5E60A3"/></linearGradient><linearGradient id="paint10_linear" x1="63.05" y1="60.825" x2="63.05" y2="70.044" gradientUnits="userSpaceOnUse"><stop stop-color="#8888D3"/><stop offset="1" stop-color="#5E60A3"/></linearGradient><linearGradient id="paint11_linear" x1="58.207" y1="43.637" x2="58.207" y2="52.856" gradientUnits="userSpaceOnUse"><stop stop-color="#8888D3"/><stop offset="1" stop-color="#5E60A3"/></linearGradient></defs></svg>