<svg width="80" height="80" fill="none" xmlns="http://www.w3.org/2000/svg"><path d="M48.915 66.143c-.626-7.39-2.532-13.118-5.664-17.027a4.48 4.48 0 00-3.52-1.67c-.36 0-.72.043-1.071.127l.015.018c3.133 3.908 5.038 9.637 5.665 17.027.286 3.293.29 6.604.01 9.897a.952.952 0 01-.012.075 1.357 1.357 0 001.832 1.532c.205-.055.398-.146.57-.27a14.605 14.605 0 002.375-3.34 61.179 61.179 0 00-.2-6.369zm-23.049 8.373a8.353 8.353 0 01-.016-.165c-3.005-5.407-3.682-13.34-3.196-19.69.041-.546.084-1.055.125-1.53.256-3.054.412-4.898-.622-6.566-.994-1.606-3.02-2.869-6.91-4.928-2.144-1.136-3.781-3.413-4.61-6.415a16.706 16.706 0 01.2-9.296c.946-2.96 2.686-5.341 5.031-6.89 2.739-1.807 6.2-2.45 10.289-1.907.144.02.29.043.437.069-1.706-.77-3.446-1.386-5.013-1.594-4.088-.542-7.55.1-10.289 1.907-2.345 1.549-4.084 3.93-5.03 6.89a16.706 16.706 0 00-.202 9.296c.829 3.001 2.466 5.28 4.61 6.415 3.891 2.059 5.917 3.322 6.911 4.928 1.033 1.669.878 3.512.621 6.565-.04.475-.083.985-.125 1.532-.587 7.678.523 17.678 5.4 22.716.17.123.363.214.567.269a1.356 1.356 0 001.832-1.531 1.105 1.105 0 01-.01-.075z" fill="#D4E1F4"/><path d="M10.357 41.442c3.45 1.826 5.339 2.975 6.088 4.185.696 1.124.57 2.618.342 5.331-.04.471-.082.976-.123 1.519-.336 4.38-.094 8.903.679 12.734.964 4.776 2.692 8.479 5.137 11.005.276.285.695.522 1.28.723.343.119.704.18 1.067.18a3.15 3.15 0 003.144-3.72c-.08-.832-1.511-16.817 5.296-25.102a2.629 2.629 0 014.034.02c6.673 8.327 5.264 24.25 5.184 25.083a3.21 3.21 0 00.217 1.838c.65 1.5 2.406 2.248 3.995 1.701.585-.201 1.004-.437 1.28-.723 2.445-2.526 4.173-6.229 5.137-11.005.773-3.83 1.014-8.353.68-12.734-.037-.48-.075-.931-.11-1.355-.298-3.619-.339-4.822.783-6.06l-1.39-1.26c-1.72 1.9-1.558 3.88-1.262 7.473.035.421.072.868.108 1.344.88 11.495-2.157 19.053-5.291 22.29a1.73 1.73 0 01-.546.257 1.294 1.294 0 01-1.75-1.462.954.954 0 00.011-.077 56.826 56.826 0 00-.009-9.732c-.616-7.27-2.491-12.905-5.574-16.751a4.503 4.503 0 00-6.946-.038c-3.143 3.826-5.058 9.463-5.691 16.753a56.225 56.225 0 00-.017 9.769c.003.025.006.05.011.076a1.295 1.295 0 01-1.75 1.462 1.768 1.768 0 01-.543-.254c-3.136-3.24-6.174-10.798-5.295-22.292.041-.538.083-1.038.122-1.505.253-3.008.407-4.824-.615-6.475-.988-1.595-2.898-2.787-6.806-4.855-2.097-1.111-3.7-3.341-4.511-6.28a16.378 16.378 0 01.197-9.112c.978-3.06 4.397-10.026 15.011-8.617 3.465.46 7.797 2.96 10.662 4.615.548.317 1.021.59 1.442.823l.907-1.641c-.405-.224-.871-.494-1.411-.805-2.994-1.73-7.52-4.342-11.353-4.85-8.337-1.105-14.708 2.596-17.044 9.904-2.239 7.006.104 14.91 5.223 17.62z" fill="url(#paint0_linear)"/><path d="M54.458 2.882c-11.718 0-21.25 9.533-21.25 21.25s9.532 21.25 21.25 21.25c11.717 0 21.25-9.532 21.25-21.25 0-11.717-9.533-21.25-21.25-21.25zm0 40.625a19.375 19.375 0 1119.374-19.375 19.397 19.397 0 01-19.374 19.375z" fill="url(#paint1_linear)"/><path d="M67.695 18.697c-.815-4.037-3.747-6.645-7.47-6.645-1.845 0-3.825.673-5.76 1.954-1.96-1.34-3.91-2.017-5.807-2.017-3.746 0-6.667 2.637-7.44 6.716-1.105 5.759 2.356 13.385 12.58 17.442a1.735 1.735 0 001.325-.003c10.22-4.14 13.679-11.743 12.573-17.44l-.001-.008zM54.457 34.39C45.252 30.727 42.1 24.053 43.058 19.056c.608-3.203 2.753-5.192 5.6-5.192 1.637 0 3.449.705 5.237 2.039a.937.937 0 001.112.007c1.788-1.298 3.592-1.984 5.216-1.984 2.834 0 4.992 1.969 5.632 5.137 1.326 6.847-4.762 12.627-11.4 15.328z" fill="url(#paint2_linear)"/><defs><linearGradient id="paint0_linear" x1="29.376" y1="13.725" x2="29.376" y2="77.118" gradientUnits="userSpaceOnUse"><stop stop-color="#8888D3"/><stop offset="1" stop-color="#5E60A3"/></linearGradient><linearGradient id="paint1_linear" x1="54.458" y1="2.882" x2="54.458" y2="45.382" gradientUnits="userSpaceOnUse"><stop stop-color="#8888D3"/><stop offset="1" stop-color="#5E60A3"/></linearGradient><linearGradient id="paint2_linear" x1="54.457" y1="11.989" x2="54.457" y2="36.275" gradientUnits="userSpaceOnUse"><stop stop-color="#8888D3"/><stop offset="1" stop-color="#5E60A3"/></linearGradient></defs></svg>