<svg width="100" height="100" fill="none" xmlns="http://www.w3.org/2000/svg"><path d="M54.43 80.15c-.645-7.608-2.608-13.506-5.833-17.53a4.613 4.613 0 00-3.624-1.719c-.371 0-.741.044-1.103.13l.016.02c3.225 4.024 5.187 9.922 5.832 17.53a59.5 59.5 0 01.01 10.19.892.892 0 01-.012.079 1.397 1.397 0 001.887 1.577c.21-.057.409-.15.586-.278a15.038 15.038 0 002.445-3.439 62.99 62.99 0 00-.205-6.56zm-23.732 8.62a14.545 14.545 0 01-.017-.169c-3.093-5.566-3.79-13.734-3.29-20.272.042-.563.086-1.087.128-1.576.264-3.145.424-5.042-.64-6.76-1.024-1.653-3.11-2.954-7.115-5.074-2.207-1.169-3.894-3.514-4.747-6.604a17.2 17.2 0 01.207-9.571c.974-3.047 2.765-5.5 5.18-7.093 2.819-1.861 6.383-2.522 10.592-1.963.149.019.299.044.45.07-1.756-.792-3.547-1.427-5.161-1.64-4.21-.559-7.773.102-10.593 1.963-2.415 1.594-4.206 4.047-5.18 7.093a17.202 17.202 0 00-.207 9.572c.854 3.09 2.54 5.435 4.747 6.604 4.006 2.119 6.092 3.42 7.116 5.073 1.064 1.718.904 3.615.64 6.76a192.75 192.75 0 00-.129 1.576c-.604 7.906.538 18.202 5.559 23.39.177.126.375.22.585.276a1.397 1.397 0 001.886-1.577.9.9 0 01-.011-.077z" fill="#D4E1F4"/><path d="M20.59 67.205c-.309 4.04-.781 17.772 6.118 24.9a3.562 3.562 0 006.058-3.098c-.09-.93-1.553-17.463 5.479-26.022a2.547 2.547 0 013.903.02c6.892 8.6 5.453 25.07 5.364 26.003a3.481 3.481 0 003.472 4.098c.4 0 .797-.067 1.175-.197a3.52 3.52 0 001.411-.803c6.899-7.13 6.427-20.86 6.118-24.9-.043-.564-.087-1.088-.128-1.577-.252-2.999-.335-4.37.328-5.441.757-1.223 2.706-2.407 6.273-4.3 2.873-1.526 4.965-4.63 5.89-8.743.868-3.91.568-7.99-.864-11.732-1.383-3.491-3.712-6.144-6.736-7.67-3.493-1.762-7.736-1.982-12.612-.654-3.408.93-5.193 2.037-7.083 3.209a29.986 29.986 0 01-4.587 2.445c-.044.018-.087.04-.13.059-.444-.243-.98-.553-1.571-.895-3.136-1.81-7.874-4.546-11.909-5.081-8.792-1.166-15.514 2.744-17.98 10.46-2.362 7.388.123 15.733 5.54 18.6 3.565 1.888 5.514 3.07 6.272 4.295.664 1.072.58 2.441.328 5.439-.042.492-.086 1.018-.13 1.585zm-5.375-13.39C10.829 51.494 8.813 44.251 10.81 38c1.005-3.143 4.521-10.299 15.439-8.85 3.574.474 8.07 3.07 11.045 4.788.9.52 1.676.968 2.254 1.256 2.79 1.386 6.977 3.137 11.122 2.328a1.172 1.172 0 10-.449-2.3c-2.107.41-4.496.056-7.4-1.117 1.237-.619 2.214-1.224 3.168-1.816 1.816-1.126 3.386-2.099 6.465-2.938 7.921-2.16 13.954.365 16.552 6.925a18.04 18.04 0 01.757 10.355c-.762 3.385-2.476 6.004-4.703 7.186-4.106 2.18-6.115 3.438-7.167 5.137-1.099 1.775-.937 3.693-.67 6.87.04.484.084 1.003.127 1.56.597 7.816-.525 17.986-5.452 23.079a1.839 1.839 0 01-.504.23 1.191 1.191 0 01-1.493-.598 1.207 1.207 0 01-.077-.707c.006-.032.01-.064.014-.096.077-.739 1.801-18.19-5.863-27.753a4.889 4.889 0 00-7.543-.041c-7.817 9.514-6.073 27.053-5.995 27.795.003.032.008.063.014.095.046.238.019.485-.077.707a1.191 1.191 0 01-1.494.597 2.203 2.203 0 01-.49-.217c-4.94-5.106-6.063-15.276-5.465-23.09.043-.56.087-1.082.128-1.568.267-3.176.428-5.094-.671-6.869-1.052-1.7-3.062-2.958-7.168-5.132z" fill="url(#paint0_linear)"/><path d="M89.183 11.274h-51.24l-1.765-1.758a8.925 8.925 0 00-6.342-2.621h-19.02a3.128 3.128 0 00-3.124 3.125v8.948a1.172 1.172 0 102.344 0V10.02a.781.781 0 01.78-.782h.485v9.86a1.172 1.172 0 002.344 0v-9.86h1.054v9.86a1.172 1.172 0 002.344 0v-9.86h1.055v9.86a1.172 1.172 0 102.343 0v-9.86h1.055v9.86a1.172 1.172 0 002.344 0v-9.86h1.055v9.86a1.172 1.172 0 002.343 0v-9.86h1.055v9.86a1.172 1.172 0 102.344 0v-9.81a6.59 6.59 0 013.886 1.888l3.741 3.728a8.925 8.925 0 006.342 2.62h44.577a3.125 3.125 0 000-6.25zm0 3.906H44.606a6.593 6.593 0 01-4.28-1.562h48.857a.781.781 0 110 1.562z" fill="url(#paint1_linear)"/><defs><linearGradient id="paint0_linear" x1="40.111" y1="26.234" x2="40.111" y2="93.177" gradientUnits="userSpaceOnUse"><stop stop-color="#8888D3"/><stop offset="1" stop-color="#5E60A3"/></linearGradient><linearGradient id="paint1_linear" x1="50" y1="6.895" x2="50" y2="20.27" gradientUnits="userSpaceOnUse"><stop stop-color="#8888D3"/><stop offset="1" stop-color="#5E60A3"/></linearGradient></defs></svg>