<svg width="80" height="80" viewBox="0 0 80 80" fill="none" xmlns="http://www.w3.org/2000/svg">
<path d="M46.535 10.8558C48.3674 9.71975 49.9498 8.7385 53.0616 7.89038C55.6616 7.18147 58.0603 6.97319 60.208 7.23741C57.125 5.39444 53.0781 5.04554 48.3741 6.32819C45.2624 7.17632 43.6799 8.15757 41.8475 9.29366C40.684 10.0413 39.4773 10.7196 38.2338 11.3249C40.0713 12.108 41.7099 12.5769 43.2058 12.748C44.3478 12.1759 45.4591 11.5443 46.535 10.8558Z" fill="#D4E1F4"/>
<path d="M26.6519 66.4714C26.65 66.4537 26.644 66.3958 26.6362 66.3023C23.5581 60.7642 22.8644 52.6367 23.3615 46.1325C23.4045 45.5717 23.4483 45.0505 23.4894 44.5637C23.7523 41.4355 23.9112 39.5472 22.8529 37.8378C21.8347 36.1925 19.7592 34.8989 15.7737 32.7892C13.5769 31.6262 11.8987 29.2925 11.0501 26.2183C10.2163 23.0882 10.2878 19.7857 11.2564 16.6947C12.2251 13.6634 14.0073 11.2231 16.4098 9.63718C19.2158 7.7853 22.7617 7.1278 26.95 7.68405C27.0978 7.70374 27.2469 7.72812 27.3981 7.75452C25.6506 6.96671 23.8681 6.33452 22.2625 6.12155C18.075 5.56609 14.5281 6.22359 11.7223 8.07468C9.31904 9.66062 7.53701 12.1011 6.5681 15.1322C5.5995 18.2232 5.52798 21.5257 6.36185 24.6558C7.21091 27.73 8.88857 30.0637 11.0854 31.2267C15.0698 33.3361 17.1464 34.63 18.1647 36.2753C19.2229 37.9847 19.064 39.873 18.8011 43.0012C18.76 43.488 18.7162 44.0092 18.6733 44.57C18.0719 52.4362 19.2089 62.6808 24.2045 67.842C24.3806 67.9677 24.5777 68.0609 24.7865 68.1172C25.0195 68.2099 25.2731 68.238 25.5207 68.1984C25.7683 68.1588 26.0006 68.053 26.1929 67.8922C26.3853 67.7313 26.5306 67.5215 26.6135 67.2849C26.6964 67.0483 26.7137 66.7936 26.6637 66.548C26.6584 66.5226 26.6547 66.4972 26.6519 66.4714Z" fill="#D4E1F4"/>
<path d="M60.4036 5.07357C56.9636 3.33779 52.7767 3.12341 47.9591 4.43748C44.5842 5.35669 42.8125 6.45498 40.9375 7.61794C39.6455 8.41904 38.3097 9.24748 36.3171 10.0808C36.2421 10.1127 36.1696 10.15 36.1 10.1923C35.6313 9.93888 35.0531 9.60498 34.4094 9.23294C31.29 7.43154 26.5761 4.70935 22.5863 4.18013C13.9163 3.03123 7.28908 6.88029 4.86017 14.4794C2.53126 21.7656 4.96533 29.9843 10.2863 32.802C13.8894 34.7093 15.8627 35.9101 16.6486 37.1801C17.3806 38.3628 17.2494 39.9254 17.0106 42.7623C16.9694 43.2533 16.925 43.7794 16.8819 44.3453C16.533 48.9089 16.7842 53.6198 17.5897 57.6109C18.5931 62.5828 20.3914 66.4364 22.935 69.064C23.2186 69.3568 23.65 69.6001 24.2541 69.8078C24.6078 69.9299 24.9794 69.9922 25.3536 69.9923C25.8333 69.9991 26.3086 69.8994 26.7452 69.7005C27.1817 69.5016 27.5688 69.2083 27.8784 68.8418C28.1881 68.4754 28.4126 68.0448 28.5359 67.5812C28.6592 67.1175 28.6782 66.6323 28.5914 66.1604C28.5089 65.307 27.011 48.6136 34.1219 39.9573C34.3844 39.6463 34.7121 39.3968 35.0816 39.2262C35.4512 39.0557 35.8537 38.9684 36.2606 38.9705C36.6676 38.9726 37.0692 39.064 37.437 39.2382C37.8048 39.4125 38.1299 39.6654 38.3892 39.979C38.7696 40.4548 39.1246 40.9503 39.4528 41.4634C39.5185 41.5688 39.6044 41.6601 39.7056 41.732C39.8068 41.804 39.9213 41.8551 40.0424 41.8824C40.1636 41.9097 40.2889 41.9127 40.4112 41.8911C40.5335 41.8696 40.6503 41.824 40.7548 41.757C40.8593 41.6899 40.9494 41.6028 41.02 41.5006C41.0906 41.3985 41.1401 41.2833 41.1658 41.1618C41.1915 41.0404 41.1928 40.915 41.1697 40.793C41.1465 40.671 41.0994 40.5548 41.031 40.4512C40.667 39.8826 40.2735 39.3335 39.8521 38.8061C39.4182 38.2747 38.8722 37.8458 38.2533 37.5501C37.6343 37.2543 36.9576 37.0991 36.2716 37.0953C35.5857 37.0916 34.9073 37.2395 34.2852 37.5285C33.6631 37.8175 33.1125 38.2404 32.6728 38.767C29.4006 42.75 27.4072 48.6193 26.7475 56.212C26.4463 59.5973 26.4403 63.0024 26.7297 66.3887C26.7324 66.4143 26.7361 66.4398 26.7411 66.4653C26.7911 66.711 26.7737 66.9656 26.6908 67.2022C26.6079 67.4388 26.4626 67.6486 26.2702 67.8094C26.0779 67.9701 25.8456 68.0759 25.5981 68.1155C25.3505 68.1552 25.0968 68.1271 24.8639 68.0343C24.655 67.9781 24.4579 67.8849 24.2819 67.7592C21.0066 64.375 17.8338 56.4843 18.7506 44.4873C18.7935 43.9264 18.8374 43.4051 18.8783 42.9186C19.1414 39.7901 19.3002 37.9019 18.2422 36.1925C17.2238 34.5472 15.1485 33.2537 11.1628 31.1439C8.96595 29.9809 7.28783 27.6472 6.43923 24.5729C5.60544 21.4428 5.67696 18.1403 6.64548 15.0492C7.61423 12.0179 9.39642 9.57779 11.7989 7.99185C14.6055 6.1406 18.1517 5.48326 22.3399 6.03888C25.9608 6.51919 30.4805 9.12951 33.4717 10.8565C34.3675 11.374 35.1413 11.8208 35.7127 12.105C38.471 13.4769 42.6091 15.2087 46.6855 14.4133C46.9276 14.3636 47.1403 14.2204 47.2774 14.0148C47.4145 13.8092 47.4648 13.5577 47.4174 13.3151C47.3701 13.0726 47.2288 12.8585 47.0245 12.7196C46.8201 12.5806 46.5691 12.528 46.3261 12.5731C44.0591 13.0156 41.4789 12.5887 38.3141 11.2414C39.5568 10.6364 40.7627 9.95852 41.9255 9.21138C43.758 8.07529 45.3403 7.09404 48.452 6.24591C56.5017 4.05107 62.6369 6.62701 65.2839 13.3112C66.5517 16.5129 66.8316 20.337 66.0514 23.8034C65.2747 27.2553 63.5175 29.9314 61.2303 31.1453C59.0331 32.3114 57.3214 33.2742 56.1092 34.1828C55.9103 34.332 55.7788 34.5541 55.7437 34.8002C55.7085 35.0463 55.7726 35.2964 55.9217 35.4953C56.0709 35.6942 56.293 35.8257 56.5392 35.8609C56.7853 35.896 57.0353 35.832 57.2342 35.6828C58.3497 34.8467 59.99 33.9261 62.1092 32.8011C64.9208 31.3087 66.9703 28.2592 67.8806 24.2147C68.7413 20.3897 68.4302 16.1637 67.0271 12.6209C65.666 9.18294 63.375 6.57294 60.4036 5.07357Z" fill="url(#paint0_linear)"/>
<path d="M54.7656 33.9062C43.0484 33.9062 33.5156 43.4391 33.5156 55.1562C33.5156 66.8734 43.0484 76.4062 54.7656 76.4062C66.4828 76.4062 76.0156 66.8734 76.0156 55.1562C76.0156 43.4391 66.4828 33.9062 54.7656 33.9062ZM54.7656 74.5312C50.9336 74.5312 47.1877 73.3949 44.0015 71.266C40.8152 69.137 38.3319 66.1111 36.8655 62.5707C35.399 59.0304 35.0153 55.1348 35.7629 51.3764C36.5105 47.618 38.3558 44.1657 41.0654 41.4561C43.7751 38.7464 47.2274 36.9011 50.9858 36.1535C54.7441 35.4059 58.6398 35.7896 62.1801 37.2561C65.7204 38.7225 68.7464 41.2059 70.8754 44.3921C73.0043 47.5783 74.1406 51.3242 74.1406 55.1562C74.1348 60.293 72.0917 65.2178 68.4594 68.8501C64.8272 72.4823 59.9024 74.5255 54.7656 74.5312Z" fill="url(#paint1_linear)"/>
<path d="M53.6684 42.8195C54.3768 42.8195 55.0626 42.5615 55.7261 42.0453C55.8958 41.913 56.0425 41.7852 56.172 41.6722C56.4438 41.3977 56.7736 41.1875 57.1372 41.0572C57.6328 40.8887 58.2425 40.9566 58.9497 41.2586C59.1782 41.3557 59.4359 41.3581 59.6662 41.2654C59.8965 41.1728 60.0807 40.9925 60.1782 40.7642C60.2758 40.536 60.2789 40.2783 60.1867 40.0477C60.0946 39.8172 59.9148 39.6326 59.6867 39.5345C58.5422 39.045 57.4815 38.9602 56.5344 39.2819C55.939 39.4892 55.3954 39.8225 54.9406 40.2591C54.8187 40.3655 54.7036 40.4658 54.5747 40.5662C54.0422 40.9808 53.3572 41.3144 51.9497 40.0159C51.8592 39.9325 51.7531 39.8676 51.6376 39.8251C51.522 39.7826 51.3993 39.7633 51.2762 39.7682C51.1532 39.7732 51.0324 39.8023 50.9206 39.854C50.8089 39.9056 50.7084 39.9788 50.6249 40.0693C50.5414 40.1598 50.4766 40.2658 50.4341 40.3814C50.3916 40.4969 50.3723 40.6197 50.3772 40.7427C50.3822 40.8657 50.4113 40.9866 50.463 41.0983C50.5146 41.2101 50.5878 41.3106 50.6783 41.3941C51.707 42.3438 52.7069 42.8195 53.6684 42.8195Z" fill="url(#paint2_linear)"/>
<path d="M51.2958 51.9972C51.0538 51.9405 50.7991 51.9822 50.5878 52.113C50.3764 52.2439 50.2256 52.4532 50.1685 52.6952C49.5802 55.1952 50.2574 56.8697 52.1816 57.6714C52.3925 57.7594 52.5878 57.8286 52.7611 57.8902C53.2038 58.0464 53.4955 58.1497 53.8655 58.4799C54.2966 58.8649 54.5619 59.4835 54.6541 60.3186C54.6794 60.5479 54.7882 60.7598 54.9599 60.9138C55.1316 61.0678 55.3541 61.1531 55.5847 61.1535C55.6195 61.1534 55.6542 61.1515 55.6888 61.1477C55.8112 61.1342 55.9297 61.0967 56.0376 61.0374C56.1455 60.9781 56.2406 60.8981 56.3176 60.802C56.3946 60.706 56.4519 60.5957 56.4863 60.4774C56.5206 60.3592 56.5314 60.2354 56.5179 60.113C56.3733 58.8041 55.9014 57.7849 55.1147 57.0817C54.6141 56.6413 54.0242 56.3141 53.3855 56.1225C53.2211 56.0645 53.066 56.0096 52.9027 55.9417C52.2103 55.653 51.5121 55.1736 51.9938 53.1255C52.0221 53.0056 52.0265 52.8812 52.0068 52.7596C51.9871 52.638 51.9435 52.5214 51.8787 52.4167C51.8139 52.3119 51.729 52.2209 51.629 52.1489C51.529 52.0769 51.4158 52.0254 51.2958 51.9972Z" fill="url(#paint3_linear)"/>
<path d="M66.0559 55.9062C65.9238 56.0198 65.7991 56.1273 65.6588 56.2353C65.0641 56.6928 64.3009 57.0603 62.7636 55.6244C62.5819 55.4546 62.3402 55.364 62.0917 55.3725C61.8432 55.381 61.6082 55.4878 61.4384 55.6695C61.2687 55.8512 61.1781 56.0929 61.1866 56.3415C61.195 56.59 61.3019 56.825 61.4836 56.9947C62.5731 58.012 63.6325 58.5214 64.653 58.5214C65.3911 58.5214 66.1075 58.2547 66.802 57.7214C66.9833 57.5819 67.1408 57.4464 67.2795 57.3269C67.6352 57.0205 67.8702 56.8181 68.3403 56.6616C68.8886 56.4788 69.5569 56.5564 70.3278 56.8913C70.5544 56.9826 70.8076 56.982 71.0337 56.8895C71.2598 56.7969 71.4408 56.6198 71.5383 56.3958C71.6357 56.1718 71.6419 55.9186 71.5554 55.6901C71.469 55.4616 71.2968 55.2759 71.0755 55.1725C69.868 54.6472 68.7474 54.5498 67.7474 54.8831C67.1165 55.0985 66.5396 55.4475 66.0559 55.9062Z" fill="url(#paint4_linear)"/>
<path d="M64.957 50.6674C65.1197 50.6673 65.2796 50.6248 65.4209 50.5442C65.5622 50.4635 65.6801 50.3475 65.7629 50.2075C65.8458 50.0674 65.8908 49.9083 65.8935 49.7456C65.8963 49.5829 65.8566 49.4223 65.7784 49.2796C65.6018 48.9598 65.5514 48.5854 65.6371 48.2302C65.7228 47.875 65.9385 47.5648 66.2416 47.3607C66.6634 47.0745 67.0142 46.6956 67.267 46.2529C67.5199 45.8103 67.6682 45.3156 67.7005 44.8069C67.7328 44.2981 67.6482 43.7887 67.4534 43.3176C67.2585 42.8466 66.9585 42.4263 66.5763 42.089C66.4839 42.0075 66.3764 41.9451 66.26 41.9052C66.1435 41.8652 66.0203 41.8486 65.8974 41.8563C65.7745 41.864 65.6543 41.8958 65.5437 41.95C65.4331 42.0041 65.3343 42.0795 65.2528 42.1718C65.1714 42.2642 65.1089 42.3716 65.069 42.4881C65.029 42.6046 65.0124 42.7278 65.0201 42.8507C65.0278 42.9736 65.0596 43.0938 65.1138 43.2044C65.1679 43.3149 65.2433 43.4138 65.3356 43.4953C65.5035 43.6433 65.6352 43.8278 65.7208 44.0346C65.8063 44.2414 65.8434 44.4651 65.8293 44.6884C65.8151 44.9118 65.75 45.1289 65.639 45.3233C65.528 45.5176 65.374 45.684 65.1888 45.8096C64.4982 46.2743 64.0069 46.9809 63.8116 47.79C63.6164 48.599 63.7314 49.4519 64.1339 50.1804C64.2148 50.328 64.3339 50.4511 64.4787 50.5368C64.6235 50.6225 64.7888 50.6676 64.957 50.6674Z" fill="url(#paint5_linear)"/>
<path d="M57.0648 66.2656C56.817 66.2462 56.5715 66.326 56.3825 66.4875C56.1934 66.649 56.0763 66.879 56.0569 67.1269C56.0366 67.3844 55.9554 67.6335 55.82 67.8535C55.6846 68.0736 55.4989 68.2583 55.2781 68.3924C55.0573 68.5266 54.8078 68.6064 54.5501 68.6252C54.2925 68.6441 54.034 68.6014 53.7961 68.5008L53.4311 68.3464C52.9835 68.157 52.5015 68.0628 52.0156 68.0697C51.5297 68.0765 51.0505 68.1843 50.6085 68.3863C50.1665 68.5882 49.7713 68.8798 49.448 69.2426C49.1246 69.6054 48.8803 70.0315 48.7304 70.4938L48.6679 70.6844C48.6289 70.8018 48.6136 70.9257 48.6227 71.0491C48.6318 71.1724 48.6652 71.2928 48.721 71.4031C48.7769 71.5135 48.854 71.6118 48.948 71.6922C49.0419 71.7726 49.1509 71.8337 49.2685 71.8718C49.3862 71.91 49.5103 71.9244 49.6336 71.9144C49.7568 71.9044 49.8769 71.8701 49.9869 71.8134C50.0969 71.7568 50.1945 71.679 50.2743 71.5844C50.354 71.4899 50.4143 71.3804 50.4515 71.2625L50.514 71.0719C50.5837 70.8569 50.6973 70.6587 50.8477 70.4899C50.9981 70.3211 51.1819 70.1855 51.3874 70.0915C51.593 69.9976 51.8159 69.9474 52.0419 69.9443C52.2679 69.9411 52.4921 69.9849 52.7003 70.073L53.0653 70.2273C53.5768 70.4438 54.1325 70.5356 54.6864 70.4952C55.2404 70.4548 55.7769 70.2833 56.2516 69.9949C56.7263 69.7065 57.1256 69.3095 57.4168 68.8364C57.7079 68.3634 57.8825 67.828 57.9261 67.2742C57.9358 67.1514 57.9212 67.0279 57.8832 66.9108C57.8452 66.7936 57.7844 66.6851 57.7044 66.5915C57.6245 66.4978 57.5268 66.4208 57.4171 66.3649C57.3073 66.309 57.1876 66.2753 57.0648 66.2656Z" fill="url(#paint6_linear)"/>
<path d="M45.3114 51.8878C45.2985 51.6409 45.1885 51.409 45.0054 51.2428C44.8224 51.0766 44.5811 50.9894 44.334 51.0002C44.087 51.0111 43.8542 51.1191 43.6865 51.3008C43.5187 51.4824 43.4295 51.723 43.4383 51.9701C43.4496 52.2283 43.3994 52.4854 43.2918 52.7203C43.1843 52.9552 43.0225 53.1612 42.8197 53.3213C42.6169 53.4813 42.379 53.5909 42.1255 53.641C41.872 53.6911 41.6103 53.6803 41.3619 53.6094L40.9809 53.5C40.5136 53.3667 40.0237 53.332 39.5423 53.3981C39.0609 53.4642 38.5985 53.6296 38.1844 53.884C37.7704 54.1383 37.4137 54.4759 37.1371 54.8754C36.8604 55.275 36.6699 55.7276 36.5775 56.2047L36.5394 56.4014C36.5159 56.5223 36.5165 56.6466 36.5411 56.7672C36.5657 56.8879 36.6138 57.0025 36.6827 57.1045C36.7516 57.2066 36.8399 57.294 36.9426 57.3619C37.0453 57.4299 37.1604 57.4769 37.2813 57.5003C37.3404 57.5117 37.4005 57.5175 37.4608 57.5175C37.6783 57.5173 37.8889 57.4414 38.0567 57.3029C38.2244 57.1645 38.3388 56.972 38.3802 56.7584L38.4183 56.5612C38.4612 56.3393 38.5498 56.1287 38.6785 55.9429C38.8072 55.757 38.9731 55.6 39.1657 55.4817C39.3583 55.3634 39.5734 55.2864 39.7974 55.2556C40.0213 55.2249 40.2492 55.2411 40.4666 55.3031L40.8475 55.4117C41.3817 55.5642 41.9444 55.5875 42.4894 55.4797C43.0343 55.372 43.5458 55.1363 43.9818 54.792C44.4178 54.4478 44.7657 54.0048 44.9968 53.4997C45.228 52.9946 45.3358 52.4418 45.3114 51.8869V51.8878Z" fill="url(#paint7_linear)"/>
<path d="M45.9375 58.5414C45.8403 58.6169 45.7589 58.7109 45.698 58.8179C45.6371 58.9249 45.5979 59.0429 45.5826 59.165C45.5673 59.2872 45.5762 59.4112 45.6088 59.5299C45.6414 59.6486 45.6971 59.7598 45.7727 59.857C45.9293 60.0582 46.0314 60.2964 46.0692 60.5486C46.107 60.8008 46.0792 61.0585 45.9885 61.2968C45.8978 61.5351 45.7472 61.746 45.5513 61.9092C45.3553 62.0724 45.1207 62.1824 44.8699 62.2285C44.3936 62.3166 43.942 62.5066 43.5461 62.7854C43.1501 63.0643 42.8191 63.4254 42.5757 63.8442C42.3323 64.2629 42.1823 64.7293 42.136 65.2114C42.0897 65.6935 42.1481 66.1799 42.3074 66.6373C42.3891 66.8721 42.5608 67.0649 42.7847 67.1731C43.0086 67.2814 43.2663 67.2962 43.5011 67.2145C43.7359 67.1327 43.9287 66.961 44.0369 66.7371C44.1452 66.5133 44.1601 66.2556 44.0783 66.0207C44.0078 65.8186 43.9819 65.6036 44.0023 65.3905C44.0228 65.1774 44.089 64.9712 44.1966 64.7861C44.3042 64.601 44.4506 64.4414 44.6257 64.3182C44.8007 64.195 45.0004 64.1111 45.211 64.0723C45.7783 63.9677 46.3092 63.7188 46.7525 63.3495C47.1957 62.9802 47.5364 62.503 47.7416 61.9638C47.9469 61.4247 48.0099 60.8417 47.9245 60.2711C47.839 59.7006 47.6081 59.1616 47.2539 58.7062C47.1784 58.6089 47.0843 58.5274 46.9773 58.4664C46.8702 58.4055 46.7522 58.3662 46.6299 58.3509C46.5076 58.3356 46.3835 58.3445 46.2647 58.3772C46.1459 58.4099 46.0347 58.4657 45.9375 58.5414Z" fill="url(#paint8_linear)"/>
<path d="M41.3263 45.4844C41.4333 45.5453 41.5512 45.5845 41.6734 45.5998C41.7956 45.6151 41.9196 45.6062 42.0383 45.5736C42.1571 45.541 42.2682 45.4853 42.3654 45.4097C42.4626 45.3341 42.544 45.2401 42.6049 45.1331C42.7263 44.9199 42.9111 44.75 43.1337 44.6469C43.3564 44.5439 43.6056 44.5129 43.8466 44.5582C44.0877 44.6036 44.3086 44.7231 44.4785 44.9C44.6485 45.0769 44.7589 45.3024 44.7945 45.5451C44.8815 46.1681 45.1606 46.7485 45.593 47.2053C46.0254 47.6622 46.5896 47.9727 47.2069 48.0937C47.4126 48.1356 47.622 48.1568 47.8319 48.157C48.3538 48.1574 48.867 48.0223 49.3211 47.7651C49.7753 47.5079 50.1549 47.1372 50.423 46.6894C50.5523 46.477 50.5919 46.2219 50.5332 45.9803C50.4744 45.7387 50.3221 45.5304 50.1097 45.4011C49.8973 45.2718 49.6423 45.2322 49.4007 45.2909C49.1591 45.3497 48.9507 45.502 48.8214 45.7144C48.6954 45.9213 48.5086 46.0844 48.2865 46.1813C48.0644 46.2783 47.8178 46.3044 47.5804 46.2561C47.3429 46.2078 47.1261 46.0874 46.9596 45.9115C46.793 45.7355 46.6847 45.5124 46.6495 45.2726C46.5573 44.6436 46.271 44.0591 45.8306 43.6007C45.3902 43.1422 44.8177 42.8326 44.1929 42.7151C43.5682 42.5976 42.9223 42.678 42.3454 42.9452C41.7686 43.2124 41.2895 43.6529 40.975 44.2054C40.9141 44.3125 40.8748 44.4305 40.8595 44.5527C40.8441 44.6749 40.853 44.7989 40.8857 44.9177C40.9183 45.0365 40.974 45.1476 41.0496 45.2449C41.1252 45.3421 41.2192 45.4235 41.3263 45.4844Z" fill="url(#paint9_linear)"/>
<path d="M64.5758 68.1669C64.3338 68.1794 64.0938 68.1169 63.8885 67.9881C63.6833 67.8592 63.5227 67.6702 63.4288 67.4468C63.3348 67.2234 63.312 66.9765 63.3635 66.7397C63.415 66.5029 63.5382 66.2877 63.7164 66.1234C64.1839 65.6927 64.5053 65.1268 64.6357 64.5046C64.7662 63.8825 64.6992 63.2352 64.4441 62.6529C64.1891 62.0707 63.7586 61.5826 63.2129 61.2566C62.6671 60.9307 62.0333 60.7833 61.3997 60.8348C61.1519 60.855 60.9222 60.9729 60.7613 61.1624C60.6003 61.3519 60.5212 61.5976 60.5414 61.8455C60.5616 62.0933 60.6795 62.3229 60.869 62.4839C61.0585 62.6449 61.3042 62.7239 61.5521 62.7037C61.7965 62.6839 62.0411 62.7408 62.2516 62.8666C62.4622 62.9924 62.6282 63.1808 62.7266 63.4054C62.825 63.6301 62.8509 63.8798 62.8006 64.1199C62.7503 64.3599 62.6263 64.5783 62.446 64.7445C61.9944 65.1605 61.6788 65.703 61.5403 66.3011C61.4017 66.8992 61.4467 67.5252 61.6693 68.0973C61.8919 68.6695 62.2818 69.1612 62.7882 69.5084C63.2945 69.8556 63.8937 70.0421 64.5077 70.0436C64.5625 70.0436 64.6171 70.0423 64.673 70.0394C64.9213 70.0265 65.1543 69.9155 65.3208 69.7308C65.4873 69.5462 65.5736 69.3029 65.5607 69.0546C65.5479 68.8063 65.4369 68.5733 65.2522 68.4068C65.0675 68.2403 64.8243 68.154 64.576 68.1669H64.5758Z" fill="url(#paint10_linear)"/>
<path d="M60.7169 51.867C60.7032 51.6191 60.592 51.3867 60.4076 51.2204C60.2232 51.0541 59.9806 50.9675 59.7326 50.9794C59.4905 50.9919 59.2505 50.9294 59.0453 50.8006C58.84 50.6717 58.6795 50.4827 58.5855 50.2593C58.4916 50.0359 58.4688 49.789 58.5202 49.5522C58.5717 49.3154 58.695 49.1002 58.8732 48.9359C59.3406 48.5052 59.662 47.9393 59.7925 47.3171C59.9229 46.695 59.8559 46.0477 59.6009 45.4654C59.3458 44.8832 58.9154 44.3951 58.3696 44.0691C57.8239 43.7432 57.19 43.5958 56.5565 43.6473C56.3086 43.6675 56.079 43.7854 55.918 43.9749C55.757 44.1644 55.678 44.4101 55.6982 44.658C55.7184 44.9058 55.8362 45.1355 56.0257 45.2964C56.2153 45.4574 56.461 45.5364 56.7088 45.5162C56.9533 45.4964 57.1978 45.5533 57.4084 45.6791C57.6189 45.8049 57.785 45.9933 57.8834 46.2179C57.9818 46.4426 58.0076 46.6923 57.9573 46.9324C57.907 47.1724 57.783 47.3908 57.6027 47.557C57.1512 47.973 56.8356 48.5155 56.697 49.1136C56.5585 49.7117 56.6034 50.3377 56.826 50.9098C57.0486 51.482 57.4386 51.9737 57.9449 52.3209C58.4512 52.6681 59.0505 52.8546 59.6644 52.8561C59.7193 52.8561 59.7738 52.8548 59.8297 52.8519C60.078 52.8389 60.3109 52.7278 60.4772 52.5431C60.6436 52.3584 60.7298 52.1153 60.7169 51.867Z" fill="url(#paint11_linear)"/>
<defs>
<linearGradient id="paint0_linear" x1="36.1676" y1="3.5896" x2="36.1676" y2="69.9926" gradientUnits="userSpaceOnUse">
<stop stop-color="#8888D3"/>
<stop offset="1" stop-color="#5E60A3"/>
</linearGradient>
<linearGradient id="paint1_linear" x1="54.7656" y1="33.9062" x2="54.7656" y2="76.4062" gradientUnits="userSpaceOnUse">
<stop stop-color="#8888D3"/>
<stop offset="1" stop-color="#5E60A3"/>
</linearGradient>
<linearGradient id="paint2_linear" x1="55.3151" y1="39.0908" x2="55.3151" y2="42.8195" gradientUnits="userSpaceOnUse">
<stop stop-color="#8888D3"/>
<stop offset="1" stop-color="#5E60A3"/>
</linearGradient>
<linearGradient id="paint3_linear" x1="53.2433" y1="51.9725" x2="53.2433" y2="61.1535" gradientUnits="userSpaceOnUse">
<stop stop-color="#8888D3"/>
<stop offset="1" stop-color="#5E60A3"/>
</linearGradient>
<linearGradient id="paint4_linear" x1="66.4011" y1="54.6895" x2="66.4011" y2="58.5214" gradientUnits="userSpaceOnUse">
<stop stop-color="#8888D3"/>
<stop offset="1" stop-color="#5E60A3"/>
</linearGradient>
<linearGradient id="paint5_linear" x1="65.713" y1="41.8545" x2="65.713" y2="50.6674" gradientUnits="userSpaceOnUse">
<stop stop-color="#8888D3"/>
<stop offset="1" stop-color="#5E60A3"/>
</linearGradient>
<linearGradient id="paint6_linear" x1="53.2746" y1="66.2628" x2="53.2746" y2="71.9175" gradientUnits="userSpaceOnUse">
<stop stop-color="#8888D3"/>
<stop offset="1" stop-color="#5E60A3"/>
</linearGradient>
<linearGradient id="paint7_linear" x1="40.9185" y1="50.9993" x2="40.9185" y2="57.5175" gradientUnits="userSpaceOnUse">
<stop stop-color="#8888D3"/>
<stop offset="1" stop-color="#5E60A3"/>
</linearGradient>
<linearGradient id="paint8_linear" x1="45.041" y1="58.3436" x2="45.041" y2="67.2666" gradientUnits="userSpaceOnUse">
<stop stop-color="#8888D3"/>
<stop offset="1" stop-color="#5E60A3"/>
</linearGradient>
<linearGradient id="paint9_linear" x1="45.7059" y1="42.6625" x2="45.7059" y2="48.157" gradientUnits="userSpaceOnUse">
<stop stop-color="#8888D3"/>
<stop offset="1" stop-color="#5E60A3"/>
</linearGradient>
<linearGradient id="paint10_linear" x1="63.0502" y1="60.8248" x2="63.0502" y2="70.0436" gradientUnits="userSpaceOnUse">
<stop stop-color="#8888D3"/>
<stop offset="1" stop-color="#5E60A3"/>
</linearGradient>
<linearGradient id="paint11_linear" x1="58.2066" y1="43.6373" x2="58.2066" y2="52.8561" gradientUnits="userSpaceOnUse">
<stop stop-color="#8888D3"/>
<stop offset="1" stop-color="#5E60A3"/>
</linearGradient>
</defs>
</svg>
