<svg width="100" height="100" viewBox="0 0 100 100" fill="none" xmlns="http://www.w3.org/2000/svg">
<path d="M80.1367 37.3108C81.2809 36.6012 82.269 35.9887 84.2121 35.459C85.6591 35.035 87.1748 34.8965 88.6746 35.0512C86.75 33.9004 84.2215 33.6825 81.285 34.4832C79.342 35.0129 78.3537 35.6256 77.2096 36.335C76.483 36.8023 75.7295 37.2262 74.9529 37.6045C75.94 38.0485 76.9859 38.3478 78.0584 38.4932C78.7713 38.1356 79.465 37.7409 80.1367 37.3108Z" fill="#D4E1F4"/>
<path d="M82.4654 66.6837C82.0647 61.9571 80.8455 58.2919 78.842 55.7917C78.5714 55.4556 78.2283 55.1849 77.8384 54.9999C77.4486 54.815 77.022 54.7204 76.5904 54.7233C76.3596 54.7235 76.1296 54.7507 75.9051 54.8044C75.9082 54.8085 75.9117 54.8122 75.9149 54.8161C77.9186 57.3161 79.1375 60.9807 79.5383 65.7081C79.7214 67.8144 79.7235 69.9326 79.5445 72.0393C79.5428 72.0556 79.5404 72.0716 79.5375 72.0876C79.5061 72.241 79.5168 72.4001 79.5685 72.5479C79.6202 72.6957 79.7109 72.8268 79.831 72.9272C79.9512 73.0277 80.0962 73.0938 80.2509 73.1185C80.4055 73.1431 80.5639 73.1255 80.7094 73.0675C80.8402 73.0324 80.9637 72.9739 81.0736 72.8948C81.6778 72.2575 82.1892 71.5383 82.5926 70.7583C82.621 69.3988 82.5786 68.0388 82.4654 66.6837Z" fill="#D4E1F4"/>
<path d="M67.7207 72.0397C67.7195 72.0286 67.7158 71.9925 67.7103 71.9343C65.7883 68.4759 65.3551 63.4009 65.6656 59.3392C65.6924 58.989 65.7197 58.6636 65.7453 58.3597C65.9096 56.4065 66.0088 55.227 65.348 54.1604C64.7121 53.1331 63.4158 52.3245 60.9273 51.0079C59.5555 50.2815 58.508 48.8243 57.9781 46.9048C57.4574 44.9502 57.502 42.888 58.1068 40.9577C58.7123 39.0649 59.8256 37.5409 61.325 36.5507C63.0771 35.3942 65.2914 34.9837 67.907 35.3306C67.9992 35.3429 68.0928 35.3581 68.1867 35.3745C67.0955 34.8825 65.9826 34.4878 64.9799 34.355C62.3644 34.0079 60.1502 34.4185 58.3978 35.5749C56.8976 36.5653 55.7849 38.0892 55.1799 39.9819C54.575 41.9122 54.5303 43.9744 55.051 45.929C55.5812 47.8487 56.6289 49.306 58.0002 50.0321C60.4883 51.3477 61.7849 52.1565 62.4219 53.1837C63.0826 54.2511 62.9836 55.4298 62.8193 57.3829C62.7937 57.6868 62.7662 58.0124 62.7394 58.3626C62.3639 63.2747 63.074 69.6712 66.1931 72.8938C66.3031 72.9724 66.4262 73.0306 66.5566 73.0657C66.7021 73.1237 66.8605 73.1413 67.0151 73.1165C67.1697 73.0918 67.3147 73.0258 67.4348 72.9253C67.555 72.8249 67.6457 72.6938 67.6974 72.546C67.7491 72.3983 67.7598 72.2392 67.7285 72.0858C67.7248 72.0718 67.7224 72.0557 67.7207 72.0397Z" fill="#D4E1F4"/>
<path d="M49.9297 54.7108C51.184 55.2005 52.267 55.6231 53.8569 56.8593C55.0643 57.7623 56.0846 58.8916 56.861 60.1843C56.6266 57.954 55.2838 55.8012 52.8807 53.9323C51.291 52.6958 50.2078 52.2721 48.9537 51.7839C48.1441 51.4831 47.353 51.1345 46.5846 50.7401C46.8217 51.7959 47.2098 52.812 47.7369 53.7571C48.4507 54.1132 49.1826 54.4315 49.9297 54.7108Z" fill="#D4E1F4"/>
<path d="M27.832 74.2006C31.3731 71.0432 33.5727 67.8688 34.3701 64.7658C34.4765 64.3478 34.4871 63.9111 34.4011 63.4884C34.3152 63.0656 34.1349 62.6678 33.8736 62.3244C33.735 62.1399 33.5751 61.9722 33.3975 61.8248C33.3961 61.8297 33.3953 61.8348 33.3941 61.8397C32.5967 64.9426 30.3969 68.117 26.8559 71.2744C25.2806 72.6848 23.5872 73.9574 21.7943 75.0781C21.7805 75.0865 21.7662 75.0944 21.7518 75.1014C21.6102 75.1684 21.4894 75.2724 21.4022 75.4025C21.315 75.5325 21.2645 75.6837 21.2563 75.8401C21.248 75.9965 21.2822 76.1522 21.3552 76.2907C21.4283 76.4293 21.5374 76.5454 21.6711 76.627C21.7778 76.7106 21.8986 76.7743 22.0279 76.8149C22.9003 76.9157 23.7824 76.8931 24.6484 76.7477C25.7532 75.9546 26.8159 75.1045 27.832 74.2006Z" fill="#D4E1F4"/>
<path d="M14.6984 65.6204C14.7066 65.6128 14.7334 65.5882 14.7766 65.5489C16.3895 61.9356 20.1893 58.5436 23.6242 56.3548C23.9205 56.1659 24.1973 55.9927 24.4557 55.8307C26.1158 54.7897 27.1195 54.1616 27.577 52.9923C28.0172 51.8671 27.8854 50.3456 27.4459 47.5643C27.2035 46.0311 27.7406 44.3186 28.958 42.7425C30.2092 41.1532 31.8858 39.9517 33.7928 39.2774C35.6699 38.6257 37.5566 38.6012 39.2492 39.2069C41.2256 39.9145 42.883 41.4393 44.175 43.7397C44.2205 43.8208 44.2645 43.9048 44.3076 43.9899C44.0463 42.8218 43.6941 41.6946 43.1988 40.8128C41.9068 38.5124 40.2496 36.9876 38.273 36.28C36.5807 35.6745 34.6937 35.6987 32.8166 36.3505C30.9097 37.025 29.2333 38.2269 27.9822 39.8163C26.7648 41.3925 26.2277 43.105 26.4701 44.6382C26.9098 47.4194 27.0414 48.9409 26.6012 50.0661C26.1439 51.2354 25.1412 51.863 23.4799 52.9046C23.2215 53.0665 22.9447 53.2397 22.6486 53.4286C18.4939 56.0759 13.8029 60.4829 13.0967 64.913C13.0997 65.0481 13.1271 65.1815 13.1773 65.3069C13.2406 65.5204 13.3815 65.7025 13.5724 65.8172C13.7633 65.9319 13.9902 65.971 14.2084 65.9266C14.3842 65.8845 14.5431 65.7903 14.6646 65.6565C14.6754 65.6429 14.6875 65.6313 14.6984 65.6204Z" fill="#D4E1F4"/>
<path d="M46.6842 21.5447C46.3781 21.5986 46.106 21.7719 45.9277 22.0265C45.7494 22.2811 45.6795 22.5961 45.7334 22.9021L47.258 31.558C47.3134 31.8627 47.4871 32.1331 47.7413 32.3101C47.9954 32.4871 48.3092 32.5563 48.6142 32.5026C48.9192 32.4489 49.1906 32.2766 49.369 32.0235C49.5473 31.7703 49.6183 31.4568 49.5662 31.1515L48.0418 22.4957C48.0151 22.3441 47.9589 22.1992 47.8762 22.0694C47.7935 21.9396 47.6861 21.8273 47.56 21.739C47.4339 21.6507 47.2917 21.588 47.1414 21.5547C46.9912 21.5214 46.8358 21.518 46.6842 21.5447Z" fill="url(#paint0_linear)"/>
<path d="M39.2537 26.905C39.1229 26.9861 39.0093 27.0921 38.9195 27.2171C38.8297 27.3421 38.7653 27.4835 38.7302 27.6333C38.695 27.7831 38.6897 27.9384 38.7145 28.0903C38.7394 28.2422 38.7939 28.3877 38.875 28.5185L41.6457 32.9882C41.7268 33.119 41.8328 33.2326 41.9578 33.3224C42.0827 33.4122 42.2242 33.4766 42.374 33.5117C42.5238 33.5469 42.6791 33.5522 42.831 33.5274C42.9828 33.5025 43.1283 33.448 43.2592 33.3669C43.39 33.2859 43.5035 33.1798 43.5933 33.0548C43.6832 32.9299 43.7475 32.7884 43.7827 32.6386C43.8178 32.4888 43.8232 32.3335 43.7983 32.1816C43.7735 32.0298 43.7189 31.8843 43.6379 31.7535L40.8672 27.2835C40.7034 27.0194 40.4414 26.8311 40.1388 26.7601C39.8362 26.6891 39.5178 26.7412 39.2537 26.905Z" fill="url(#paint1_linear)"/>
<path d="M53.9428 31.4853C54.0934 31.5169 54.2488 31.5185 54.4 31.4899C54.5513 31.4614 54.6954 31.4034 54.8242 31.3191C54.953 31.2349 55.0639 31.1261 55.1506 30.9989C55.2373 30.8717 55.2981 30.7287 55.3295 30.578L56.406 25.4306C56.4375 25.2799 56.4391 25.1246 56.4105 24.9734C56.382 24.8221 56.3239 24.678 56.2397 24.5492C56.1554 24.4204 56.0466 24.3095 55.9195 24.2228C55.7924 24.136 55.6494 24.0752 55.4988 24.0437C55.3482 24.0122 55.1928 24.0107 55.0416 24.0392C54.8904 24.0677 54.7462 24.1258 54.6175 24.21C54.4887 24.2943 54.3777 24.4031 54.291 24.5302C54.2042 24.6573 54.1434 24.8003 54.1119 24.9509L53.0355 30.0976C53.0039 30.2483 53.0023 30.4037 53.0308 30.555C53.0593 30.7063 53.1173 30.8505 53.2016 30.9794C53.2858 31.1083 53.3946 31.2193 53.5218 31.3061C53.649 31.3929 53.792 31.4538 53.9428 31.4853Z" fill="url(#paint2_linear)"/>
<path d="M96.9955 60.5099C93.8719 59.1756 89.9584 57.9842 85.3637 56.9687C85.2125 56.9329 85.0557 56.9276 84.9024 56.9529C84.7491 56.9783 84.6024 57.0339 84.4708 57.1164C84.3392 57.199 84.2253 57.307 84.1358 57.434C84.0463 57.561 83.9829 57.7045 83.9494 57.8562C83.9159 58.0079 83.9129 58.1648 83.9405 58.3177C83.9682 58.4706 84.026 58.6164 84.1105 58.7468C84.1951 58.8771 84.3047 58.9894 84.433 59.077C84.5614 59.1646 84.7058 59.2258 84.858 59.257C89.3112 60.2414 93.0848 61.3881 96.075 62.6652C96.3601 62.7834 96.6804 62.7843 96.9662 62.6678C97.252 62.5513 97.4803 62.3268 97.6015 62.0429C97.7227 61.7591 97.7271 61.4389 97.6136 61.1519C97.5002 60.8649 97.2781 60.6342 96.9955 60.5099Z" fill="url(#paint3_linear)"/>
<path d="M16.0742 56.7483C10.8916 57.7998 6.49824 59.0637 3.01641 60.5047C2.87421 60.5636 2.745 60.6499 2.63615 60.7587C2.52731 60.8675 2.44095 60.9966 2.38203 61.1388C2.3231 61.281 2.29276 61.4334 2.29272 61.5873C2.29269 61.7412 2.32297 61.8936 2.38184 62.0358C2.4407 62.178 2.52699 62.3072 2.63579 62.416C2.74459 62.5249 2.87377 62.6112 3.01594 62.6701C3.15811 62.7291 3.3105 62.7594 3.4644 62.7594C3.61829 62.7595 3.77069 62.7292 3.91289 62.6703C7.25605 61.2865 11.5045 60.067 16.5404 59.0451C16.8435 58.9818 17.1093 58.8011 17.2796 58.5425C17.4498 58.2839 17.5109 57.9684 17.4493 57.6649C17.3877 57.3614 17.2085 57.0947 16.9508 56.9229C16.6932 56.7512 16.378 56.6884 16.0742 56.7483Z" fill="url(#paint4_linear)"/>
<path d="M56.3721 57.2036H62.3373C62.6481 57.2036 62.9462 57.0801 63.1659 56.8603C63.3857 56.6405 63.5092 56.3425 63.5092 56.0317C63.5092 55.7209 63.3857 55.4228 63.1659 55.203C62.9462 54.9833 62.6481 54.8598 62.3373 54.8598H56.3721C56.0613 54.8598 55.7632 54.9833 55.5434 55.203C55.3237 55.4228 55.2002 55.7209 55.2002 56.0317C55.2002 56.3425 55.3237 56.6405 55.5434 56.8603C55.7632 57.0801 56.0613 57.2036 56.3721 57.2036Z" fill="url(#paint5_linear)"/>
<path d="M57.3143 64.9219C60.033 60.2422 58.7182 55.2734 53.7967 51.6303C51.9713 50.2789 50.649 49.7986 49.3703 49.3344C48.4032 49.0062 47.4649 48.5988 46.5649 48.1162C46.5233 47.8527 46.4795 47.5488 46.4319 47.2207C46.1027 44.9469 45.6055 41.5109 44.2625 39.2478C39.8963 31.8906 33.4973 33.5861 31.6401 34.2812C26.9092 36.0513 23.6496 40.7193 24.3744 44.6871C24.8041 47.0367 24.9842 48.4515 24.7123 49.1988C24.4906 49.808 23.8248 50.267 22.3403 51.2472C22.082 51.4178 21.8055 51.6004 21.5096 51.799C19.1493 53.3674 17.0108 55.2462 15.1516 57.3849C13.0256 59.8877 11.7844 62.3625 11.4631 64.7408C11.4247 65.151 11.4838 65.5644 11.6356 65.9475C11.7799 66.3837 12.0361 66.7744 12.3787 67.0805C12.7213 67.3867 13.1383 67.5976 13.5879 67.6921C14.0375 67.7867 14.5041 67.7616 14.941 67.6193C15.3779 67.477 15.7698 67.2226 16.0776 66.8814C16.5826 66.401 23.9631 59.5041 30.6479 59.6353C30.8149 59.6422 30.9785 59.6852 31.1273 59.7616C31.276 59.838 31.4063 59.9458 31.5092 60.0776C31.6121 60.2094 31.6851 60.362 31.7231 60.5248C31.7611 60.6876 31.7632 60.8568 31.7293 61.0205C30.2254 67.5137 21.8258 73.0576 21.2436 73.4346C20.84 73.6541 20.501 73.9756 20.2606 74.3672C20.0202 74.7587 19.8867 75.2065 19.8736 75.6657C19.8604 76.125 19.968 76.5796 20.1856 76.9843C20.4031 77.3889 20.7231 77.7294 21.1135 77.9717C21.4504 78.2086 21.8386 78.3625 22.2463 78.4209C22.5875 78.4555 22.9302 78.4727 23.2731 78.4725C29.3016 78.4725 35.3824 73.3295 37.1793 71.6777C37.4403 71.4379 37.6813 71.2125 37.9065 71.0023C39.2072 69.7873 39.8094 69.2473 40.4537 69.174C41.243 69.0832 42.577 69.59 44.7647 70.5551C48.6967 72.2916 54.5621 69.6586 57.3143 64.9219ZM45.7082 68.4121C40.3149 66.033 39.5006 66.3058 36.3047 69.291C36.0836 69.4975 35.8467 69.7187 35.5904 69.9551C32.0735 73.1906 26.81 76.4937 22.5477 76.0978C22.4899 76.0697 22.4341 76.0378 22.3805 76.0023C22.3312 75.9797 22.2894 75.9435 22.26 75.898C22.2307 75.8524 22.2149 75.7994 22.2146 75.7452C22.2144 75.691 22.2296 75.6379 22.2585 75.592C22.2875 75.5462 22.3289 75.5096 22.3779 75.4865C22.407 75.4715 22.4352 75.4553 22.4627 75.4379C22.8611 75.1861 32.2416 69.1879 34.0111 61.5512C34.1237 61.0477 34.1235 60.5255 34.0105 60.0221C33.8974 59.5187 33.6744 59.0466 33.3573 58.6396C33.0402 58.2326 32.637 57.9008 32.1766 57.6681C31.7161 57.4353 31.2099 57.3073 30.6942 57.2933C22.8162 57.1359 14.7547 64.8973 14.4154 65.2281C14.3923 65.2506 14.3701 65.2741 14.3488 65.2984C14.3149 65.3408 14.2696 65.3726 14.2182 65.39C14.1668 65.4075 14.1115 65.4098 14.0588 65.3969C14.0061 65.3839 13.9582 65.3561 13.9208 65.3168C13.8834 65.2775 13.858 65.2283 13.8477 65.175C13.8258 65.1147 13.8079 65.0531 13.7942 64.9904C14.4057 60.7547 18.8471 56.4082 22.8151 53.7447C23.1057 53.5494 23.3774 53.3705 23.6309 53.2029C27.2832 50.792 27.7377 50.0639 26.6795 44.2664C26.1584 41.4115 28.8061 37.8441 32.4608 36.4763C37.949 34.4232 41.1326 38.5672 42.2459 40.4441C43.3516 42.3072 43.8084 45.4662 44.1111 47.5566C44.2055 48.2064 44.2869 48.7676 44.3719 49.1762C44.7832 51.1445 45.5731 53.9707 47.6752 55.7799C47.9109 55.9826 48.2175 56.0834 48.5275 56.0601C48.8375 56.0368 49.1256 55.8913 49.3283 55.6557C49.5311 55.42 49.6319 55.1134 49.6086 54.8034C49.5853 54.4933 49.4398 54.2053 49.2041 54.0025C48.4246 53.332 47.8096 52.3762 47.3256 51.0658C47.7699 51.2465 48.1807 51.3957 48.5695 51.5369C49.793 51.9812 50.8498 52.3648 52.4014 53.5133C57.7725 57.4898 56.5149 61.6301 55.2867 63.7441C53.1736 67.3828 48.5184 69.6512 45.7082 68.4121Z" fill="url(#paint6_linear)"/>
<path d="M90.116 51.582C93.9141 49.5658 95.4766 43.3292 93.4598 38.2359C91.4676 33.2037 86.751 31.1609 80.8426 32.7712C78.6512 33.3685 77.4557 34.1097 76.2994 34.8267C75.4431 35.3831 74.5423 35.8678 73.6063 36.2761C73.3739 36.1456 73.1078 35.9921 72.8211 35.8269C70.8315 34.6779 67.8248 32.9415 65.216 32.5955C59.4934 31.8367 55.1137 34.3923 53.502 39.4349C51.9641 44.2462 53.6127 49.6956 57.1772 51.5833C59.2881 52.7007 60.5112 53.4343 60.9295 54.1101C61.2709 54.6615 61.2192 55.4685 61.0703 57.2411C61.0444 57.5495 61.0164 57.88 60.9895 58.2353C60.7604 61.0599 60.9125 63.9026 61.4416 66.6867C62.0912 69.9056 63.2668 72.4122 64.9358 74.1365C65.2341 74.4208 65.5955 74.6304 65.9905 74.7482C66.4223 74.9048 66.8877 74.9453 67.3402 74.8657C67.7926 74.7861 68.2162 74.5892 68.5687 74.2947C68.9213 74.0001 69.1903 73.6182 69.349 73.1871C69.5078 72.756 69.5506 72.2908 69.4733 71.838C69.4082 71.147 68.5471 61.0896 72.8014 55.9109C72.9101 55.7838 73.0453 55.6819 73.1974 55.6123C73.3495 55.5427 73.5149 55.507 73.6821 55.5078C73.8494 55.5086 74.0145 55.5457 74.166 55.6167C74.3174 55.6877 74.4516 55.7908 74.5592 55.9189C78.7281 61.1206 77.883 71.1503 77.8192 71.8388C77.7541 72.2167 77.7729 72.6042 77.8743 72.974C77.9758 73.3438 78.1573 73.6867 78.4061 73.9784C78.6549 74.2702 78.9649 74.5036 79.314 74.6622C79.6631 74.8208 80.0428 74.9006 80.4262 74.896C80.7241 74.896 81.0199 74.8464 81.3016 74.7493C81.6964 74.6313 82.0578 74.4217 82.3563 74.1376C84.025 72.4132 85.2006 69.9066 85.8502 66.6876C86.3793 63.9035 86.5314 61.0609 86.3024 58.2363C86.2752 57.8828 86.2479 57.5538 86.2219 57.247C86.0729 55.4732 86.0215 54.6658 86.3629 54.1146C86.7805 53.4374 88.0041 52.7023 90.116 51.582ZM83.8867 57.4413C83.9119 57.7429 83.9393 58.0663 83.9649 58.413C84.3293 63.1786 83.6647 69.3575 80.7164 72.4591C80.6586 72.4871 80.599 72.5113 80.5379 72.5314C80.4896 72.5561 80.4352 72.5666 80.3812 72.5614C80.3272 72.5563 80.2757 72.5358 80.233 72.5024C80.1902 72.4689 80.1579 72.424 80.1399 72.3727C80.1219 72.3215 80.1189 72.2663 80.1313 72.2134C80.1373 72.1816 80.142 72.1495 80.1455 72.1173C80.328 69.972 80.3262 67.815 80.1403 65.67C79.7301 60.8204 78.4664 57.046 76.3869 54.4515C76.0613 54.0513 75.6511 53.7282 75.1857 53.5053C74.7204 53.2825 74.2115 53.1654 73.6956 53.1625C73.1797 53.1596 72.6695 53.271 72.2017 53.4887C71.7339 53.7064 71.3201 54.0249 70.9901 54.4214C68.8682 57.0038 67.5783 60.7802 67.1557 65.6456C66.9647 67.7988 66.9614 69.9644 67.1457 72.1181C67.149 72.1499 67.1537 72.1818 67.1596 72.2134C67.1722 72.2758 67.1654 72.3406 67.1401 72.399C67.1019 72.4638 67.0418 72.5128 66.9707 72.537C66.8995 72.5613 66.8219 72.5592 66.7522 72.5312C66.6915 72.511 66.6321 72.4869 66.5744 72.4591C63.6252 69.3572 62.9612 63.1786 63.3256 58.413C63.3524 58.0642 63.3797 57.7398 63.4053 57.4365C63.7719 53.0761 63.4815 52.2679 58.2733 49.5107C55.7084 48.1529 54.5455 43.8662 55.7342 40.1478C56.9905 36.2177 60.3346 34.3115 64.9076 34.9181C67.0561 35.2029 69.8196 36.7994 71.6489 37.8556C72.2172 38.1839 72.7082 38.4675 73.0817 38.6533C74.8822 39.5486 77.591 40.6779 80.3129 40.1462C80.6155 40.0842 80.8815 39.9052 81.0528 39.6482C81.2241 39.3911 81.287 39.0768 81.2278 38.7736C81.1686 38.4704 80.9921 38.2028 80.7366 38.0291C80.4811 37.8554 80.1674 37.7896 79.8637 37.846C78.8547 38.0431 77.7235 37.9345 76.3946 37.5035C76.8112 37.2665 77.1828 37.0361 77.5342 36.8181C78.6406 36.1322 79.5961 35.5396 81.4586 35.032C87.9069 33.2742 90.3795 36.8253 91.2797 39.0984C92.8291 43.0109 91.7289 48.0712 89.0164 49.5113C83.8108 52.2745 83.5205 53.0829 83.8867 57.4413Z" fill="url(#paint7_linear)"/>
<defs>
<linearGradient id="paint0_linear" x1="47.6493" y1="21.5269" x2="47.6493" y2="32.5203" gradientUnits="userSpaceOnUse">
<stop stop-color="#8888D3"/>
<stop offset="1" stop-color="#5E60A3"/>
</linearGradient>
<linearGradient id="paint1_linear" x1="41.2564" y1="26.7291" x2="41.2564" y2="33.5427" gradientUnits="userSpaceOnUse">
<stop stop-color="#8888D3"/>
<stop offset="1" stop-color="#5E60A3"/>
</linearGradient>
<linearGradient id="paint2_linear" x1="54.7207" y1="24.0189" x2="54.7207" y2="31.5102" gradientUnits="userSpaceOnUse">
<stop stop-color="#8888D3"/>
<stop offset="1" stop-color="#5E60A3"/>
</linearGradient>
<linearGradient id="paint3_linear" x1="90.8087" y1="56.9372" x2="90.8087" y2="62.7545" gradientUnits="userSpaceOnUse">
<stop stop-color="#8888D3"/>
<stop offset="1" stop-color="#5E60A3"/>
</linearGradient>
<linearGradient id="paint4_linear" x1="9.88271" y1="56.7261" x2="9.88271" y2="62.7594" gradientUnits="userSpaceOnUse">
<stop stop-color="#8888D3"/>
<stop offset="1" stop-color="#5E60A3"/>
</linearGradient>
<linearGradient id="paint5_linear" x1="59.3547" y1="54.8598" x2="59.3547" y2="57.2036" gradientUnits="userSpaceOnUse">
<stop stop-color="#8888D3"/>
<stop offset="1" stop-color="#5E60A3"/>
</linearGradient>
<linearGradient id="paint6_linear" x1="35.0786" y1="33.6071" x2="35.0786" y2="78.4725" gradientUnits="userSpaceOnUse">
<stop stop-color="#8888D3"/>
<stop offset="1" stop-color="#5E60A3"/>
</linearGradient>
<linearGradient id="paint7_linear" x1="73.6354" y1="32.2315" x2="73.6354" y2="74.9054" gradientUnits="userSpaceOnUse">
<stop stop-color="#8888D3"/>
<stop offset="1" stop-color="#5E60A3"/>
</linearGradient>
</defs>
</svg>
