<svg width="90" height="90" fill="none" xmlns="http://www.w3.org/2000/svg"><path d="M58.38 21.241c1.858-1.152 3.462-2.147 6.618-3.007 2.637-.72 5.07-.93 7.248-.662-3.126-1.87-7.231-2.223-12.002-.923-3.155.86-4.76 1.855-6.619 3.008a35.62 35.62 0 01-3.665 2.06c1.864.795 3.526 1.27 5.043 1.444a37.066 37.066 0 003.376-1.92zm3.781 47.706c-.65-7.678-2.63-13.63-5.884-17.69a4.654 4.654 0 00-3.657-1.735c-.375 0-.748.044-1.113.132l.016.018c3.254 4.061 5.234 10.013 5.885 17.69.298 3.422.301 6.862.01 10.284a.876.876 0 01-.011.078 1.41 1.41 0 001.903 1.591 1.83 1.83 0 00.592-.28 15.176 15.176 0 002.467-3.47 63.466 63.466 0 00-.208-6.618zm-23.946 8.699a14.272 14.272 0 01-.017-.171c-3.122-5.617-3.825-13.86-3.32-20.456.042-.57.087-1.098.129-1.591.266-3.173.428-5.088-.646-6.822-1.032-1.668-3.138-2.98-7.18-5.12-2.228-1.18-3.929-3.546-4.79-6.664a17.36 17.36 0 01.209-9.659c.983-3.074 2.79-5.55 5.226-7.157 2.846-1.879 6.443-2.545 10.69-1.982.15.02.302.045.455.072-1.772-.8-3.58-1.44-5.209-1.657-4.247-.562-7.844.104-10.69 1.982-2.436 1.608-4.243 4.083-5.226 7.157a17.359 17.359 0 00-.21 9.66c.862 3.117 2.563 5.484 4.792 6.663 4.041 2.14 6.146 3.452 7.18 5.12 1.072 1.734.911 3.65.645 6.822-.042.493-.087 1.022-.13 1.59-.61 7.979.543 18.369 5.61 23.603.178.127.378.222.59.279a1.447 1.447 0 001.81-.735c.117-.27.15-.568.094-.856a.525.525 0 01-.012-.078z" fill="#D4E1F4"/><path d="M21.686 43.704c3.631 1.922 5.618 3.13 6.401 4.395.723 1.167.591 2.737.352 5.587-.042.498-.087 1.03-.13 1.604-.355 4.63-.1 9.41.718 13.46 1.02 5.054 2.85 8.973 5.44 11.649a3.475 3.475 0 005.907-3.027c-.087-.9-1.588-17.729 5.576-26.45a2.71 2.71 0 014.157.022c7.023 8.762 5.546 25.527 5.46 26.428a3.39 3.39 0 003.383 3.999c.39 0 .778-.065 1.147-.192a3.45 3.45 0 001.378-.78c2.59-2.676 4.42-6.595 5.44-11.65.817-4.05 1.072-8.83.718-13.46-.044-.57-.088-1.1-.13-1.596-.24-2.85-.372-4.421.352-5.59.782-1.263 2.769-2.473 6.401-4.4 2.93-1.556 5.109-4.886 5.977-9.136.835-4.09.377-8.522-1.256-12.157a1.055 1.055 0 10-1.924.865c1.456 3.24 1.862 7.203 1.113 10.87-.742 3.63-2.527 6.435-4.899 7.694-8.183 4.343-8.426 5.362-7.866 12.03.041.49.085 1.016.129 1.58.926 12.112-2.27 20.072-5.566 23.477a1.833 1.833 0 01-.553.258 1.34 1.34 0 01-1.676-.677 1.354 1.354 0 01-.087-.793.87.87 0 00.013-.087 60.046 60.046 0 00-.01-10.285c-.651-7.687-2.636-13.648-5.898-17.718a4.818 4.818 0 00-7.432-.04c-3.327 4.049-5.354 10.01-6.023 17.72a59.415 59.415 0 00-.018 10.324c.003.029.008.058.013.086.051.267.021.543-.087.793a1.339 1.339 0 01-1.676.677 1.948 1.948 0 01-.548-.253c-3.3-3.41-6.496-11.369-5.57-23.481.043-.568.088-1.095.13-1.588.56-6.671.317-7.69-7.869-12.023-2.198-1.164-3.878-3.503-4.73-6.588a17.222 17.222 0 01.208-9.582c1.027-3.214 4.62-10.53 15.775-9.051 3.645.483 8.21 3.12 11.232 4.864.909.525 1.694.978 2.275 1.268 2.807 1.395 7.02 3.157 11.177 2.346a1.055 1.055 0 00-.404-2.07c-2.224.433-4.75.034-7.836-1.251a36.617 36.617 0 003.456-1.96c1.848-1.146 3.445-2.136 6.58-2.99 4.34-1.184 8.069-1.03 11.08.455a1.055 1.055 0 00.934-1.892c-3.488-1.72-7.716-1.921-12.569-.599-3.432.936-5.231 2.052-7.136 3.233a30.445 30.445 0 01-4.663 2.486 1.84 1.84 0 00-.181.09 81.647 81.647 0 01-1.658-.942c-3.165-1.828-7.949-4.59-12.01-5.13-8.834-1.171-15.586 2.754-18.062 10.501-2.373 7.424.115 15.802 5.545 18.677z" fill="url(#paint0_linear)"/><path d="M8.054 59.46a1.055 1.055 0 00.882-.474 5.653 5.653 0 015.788-2.456 1.055 1.055 0 00.775-1.917 5.653 5.653 0 01-2.456-5.79 1.055 1.055 0 00-1.918-.774 5.653 5.653 0 01-5.788 2.455 1.055 1.055 0 00-.775 1.918 5.653 5.653 0 012.455 5.788 1.054 1.054 0 001.036 1.25h.001zm2.898-8.223a7.746 7.746 0 001.358 3.203 7.748 7.748 0 00-3.2 1.358 7.745 7.745 0 00-1.36-3.202 7.746 7.746 0 003.202-1.359zm74.113-33.799a10.123 10.123 0 01-7.962-7.962 1.055 1.055 0 00-2.068 0 10.122 10.122 0 01-7.962 7.961 1.055 1.055 0 000 2.069 10.124 10.124 0 017.962 7.962 1.055 1.055 0 002.068 0 10.123 10.123 0 017.962-7.962 1.055 1.055 0 000-2.069zm-8.996 6.574a12.208 12.208 0 00-5.54-5.54 12.208 12.208 0 005.54-5.54 12.209 12.209 0 005.54 5.54 12.209 12.209 0 00-5.54 5.54zM24.64 67.515a1.055 1.055 0 00-.848-1.034 8.43 8.43 0 01-6.63-6.63 1.054 1.054 0 00-2.068 0 8.43 8.43 0 01-6.63 6.63 1.055 1.055 0 000 2.068 8.43 8.43 0 016.63 6.63 1.054 1.054 0 002.068 0 8.43 8.43 0 016.63-6.63 1.055 1.055 0 00.848-1.034zm-8.512 4.35a10.516 10.516 0 00-4.35-4.35 10.52 10.52 0 004.35-4.35 10.521 10.521 0 004.35 4.35 10.517 10.517 0 00-4.35 4.35z" fill="#8888D3"/><defs><linearGradient id="paint0_linear" x1="47.942" y1="13.928" x2="47.942" y2="81.445" gradientUnits="userSpaceOnUse"><stop stop-color="#8888D3"/><stop offset="1" stop-color="#5E60A3"/></linearGradient></defs></svg>