<svg width="90" height="90" fill="none" xmlns="http://www.w3.org/2000/svg"><path d="M55.392 20.707c-2.815.767-4.246 1.654-5.903 2.682a31.703 31.703 0 01-3.268 1.837c1.662.709 3.144 1.133 4.497 1.287a33.061 33.061 0 003.01-1.711c1.657-1.027 3.089-1.915 5.903-2.682.255-.07.508-.134.759-.193l.135-1.908a18.004 18.004 0 00-5.133.688zM35.747 75.1l-.015-.153c-2.784-5.009-3.411-12.359-2.962-18.241.04-.507.079-.979.116-1.419.238-2.83.381-4.537-.576-6.082-.92-1.488-2.798-2.658-6.402-4.566-1.986-1.052-3.504-3.162-4.271-5.942a15.474 15.474 0 01.186-8.614c.876-2.74 2.488-4.948 4.66-6.382 2.538-1.675 5.745-2.27 9.533-1.767.134.017.27.04.404.063-1.58-.712-3.192-1.284-4.644-1.476-3.788-.503-6.995.092-9.532 1.767-2.173 1.434-3.785 3.641-4.66 6.382a15.477 15.477 0 00-.187 8.614c.768 2.78 2.285 4.89 4.271 5.942 3.604 1.908 5.481 3.078 6.402 4.566.957 1.546.814 3.254.576 6.082-.037.44-.077.911-.116 1.419-.544 7.114.485 16.378 5.002 21.046.16.114.338.198.527.249a1.257 1.257 0 001.697-1.42l-.01-.068z" fill="#D4E1F4"/><path d="M5.157 60.948a7.621 7.621 0 018.84.492 9.758 9.758 0 0013.618-1.435l1.942-2.377a1.054 1.054 0 10-1.633-1.335l-1.942 2.377a7.643 7.643 0 01-10.666 1.125 9.73 9.73 0 00-11.287-.63l-1.78 1.128a1.054 1.054 0 001.127 1.782l1.781-1.127z" fill="url(#paint0_linear)"/><path d="M87.401 57.538l-5.462-1.13a9.686 9.686 0 00-7.05 1.232 7.624 7.624 0 01-7.674.166l-3.181-1.767a1.052 1.052 0 00-1.434.41 1.054 1.054 0 00.41 1.434l3.182 1.767a9.734 9.734 0 009.8-.211 7.585 7.585 0 015.52-.965l5.461 1.13a1.054 1.054 0 00.427-2.066h.001z" fill="url(#paint1_linear)"/><path d="M21.537 46.12c3.382 1.79 5.232 2.914 5.956 4.083.636 1.028.557 2.33.318 5.179-.04.465-.081.963-.122 1.499-.292 3.816-.739 16.789 5.773 23.517a3.316 3.316 0 005.64-2.886c-.084-.864-1.476-16.543 5.195-24.663a2.463 2.463 0 013.777.02c6.54 8.158 5.17 23.778 5.087 24.644a3.238 3.238 0 003.23 3.814c.373 0 .743-.062 1.095-.183a3.28 3.28 0 001.314-.746c6.511-6.728 6.066-19.7 5.774-23.517-.041-.534-.083-1.03-.121-1.492-.24-2.85-.319-4.153.318-5.181.722-1.167 2.572-2.293 5.955-4.088 2.215-1.176 3.938-3.348 4.983-6.282.96-2.695 1.255-5.846.83-8.875-.927-6.601-4.879-11.264-10.572-12.473a1.055 1.055 0 10-.438 2.064c4.788 1.016 8.123 5.017 8.92 10.702.795 5.662-1.187 11.13-4.712 13-3.876 2.057-5.772 3.245-6.76 4.841-1.03 1.665-.879 3.473-.627 6.468.039.458.08.95.12 1.477.567 7.406-.498 17.046-5.177 21.88a1.731 1.731 0 01-.493.228 1.181 1.181 0 01-1.48-.595 1.194 1.194 0 01-.077-.7c.005-.03.01-.058.013-.087.073-.698 1.702-17.188-5.536-26.219a4.572 4.572 0 00-7.053-.038c-7.381 8.984-5.734 25.556-5.66 26.257.003.03.007.058.013.087a1.2 1.2 0 01-.077.7 1.182 1.182 0 01-1.48.594 1.94 1.94 0 01-.485-.218c-4.688-4.844-5.753-14.483-5.186-21.89.04-.53.082-1.022.12-1.483.253-2.994.405-4.801-.626-6.466-.99-1.6-2.886-2.784-6.762-4.836-4.17-2.209-6.09-9.09-4.193-15.03.955-2.987 4.295-9.787 14.667-8.41 3.393.45 7.652 2.909 10.47 4.537.85.49 1.585.914 2.13 1.185 5.495 2.733 8.618 2.564 10.489 2.2a1.056 1.056 0 10-.404-2.071c-2.032.396-4.336.044-7.144-1.106a34.984 34.984 0 003.1-1.767c1.723-1.069 3.21-1.991 6.131-2.787a20.388 20.388 0 013.938-.692 1.053 1.053 0 00.621-1.847 1.055 1.055 0 00-.765-.257c-1.471.11-2.928.365-4.349.76-3.217.878-4.903 1.923-6.687 3.03a28.4 28.4 0 01-4.348 2.318c-.049.02-.097.043-.143.068a75.9 75.9 0 01-1.514-.862c-2.963-1.71-7.44-4.296-11.248-4.801-8.29-1.1-14.628 2.586-16.953 9.86-2.227 6.968.112 14.834 5.215 17.536z" fill="url(#paint2_linear)"/><path d="M35.54 49.827a12.977 12.977 0 00-1.799 3.224c-.036.07-.063.145-.082.223a12.954 12.954 0 00-.748 5.434l1.49 21.406a1.055 1.055 0 002.104-.146L35.367 63.61c.099-1.438.336-2.863.708-4.255.521-1.895 1.522-4.27 3.33-4.823a1.054 1.054 0 10-.618-2.017c-1.674.513-2.844 1.863-3.66 3.45.11-.677.284-1.342.52-1.986a27.86 27.86 0 001.7-3.041c.138-.175.28-.347.43-.513l.71-.786a10.86 10.86 0 0118.907 7.847l-.023.483c-.76-1.127-1.844-2-3.389-2.263a1.053 1.053 0 00-1.04 1.651 1.054 1.054 0 00.687.429c3.603.613 3.392 7.704 3.388 7.787l-.67 14.418a1.054 1.054 0 002.106.098l.47-10.108c.103-.136.17-.296.197-.464l8.76-56.915a3.41 3.41 0 10-6.774-.76l-2.812 39.586a12.97 12.97 0 00-19.37-5.012c.443-2.275.236-4.555-1.54-6.059a1.056 1.056 0 10-1.363 1.61c1.602 1.357.996 4.148.205 6.25a21.48 21.48 0 01-.686 1.61zM62.123 27.29l1.336.167-2.503 16.262 1.167-16.429zm2.579-7.906l-2-.249.063-.876 2.07.258-.133.867zm-.321 2.086l-.141.907-1.753-.218.065-.917 1.829.228zm-.461 2.993l-.14.908-1.507-.188.065-.917 1.582.197zm.51-13.68c.027-.002.053-.002.08-.002a1.3 1.3 0 011.285 1.5l-.639 4.15-2.241-.278.296-4.163a1.304 1.304 0 011.22-1.207z" fill="url(#paint3_linear)"/><defs><linearGradient id="paint0_linear" x1="15.785" y1="55.896" x2="15.785" y2="63.566" gradientUnits="userSpaceOnUse"><stop stop-color="#8888D3"/><stop offset="1" stop-color="#5E60A3"/></linearGradient><linearGradient id="paint1_linear" x1="75.35" y1="55.907" x2="75.35" y2="60.87" gradientUnits="userSpaceOnUse"><stop stop-color="#8888D3"/><stop offset="1" stop-color="#5E60A3"/></linearGradient><linearGradient id="paint2_linear" x1="46.104" y1="18.208" x2="46.104" y2="81.396" gradientUnits="userSpaceOnUse"><stop stop-color="#8888D3"/><stop offset="1" stop-color="#5E60A3"/></linearGradient><linearGradient id="paint3_linear" x1="50.395" y1="8.69" x2="50.395" y2="81.095" gradientUnits="userSpaceOnUse"><stop stop-color="#8888D3"/><stop offset="1" stop-color="#5E60A3"/></linearGradient></defs></svg>