<svg width="100" height="100" fill="none" xmlns="http://www.w3.org/2000/svg"><path d="M80.137 37.31c1.144-.709 2.132-1.321 4.075-1.851a11.627 11.627 0 014.463-.408c-1.925-1.15-4.453-1.369-7.39-.568-1.943.53-2.931 1.143-4.075 1.852a21.91 21.91 0 01-2.257 1.27c.987.444 2.033.743 3.105.888a22.87 22.87 0 002.079-1.182zm2.328 29.374c-.4-4.727-1.62-8.392-3.623-10.892a2.866 2.866 0 00-2.252-1.069c-.23 0-.46.028-.685.081l.01.012c2.004 2.5 3.222 6.165 3.623 10.892.183 2.106.186 4.225.007 6.331a.645.645 0 01-.008.049.867.867 0 001.172.98 1.12 1.12 0 00.365-.173 9.345 9.345 0 001.519-2.137c.028-1.36-.014-2.72-.128-4.074zM67.72 72.04a9.601 9.601 0 01-.01-.106c-1.922-3.458-2.355-8.533-2.044-12.595.026-.35.054-.675.08-.98.164-1.953.263-3.132-.398-4.199-.636-1.027-1.932-1.835-4.42-3.152-1.372-.727-2.42-2.184-2.95-4.103a10.688 10.688 0 01.129-5.947c.605-1.893 1.719-3.417 3.218-4.407 1.752-1.157 3.966-1.567 6.582-1.22.092.012.186.027.28.043-1.091-.492-2.204-.886-3.207-1.019-2.616-.347-4.83.064-6.582 1.22-1.5.99-2.613 2.514-3.218 4.407a10.687 10.687 0 00-.129 5.947c.53 1.92 1.578 3.377 2.95 4.103 2.487 1.316 3.784 2.125 4.42 3.152.662 1.067.563 2.246.398 4.199-.025.304-.053.63-.08.98-.375 4.912.335 11.308 3.454 14.53.11.08.233.138.364.173a.867.867 0 001.171-.98.316.316 0 01-.007-.046zM49.93 54.71c1.254.49 2.337.913 3.927 2.15a11.628 11.628 0 013.004 3.324c-.234-2.23-1.577-4.383-3.98-6.252-1.59-1.236-2.673-1.66-3.927-2.148-.81-.3-1.601-.65-2.37-1.044a11.259 11.259 0 001.153 3.017c.714.356 1.446.675 2.193.954zM27.832 74.2c3.541-3.157 5.74-6.331 6.538-9.434a2.864 2.864 0 00-.496-2.442 2.96 2.96 0 00-.477-.5c0 .006-.002.01-.003.016-.797 3.103-2.997 6.277-6.538 9.434a36.949 36.949 0 01-5.062 3.804.517.517 0 01-.042.023.867.867 0 00-.08 1.526c.106.084.227.147.356.188.872.1 1.754.078 2.62-.067a39.067 39.067 0 003.184-2.547zm-13.134-8.58l.079-.071c1.613-3.613 5.412-7.005 8.847-9.194.297-.19.573-.362.832-.524 1.66-1.041 2.663-1.67 3.121-2.839.44-1.125.308-2.646-.131-5.428-.243-1.533.295-3.245 1.512-4.822a10.688 10.688 0 014.835-3.465c1.877-.651 3.764-.676 5.456-.07 1.977.707 3.634 2.232 4.926 4.533.046.08.09.165.133.25-.262-1.168-.614-2.295-1.11-3.177-1.291-2.3-2.948-3.825-4.925-4.533-1.692-.605-3.58-.581-5.456.07a10.689 10.689 0 00-4.835 3.466c-1.217 1.576-1.754 3.289-1.512 4.822.44 2.781.571 4.303.131 5.428-.457 1.17-1.46 1.797-3.121 2.839-.259.161-.535.335-.831.524-4.155 2.647-8.846 7.054-9.552 11.484.003.135.03.269.08.394a.89.89 0 001.031.62.9.9 0 00.457-.27c.01-.014.023-.026.033-.037z" fill="#D4E1F4"/><path d="M46.684 21.545a1.172 1.172 0 00-.95 1.357l1.524 8.656a1.172 1.172 0 002.308-.407l-1.524-8.655a1.171 1.171 0 00-1.358-.951z" fill="url(#paint0_linear)"/><path d="M39.254 26.905a1.172 1.172 0 00-.379 1.613l2.77 4.47a1.172 1.172 0 101.993-1.235l-2.77-4.47a1.172 1.172 0 00-1.614-.378z" fill="url(#paint1_linear)"/><path d="M53.943 31.485a1.169 1.169 0 001.387-.907l1.076-5.147a1.17 1.17 0 10-2.294-.48l-1.077 5.147a1.172 1.172 0 00.908 1.387z" fill="url(#paint2_linear)"/><path d="M96.996 60.51c-3.124-1.334-7.038-2.526-11.632-3.541a1.173 1.173 0 10-.506 2.288c4.453.984 8.227 2.131 11.217 3.408a1.172 1.172 0 00.92-2.155z" fill="url(#paint3_linear)"/><path d="M16.074 56.748c-5.182 1.052-9.576 2.316-13.058 3.757a1.173 1.173 0 00.897 2.165c3.343-1.384 7.591-2.603 12.627-3.625a1.172 1.172 0 00-.466-2.297z" fill="url(#paint4_linear)"/><path d="M56.372 57.204h5.965a1.172 1.172 0 100-2.344h-5.965a1.172 1.172 0 000 2.344z" fill="url(#paint5_linear)"/><path d="M57.314 64.922c2.719-4.68 1.404-9.649-3.517-13.292-1.826-1.351-3.148-1.831-4.427-2.296a18.553 18.553 0 01-2.805-1.218c-.042-.263-.085-.567-.133-.895-.33-2.274-.827-5.71-2.17-7.973-4.366-7.357-10.765-5.662-12.622-4.967-4.73 1.77-7.99 6.438-7.266 10.406.43 2.35.61 3.765.338 4.512-.221.609-.887 1.068-2.372 2.048-.258.17-.535.353-.83.552a31.592 31.592 0 00-6.358 5.586c-2.126 2.503-3.368 4.977-3.689 7.356-.038.41.02.823.173 1.207a2.625 2.625 0 004.442.933c.505-.48 7.885-7.377 14.57-7.246a1.154 1.154 0 011.081 1.386c-1.504 6.493-9.903 12.037-10.485 12.414a2.625 2.625 0 00-.13 4.537c.336.237.725.39 1.132.449.341.034.684.052 1.027.051 6.029 0 12.11-5.142 13.906-6.794.261-.24.502-.465.727-.676 1.301-1.215 1.903-1.755 2.548-1.828.789-.09 2.123.416 4.31 1.381 3.933 1.737 9.798-.896 12.55-5.633zm-11.606 3.49c-5.393-2.379-6.207-2.106-9.403.879a97.6 97.6 0 01-.715.664c-3.517 3.236-8.78 6.539-13.042 6.143a1.454 1.454 0 01-.167-.096.285.285 0 01-.003-.515c.029-.015.057-.032.085-.05.398-.25 9.779-6.25 11.548-13.886a3.497 3.497 0 00-3.317-4.258c-7.878-.157-15.94 7.604-16.279 7.935a1.229 1.229 0 00-.066.07.284.284 0 01-.501-.123 1.443 1.443 0 01-.054-.185c.612-4.235 5.053-8.582 9.021-11.245.29-.196.562-.374.816-.542 3.652-2.411 4.107-3.14 3.049-8.937-.522-2.855 2.126-6.422 5.78-7.79 5.489-2.053 8.673 2.091 9.786 3.968 1.106 1.863 1.562 5.022 1.865 7.113.095.65.176 1.21.26 1.62.412 1.968 1.202 4.794 3.304 6.603a1.172 1.172 0 001.53-1.778c-.78-.67-1.395-1.626-1.88-2.936.445.18.856.33 1.244.47 1.224.445 2.28.829 3.832 1.977 5.371 3.977 4.114 8.117 2.886 10.231-2.113 3.639-6.769 5.907-9.579 4.668z" fill="url(#paint6_linear)"/><path d="M90.116 51.582c3.798-2.016 5.36-8.253 3.344-13.346-1.992-5.032-6.709-7.075-12.617-5.465-2.192.597-3.387 1.339-4.544 2.056a18.57 18.57 0 01-2.693 1.45c-.232-.131-.498-.285-.785-.45-1.99-1.15-4.996-2.886-7.605-3.231-5.723-.76-10.102 1.796-11.714 6.839-1.538 4.811.11 10.26 3.675 12.148 2.111 1.118 3.334 1.851 3.752 2.527.342.551.29 1.358.141 3.131-.026.309-.054.639-.08.994a31.589 31.589 0 00.452 8.452c.65 3.219 1.825 5.725 3.494 7.45.298.284.66.493 1.054.611a2.625 2.625 0 003.483-2.91c-.065-.691-.926-10.748 3.328-15.927a1.152 1.152 0 011.758.008c4.17 5.202 3.324 15.231 3.26 15.92a2.614 2.614 0 002.607 3.057c.298 0 .594-.05.876-.147a2.617 2.617 0 001.054-.611c1.669-1.725 2.845-4.231 3.494-7.45.53-2.785.681-5.627.452-8.452a120.86 120.86 0 00-.08-.989c-.15-1.774-.2-2.581.14-3.132.419-.678 1.642-1.413 3.754-2.533zm-6.23 5.86c.026.3.053.624.079.971.364 4.766-.3 10.945-3.249 14.046a1.446 1.446 0 01-.178.072.284.284 0 01-.407-.318.964.964 0 00.014-.096 37.68 37.68 0 00-.005-6.447c-.41-4.85-1.674-8.624-3.753-11.218a3.494 3.494 0 00-5.397-.03c-2.122 2.582-3.412 6.358-3.834 11.224a37.28 37.28 0 00-.01 6.472.988.988 0 00.014.095.312.312 0 01-.02.186.314.314 0 01-.388.132c-.06-.02-.12-.044-.178-.072-2.949-3.102-3.613-9.28-3.248-14.046.026-.349.054-.673.08-.976.366-4.36.075-5.17-5.133-7.926-2.565-1.358-3.728-5.645-2.539-9.363 1.256-3.93 4.6-5.837 9.174-5.23 2.148.285 4.912 1.881 6.74 2.938.57.328 1.06.611 1.434.797 1.8.896 4.509 2.025 7.23 1.493a1.172 1.172 0 00-.448-2.3c-1.01.197-2.14.089-3.47-.342a33.2 33.2 0 001.14-.686c1.107-.686 2.062-1.278 3.925-1.786 6.448-1.758 8.92 1.793 9.82 4.066 1.55 3.913.45 8.973-2.263 10.413-5.205 2.764-5.496 3.572-5.13 7.93z" fill="url(#paint7_linear)"/><defs><linearGradient id="paint0_linear" x1="47.649" y1="21.527" x2="47.649" y2="32.52" gradientUnits="userSpaceOnUse"><stop stop-color="#8888D3"/><stop offset="1" stop-color="#5E60A3"/></linearGradient><linearGradient id="paint1_linear" x1="41.256" y1="26.729" x2="41.256" y2="33.543" gradientUnits="userSpaceOnUse"><stop stop-color="#8888D3"/><stop offset="1" stop-color="#5E60A3"/></linearGradient><linearGradient id="paint2_linear" x1="54.721" y1="24.019" x2="54.721" y2="31.51" gradientUnits="userSpaceOnUse"><stop stop-color="#8888D3"/><stop offset="1" stop-color="#5E60A3"/></linearGradient><linearGradient id="paint3_linear" x1="90.809" y1="56.937" x2="90.809" y2="62.755" gradientUnits="userSpaceOnUse"><stop stop-color="#8888D3"/><stop offset="1" stop-color="#5E60A3"/></linearGradient><linearGradient id="paint4_linear" x1="9.883" y1="56.726" x2="9.883" y2="62.759" gradientUnits="userSpaceOnUse"><stop stop-color="#8888D3"/><stop offset="1" stop-color="#5E60A3"/></linearGradient><linearGradient id="paint5_linear" x1="59.355" y1="54.86" x2="59.355" y2="57.204" gradientUnits="userSpaceOnUse"><stop stop-color="#8888D3"/><stop offset="1" stop-color="#5E60A3"/></linearGradient><linearGradient id="paint6_linear" x1="35.079" y1="33.607" x2="35.079" y2="78.472" gradientUnits="userSpaceOnUse"><stop stop-color="#8888D3"/><stop offset="1" stop-color="#5E60A3"/></linearGradient><linearGradient id="paint7_linear" x1="73.635" y1="32.231" x2="73.635" y2="74.905" gradientUnits="userSpaceOnUse"><stop stop-color="#8888D3"/><stop offset="1" stop-color="#5E60A3"/></linearGradient></defs></svg>