<svg width="20" height="20" fill="none" xmlns="http://www.w3.org/2000/svg"><path d="M14.223 10.497a3.905 3.905 0 013.027 3.81 3.92 3.92 0 01-3.916 3.915 3.91 3.91 0 01-3.598-2.37 3.737 3.737 0 01-.317-1.545 3.92 3.92 0 013.915-3.915c.297 0 .593.042.89.105z" fill="#D4E1F4"/><path d="M8.317 10.878a3.55 3.55 0 01-3.555-3.555 3.55 3.55 0 013.555-3.556 3.55 3.55 0 013.556 3.556 3.55 3.55 0 01-3.556 3.555zm0-5.841a2.276 2.276 0 00-2.285 2.286 2.276 2.276 0 002.285 2.285 2.276 2.276 0 002.286-2.285 2.276 2.276 0 00-2.286-2.286z" fill="#5E60A3"/><path d="M18.837 18.9l-1.863-1.863c.572-.762.91-1.714.91-2.73 0-1.863-1.1-3.492-2.772-4.19.02-.064.063-.128.084-.191.318-.804.466-1.65.466-2.56C15.662 3.301 12.36 0 8.318 0 5.863 0 3.683 1.143 2.286 3.153a7.362 7.362 0 00-.846 6.773 6.08 6.08 0 001.058 1.757l5.333 6.243a.633.633 0 00.487.233.69.69 0 00.487-.212l.825-.973a4.524 4.524 0 003.704 1.904 4.39 4.39 0 002.73-.93l1.884 1.861a.609.609 0 00.889 0c.253-.275.253-.677 0-.91zm-10.52-2.37l-4.846-5.694a5.043 5.043 0 01-.846-1.376c-.699-1.862-.423-3.957.698-5.608a5.982 5.982 0 014.974-2.603c3.344 0 6.074 2.73 6.074 6.095 0 .74-.127 1.44-.381 2.116l-.127.318c-.19-.021-.36-.043-.53-.043a4.543 4.543 0 00-4.55 4.55c0 .488.085.974.233 1.419l-.698.825zm2.011-.932s-.02 0 0 0a3.202 3.202 0 01-.275-1.291 3.297 3.297 0 013.28-3.28c.213 0 .466.02.742.084a3.244 3.244 0 012.54 3.196 3.297 3.297 0 01-3.281 3.28 3.258 3.258 0 01-3.005-1.99z" fill="#5E60A3"/></svg>