<svg width="20" height="20" fill="none" xmlns="http://www.w3.org/2000/svg"><path d="M12.973 4.72c.413-.256.77-.477 1.471-.668.586-.16 1.127-.207 1.611-.147-.695-.416-1.607-.494-2.667-.205-.701.19-1.058.412-1.471.668a7.906 7.906 0 01-.815.458 4.07 4.07 0 001.121.32c.257-.128.508-.27.75-.426zm.841 10.601c-.145-1.706-.585-3.028-1.308-3.93a1.036 1.036 0 00-1.06-.357l.004.004c.723.902 1.163 2.225 1.308 3.931a13.333 13.333 0 010 2.303.314.314 0 00.422.353.403.403 0 00.132-.062c.218-.23.402-.49.548-.771.01-.49-.005-.982-.046-1.47zm-5.322 1.934l-.003-.038c-.694-1.249-.85-3.08-.738-4.546l.028-.354c.06-.705.096-1.13-.143-1.516-.23-.37-.697-.662-1.595-1.138-.496-.262-.874-.788-1.065-1.48a3.857 3.857 0 01.046-2.147c.219-.683.62-1.233 1.162-1.59.632-.418 1.431-.566 2.375-.44.034.004.068.01.101.015-.393-.177-.795-.32-1.157-.368-.944-.125-1.743.023-2.376.44-.541.358-.943.908-1.161 1.591A3.857 3.857 0 003.92 7.83c.19.693.569 1.22 1.064 1.481.898.476 1.366.767 1.596 1.138.238.385.202.811.143 1.516-.01.11-.02.227-.029.354-.135 1.772.121 4.081 1.247 5.245a.41.41 0 00.13.061.322.322 0 00.403-.163.325.325 0 00.018-.207z" fill="#D4E1F4"/><path d="M4.82 9.712c.806.427 1.248.695 1.422.976.16.26.131.609.078 1.242l-.03.356c-.078 1.03-.021 2.092.16 2.992.227 1.123.634 1.994 1.21 2.588a.772.772 0 001.312-.672c-.02-.2-.353-3.94 1.24-5.878a.603.603 0 01.923.005c1.56 1.947 1.232 5.672 1.213 5.873a.755.755 0 00.752.888.78.78 0 00.255-.042.766.766 0 00.306-.174c.576-.594.982-1.465 1.209-2.588.182-.9.238-1.963.16-2.992l-.03-.354c-.052-.634-.082-.983.079-1.242.174-.281.615-.55 1.422-.979.652-.345 1.136-1.085 1.329-2.03.185-.909.084-1.893-.28-2.701a.235.235 0 10-.427.192c.324.72.414 1.6.247 2.416-.164.806-.561 1.43-1.088 1.71-1.819.965-1.873 1.191-1.748 2.673l.028.351c.206 2.692-.504 4.46-1.236 5.217a.408.408 0 01-.123.057.298.298 0 01-.373-.15.302.302 0 01-.02-.176 13.339 13.339 0 000-2.305c-.143-1.708-.584-3.033-1.31-3.938a1.071 1.071 0 00-1.65-.009c-.74.9-1.19 2.225-1.34 3.938a13.204 13.204 0 000 2.314.3.3 0 01-.02.176.297.297 0 01-.372.15.434.434 0 01-.122-.056c-.733-.758-1.443-2.526-1.238-5.218l.029-.353c.125-1.482.07-1.709-1.748-2.672-.489-.258-.862-.778-1.052-1.464-.186-.7-.17-1.438.047-2.129.228-.714 1.026-2.34 3.505-2.011.81.107 1.825.693 2.496 1.08.202.117.377.218.506.282.623.31 1.56.702 2.484.522a.234.234 0 10-.09-.46c-.494.096-1.056.007-1.742-.278.264-.131.52-.277.768-.436.411-.254.766-.474 1.463-.664.964-.263 1.793-.23 2.462.1a.234.234 0 00.207-.42c-.775-.382-1.714-.427-2.793-.133-.762.208-1.162.456-1.586.719a6.763 6.763 0 01-1.036.552.41.41 0 00-.04.02 18.402 18.402 0 01-.368-.21c-.704-.405-1.767-1.02-2.669-1.139-1.963-.26-3.464.612-4.014 2.333-.527 1.65.025 3.512 1.232 4.15z" fill="url(#paint0_linear)"/><path d="M1.79 13.213a.235.235 0 00.196-.105 1.257 1.257 0 011.286-.546.234.234 0 00.172-.426A1.256 1.256 0 012.9 10.85a.234.234 0 00-.427-.172 1.256 1.256 0 01-1.286.545.234.234 0 00-.172.426 1.256 1.256 0 01.546 1.287.234.234 0 00.23.277zm.644-1.827c.045.257.148.5.302.712-.257.045-.5.148-.712.301a1.721 1.721 0 00-.301-.711c.256-.045.5-.149.71-.302zm16.469-7.511a2.25 2.25 0 01-1.769-1.77.234.234 0 00-.46 0 2.25 2.25 0 01-1.769 1.77.234.234 0 000 .46 2.25 2.25 0 011.77 1.769.235.235 0 00.459 0 2.25 2.25 0 011.77-1.77.234.234 0 000-.459zm-1.999 1.461a2.713 2.713 0 00-1.23-1.231 2.713 2.713 0 001.23-1.231c.264.534.697.967 1.231 1.231a2.713 2.713 0 00-1.23 1.231zM5.476 15.003a.234.234 0 00-.189-.23A1.873 1.873 0 013.814 13.3a.234.234 0 00-.46 0 1.874 1.874 0 01-1.473 1.473.234.234 0 000 .46 1.873 1.873 0 011.473 1.473.234.234 0 00.46 0 1.873 1.873 0 011.473-1.473.234.234 0 00.189-.23zm-1.892.967a2.337 2.337 0 00-.967-.967c.412-.218.748-.555.967-.966.219.411.555.748.967.966a2.337 2.337 0 00-.967.967z" fill="#8888D3"/><defs><linearGradient id="paint0_linear" x1="10.654" y1="3.095" x2="10.654" y2="18.099" gradientUnits="userSpaceOnUse"><stop stop-color="#8888D3"/><stop offset="1" stop-color="#5E60A3"/></linearGradient></defs></svg>