<svg width="30" height="30" fill="none" xmlns="http://www.w3.org/2000/svg"><path d="M15.004 0h-.008C6.726 0 0 6.728 0 15a14.89 14.89 0 002.856 8.792l-1.87 5.572 5.766-1.843A14.87 14.87 0 0015.004 30C23.274 30 30 23.27 30 15S23.274 0 15.004 0z" fill="#CE9FA9"/><path d="M22.714 20.123c-.326.865-1.62 1.583-2.651 1.792-.706.142-1.628.254-4.732-.955-3.97-1.546-6.527-5.338-6.727-5.584C8.414 15.13 7 13.368 7 11.546s.985-2.71 1.381-3.09C8.707 8.143 9.246 8 9.763 8c.167 0 .317.008.452.014.397.016.597.038.858.627.326.738 1.12 2.56 1.214 2.748.097.187.193.441.058.687-.127.254-.238.367-.437.583-.2.215-.389.38-.588.612-.183.202-.389.418-.159.79.23.366 1.024 1.583 2.192 2.56 1.508 1.263 2.73 1.666 3.168 1.837.326.127.715.097.953-.14.302-.307.675-.815 1.055-1.315.27-.359.612-.403.97-.276.364.119 2.295 1.015 2.692 1.201.396.188.658.276.754.434.095.157.095.895-.231 1.761z" fill="#FAFAFA"/></svg>