<svg width="60" height="60" fill="none" xmlns="http://www.w3.org/2000/svg"><g clip-path="url(#clip0)" fill="#8888D3"><path d="M57.53 25.067l-.772-.577a2.587 2.587 0 01-.83-3.097l.38-.886a6.11 6.11 0 00-.328-5.506 6.108 6.108 0 00-4.605-3.038l-.957-.114a2.586 2.586 0 01-2.267-2.267l-.114-.957A6.11 6.11 0 0045 4.02a6.107 6.107 0 00-5.507-.328l-.886.38a2.586 2.586 0 01-3.097-.83l-.577-.772A6.108 6.108 0 0030 0c-1.96 0-3.758.9-4.933 2.47l-.578.772a2.585 2.585 0 01-3.097.83l-.885-.38A6.108 6.108 0 0015 4.02a6.107 6.107 0 00-3.037 4.605l-.115.957a2.586 2.586 0 01-2.267 2.267l-.957.114a6.107 6.107 0 00-4.605 3.038 6.108 6.108 0 00-.328 5.507l.38.885a2.586 2.586 0 01-.83 3.097l-.771.577A6.11 6.11 0 000 30c0 1.96.9 3.759 2.47 4.933l.771.578a2.587 2.587 0 01.83 3.096l-.38.886A6.11 6.11 0 004.02 45a6.108 6.108 0 004.606 3.037l.956.115a2.586 2.586 0 012.268 2.267l.114.957A6.11 6.11 0 0015 55.98a6.11 6.11 0 005.507.328l.886-.38a2.586 2.586 0 013.097.83l.577.771A6.109 6.109 0 0030 60c1.96 0 3.758-.9 4.933-2.47l.577-.771a2.586 2.586 0 013.098-.83l.885.38A6.11 6.11 0 0045 55.98a6.111 6.111 0 003.037-4.605l.114-.957a2.586 2.586 0 012.268-2.267l.956-.114A6.11 6.11 0 0055.981 45a6.11 6.11 0 00.327-5.507l-.379-.885a2.586 2.586 0 01.83-3.097l.771-.578A6.108 6.108 0 0060 30c0-1.96-.9-3.758-2.47-4.933zm-1.404 7.99l-.772.577a4.922 4.922 0 00-1.58 5.897l.38.885a3.786 3.786 0 01-.203 3.412 3.785 3.785 0 01-2.854 1.882l-.957.114a4.923 4.923 0 00-4.316 4.317l-.114.957a3.786 3.786 0 01-1.882 2.853 3.786 3.786 0 01-3.412.203l-.886-.38a4.924 4.924 0 00-5.897 1.58l-.577.772A3.786 3.786 0 0130 57.656a3.787 3.787 0 01-3.057-1.53l-.577-.771a4.922 4.922 0 00-5.896-1.58l-.886.38a3.787 3.787 0 01-3.413-.204 3.786 3.786 0 01-1.882-2.853l-.114-.957a4.923 4.923 0 00-4.316-4.316l-.957-.115a3.786 3.786 0 01-2.854-1.882 3.786 3.786 0 01-.202-3.412l.38-.885c.9-2.102.25-4.527-1.58-5.897l-.772-.577A3.786 3.786 0 012.344 30c0-1.214.557-2.329 1.53-3.056l.771-.578a4.923 4.923 0 001.58-5.896l-.379-.886a3.786 3.786 0 01.203-3.412 3.786 3.786 0 012.854-1.882l.956-.114a4.922 4.922 0 004.316-4.316l.115-.957a3.786 3.786 0 011.882-2.854 3.785 3.785 0 013.412-.203l.886.38c2.101.9 4.526.25 5.896-1.58l.577-.772A3.786 3.786 0 0130 2.344c1.214 0 2.328.558 3.056 1.53l.578.772a4.923 4.923 0 005.896 1.58l.886-.38a3.786 3.786 0 013.412.203 3.784 3.784 0 011.882 2.854l.114.957a4.923 4.923 0 004.316 4.316l.957.114a3.786 3.786 0 012.854 1.882 3.786 3.786 0 01.203 3.412l-.38.886a4.923 4.923 0 001.58 5.896l.772.578A3.785 3.785 0 0157.656 30a3.785 3.785 0 01-1.53 3.057z"/><path d="M30 6.811c-3.535 0-6.93.776-10.09 2.305a1.172 1.172 0 101.021 2.11A20.647 20.647 0 0130 9.155c11.494 0 20.845 9.351 20.845 20.846 0 11.493-9.351 20.845-20.845 20.845-11.495 0-20.846-9.352-20.846-20.845 0-4.709 1.531-9.15 4.429-12.847a1.172 1.172 0 00-1.845-1.446C8.515 19.82 6.81 24.763 6.81 30c0 12.787 10.403 23.19 23.189 23.19S53.188 42.786 53.188 30C53.188 17.215 42.786 6.811 30 6.811z"/><path d="M12.866 24.034l-.893 1.138a1.172 1.172 0 101.844 1.446l.49-.624v7.75h-.784a1.172 1.172 0 100 2.344h3.872a1.172 1.172 0 000-2.344h-.744v-8.987c0-.647-.525-1.172-1.172-1.172h-1.691c-.36 0-.7.165-.922.449zm9.417 12.054h.609a3.513 3.513 0 003.51-3.51v-5.68a3.514 3.514 0 00-3.51-3.51h-.61a3.514 3.514 0 00-3.509 3.51v5.68a3.513 3.513 0 003.51 3.51zm-1.166-9.19c0-.643.523-1.167 1.166-1.167h.609c.642 0 1.166.524 1.166 1.167v5.68c0 .643-.524 1.166-1.166 1.166h-.61a1.168 1.168 0 01-1.165-1.166v-5.68zm10.61 9.19a3.513 3.513 0 003.51-3.51v-5.68a3.514 3.514 0 00-3.51-3.51h-.609a3.514 3.514 0 00-3.51 3.51v5.68a3.513 3.513 0 003.51 3.51h.609zm-1.775-3.51v-5.68c0-.643.523-1.167 1.166-1.167h.609c.643 0 1.166.524 1.166 1.167v5.68c0 .643-.523 1.166-1.166 1.166h-.609a1.167 1.167 0 01-1.166-1.166zm17.251-9.333a1.172 1.172 0 00-1.637.26L38.12 33.743a1.171 1.171 0 101.896 1.378l7.446-10.24a1.172 1.172 0 00-.259-1.637zm-27.758-4.462c.273 0 .548-.095.77-.29A14.872 14.872 0 0130 14.826c3.369 0 6.546 1.098 9.188 3.175a1.172 1.172 0 101.449-1.843A17.054 17.054 0 0030 12.482c-4.168 0-8.19 1.508-11.326 4.246a1.172 1.172 0 00.77 2.055zm-.215 24.48a17.052 17.052 0 0010.636 3.675c2.705 0 5.295-.61 7.698-1.812a1.172 1.172 0 00-1.048-2.096 14.727 14.727 0 01-6.65 1.564 14.73 14.73 0 01-9.189-3.174 1.172 1.172 0 00-1.448 1.843zm22.278-2.005a1.184 1.184 0 00-1.203-.498 1.184 1.184 0 00-.933.996c-.064.478.184.96.61 1.186a1.18 1.18 0 001.326-.153 1.187 1.187 0 00.2-1.53zm-1.99-18.237a2.76 2.76 0 00-2.758 2.758 2.761 2.761 0 002.758 2.758 2.761 2.761 0 002.758-2.758 2.76 2.76 0 00-2.758-2.758zm0 3.172a.415.415 0 110-.829.415.415 0 010 .83zm3.746 6.728a2.761 2.761 0 002.758 2.758 2.761 2.761 0 002.758-2.758 2.761 2.761 0 00-2.758-2.758 2.761 2.761 0 00-2.758 2.758zm3.172 0a.414.414 0 11-.829 0 .414.414 0 01.83 0zM15.172 13.295c.189.453.65.745 1.14.722a1.182 1.182 0 001.057-.812 1.18 1.18 0 00-.402-1.288 1.186 1.186 0 00-1.363-.044c-.463.305-.64.913-.432 1.422z"/></g><defs><clipPath id="clip0"><path fill="#fff" d="M0 0h60v60H0z"/></clipPath></defs></svg>