<svg width="60" height="60" fill="none" xmlns="http://www.w3.org/2000/svg"><g clip-path="url(#clip0)" fill="#8888D3"><path d="M59.884 32.772a23.717 23.717 0 00-6.816-14.385 23.532 23.532 0 00-11.576-6.356V9.053a3.99 3.99 0 003.022-3.866 3.989 3.989 0 00-3.984-3.984h-8.438a3.989 3.989 0 00-3.984 3.984 3.991 3.991 0 003.022 3.866v2.986a23.53 23.53 0 00-11.54 6.348c-.72.72-1.383 1.474-1.99 2.258-.03-.002-.059-.004-.089-.004h-8.35a1.172 1.172 0 000 2.344h6.845a23.492 23.492 0 00-2.08 4.504H1.172a1.172 1.172 0 000 2.344h12.092a23.828 23.828 0 00-.582 4.504H7.5a1.172 1.172 0 000 2.344h5.22c.099 1.517.342 3.026.731 4.505H5.86a1.172 1.172 0 000 2.343h8.34a23.533 23.533 0 005.391 8.336 23.716 23.716 0 0014.399 6.818 23.729 23.729 0 0015.24-3.703 1.172 1.172 0 00-1.279-1.964c-8.386 5.461-19.616 4.28-26.704-2.807-8.316-8.316-8.316-21.847 0-30.163 8.316-8.316 21.847-8.316 30.163 0 7.078 7.078 8.266 18.299 2.823 26.68a1.172 1.172 0 001.966 1.277 23.748 23.748 0 003.685-15.23zM30.451 5.187c0-.905.736-1.64 1.641-1.64h8.438c.904 0 1.64.735 1.64 1.64 0 .905-.736 1.64-1.64 1.64h-8.438c-.904 0-1.64-.735-1.64-1.64zm3.023 6.45V9.171h5.674v2.46a23.875 23.875 0 00-5.674.005z"/><path d="M52.24 49.864a1.176 1.176 0 00-1.172 1.172 1.176 1.176 0 001.172 1.172c.308 0 .609-.125.828-.344a1.18 1.18 0 00.343-.828c0-.309-.125-.61-.343-.829a1.183 1.183 0 00-.828-.343zM36.329 16.947c-10.024 0-18.18 8.155-18.18 18.179s8.156 18.18 18.18 18.18 18.18-8.156 18.18-18.18-8.156-18.18-18.18-18.18zm0 34.015c-8.732 0-15.836-7.104-15.836-15.836S27.597 19.29 36.33 19.29s15.835 7.104 15.835 15.836-7.103 15.836-15.835 15.836z"/><path d="M43.742 26.056l-5.805 5.804a3.62 3.62 0 00-1.608-.375 3.62 3.62 0 00-1.609.375l-2.597-2.597a1.172 1.172 0 00-1.658 1.657l2.598 2.598a3.617 3.617 0 00-.376 1.608 3.646 3.646 0 003.642 3.642 3.646 3.646 0 003.641-3.642 3.62 3.62 0 00-.375-1.608l5.634-5.634.17-.17a1.172 1.172 0 00-1.657-1.658zm-7.413 10.368a1.3 1.3 0 01-1.298-1.298 1.3 1.3 0 011.298-1.297 1.3 1.3 0 011.298 1.297 1.3 1.3 0 01-1.298 1.298zm12.529-2.455h-1.085a1.172 1.172 0 000 2.343h1.085a1.172 1.172 0 000-2.343zm-23.973-.029h-1.086a1.172 1.172 0 000 2.344h1.086a1.172 1.172 0 000-2.344zm11.458-9.086c.647 0 1.172-.525 1.172-1.172v-1.086a1.172 1.172 0 00-2.344 0v1.086c0 .647.525 1.172 1.172 1.172zm-.028 20.544c-.648 0-1.172.525-1.172 1.172v1.086a1.172 1.172 0 002.343 0V46.57c0-.647-.524-1.172-1.171-1.172zM1.172 41.185c-.308 0-.61.126-.829.344a1.18 1.18 0 00-.343.828c0 .31.125.61.343.829.218.218.52.343.829.343.308 0 .61-.125.828-.343a1.18 1.18 0 00.344-.829c0-.308-.126-.61-.344-.828a1.18 1.18 0 00-.828-.344z"/></g><defs><clipPath id="clip0"><path fill="#fff" d="M0 0h60v60H0z"/></clipPath></defs></svg>