<svg width="60" height="60" fill="none" xmlns="http://www.w3.org/2000/svg"><g clip-path="url(#clip0)" fill="#8888D3"><path d="M58.867 9.119l.79-.79A1.172 1.172 0 0058 6.672l-.79.79-.79-.79a1.172 1.172 0 00-.828-.343h-1.289L48.318.343A1.172 1.172 0 0047.489 0H4.221a4.225 4.225 0 00-4.22 4.22v21.961a4.225 4.225 0 004.22 4.22h10.21l-6.866 6.866A4.193 4.193 0 006.33 40.25c0 1.127.44 2.187 1.236 2.985l15.529 15.528A4.193 4.193 0 0026.078 60a4.193 4.193 0 002.984-1.236l11.63-11.63a1.172 1.172 0 10-1.657-1.658l-11.63 11.63c-.354.355-.826.55-1.327.55s-.973-.195-1.327-.55L9.222 41.579a1.864 1.864 0 01-.55-1.327c0-.501.196-.972.55-1.327L39.474 8.673h15.633l.446.446-2.71 2.71a3.494 3.494 0 00-1.515-.344 3.52 3.52 0 00-3.515 3.516 3.52 3.52 0 003.515 3.516A3.52 3.52 0 0054.844 15c0-.542-.123-1.056-.343-1.515l2.71-2.71.446.447v15.632L46.492 38.02a1.172 1.172 0 001.657 1.657L59.657 28.17c.22-.22.343-.517.343-.828V10.737c0-.31-.123-.609-.343-.829l-.79-.79zM21.045 21.027a1.173 1.173 0 010-2.344 1.173 1.173 0 010 2.344zM38.99 6.33c-.311 0-.61.123-.829.343L24.532 20.3a3.52 3.52 0 00-3.487-3.961 3.52 3.52 0 00-3.516 3.516 3.52 3.52 0 003.961 3.487l-4.716 4.716H4.221a1.879 1.879 0 01-1.876-1.877V4.221c0-1.035.842-1.877 1.876-1.877h42.783l3.985 3.985h-12zm12.34 9.843a1.173 1.173 0 01-1.172-1.171c0-.646.525-1.172 1.172-1.172.267 0 .513.09.71.242a1.16 1.16 0 00.219.219 1.172 1.172 0 01-.93 1.882z"/><path d="M38.976 34.668c.31 0 .609-.124.829-.343l2.651-2.652a1.172 1.172 0 00-1.657-1.657l-1.823 1.823-5.8-5.8a1.172 1.172 0 00-1.658 1.657l6.63 6.628c.22.22.517.344.828.344zM48.09 24.38a1.172 1.172 0 00-1.656 0l-1.492 1.492-1.657-1.657 1.491-1.491a1.172 1.172 0 00-1.657-1.658l-1.492 1.492L39.97 20.9l1.492-1.492a1.172 1.172 0 00-1.658-1.657l-2.32 2.32a1.172 1.172 0 000 1.657l6.63 6.63a1.168 1.168 0 001.657 0l2.32-2.321c.457-.457.457-1.2 0-1.657zM35.13 37.855a1.172 1.172 0 001.063-2.089l-8.783-4.474a1.172 1.172 0 00-1.576 1.576l4.474 8.783a1.171 1.171 0 102.089-1.064l-.36-.705 2.387-2.387.706.36zm-4.211-.169l-1.36-2.67 2.67 1.36-1.31 1.31zm-7.024 9.234a1.172 1.172 0 001.657 1.657l1.657-1.657a3.52 3.52 0 000-4.972 3.52 3.52 0 00-4.761-.193 1.161 1.161 0 00-.124.106l-.086.087a1.164 1.164 0 01-.829.343 1.173 1.173 0 01-.829-2l1.658-1.658a1.172 1.172 0 00-1.658-1.657l-1.657 1.657a3.52 3.52 0 000 4.972 3.493 3.493 0 002.486 1.03c.938 0 1.82-.365 2.483-1.027l.003-.003a1.173 1.173 0 012 .829c0 .313-.122.607-.343.828l-1.657 1.658zM20.078 7.565a1.172 1.172 0 00-1.596.444L10.924 21.4a1.172 1.172 0 102.04 1.152l7.559-13.39a1.172 1.172 0 00-.445-1.596zm-5.409 2.981a3.52 3.52 0 00-3.516-3.515 3.52 3.52 0 00-3.516 3.516 3.52 3.52 0 003.516 3.516 3.52 3.52 0 003.516-3.517zm-4.688 0a1.173 1.173 0 012.344 0c0 .647-.526 1.173-1.172 1.173a1.173 1.173 0 01-1.172-1.172zm33.611 30.858c-.31 0-.61.125-.828.343a1.18 1.18 0 00-.344.829 1.179 1.179 0 001.172 1.172c.308 0 .61-.125.829-.344a1.18 1.18 0 00.343-.828c0-.308-.125-.61-.343-.828a1.181 1.181 0 00-.829-.344z"/></g><defs><clipPath id="clip0"><path fill="#fff" d="M0 0h60v60H0z"/></clipPath></defs></svg>