<svg width="60" height="60" fill="none" xmlns="http://www.w3.org/2000/svg"><g clip-path="url(#clip0)" fill="#8888D3"><path d="M59.808 25.262L50.2 10.611a1.172 1.172 0 00-.98-.53H10.825c-.394 0-.761.199-.978.528L.223 25.216a1.172 1.172 0 00.067 1.46l4.878 5.57a1.172 1.172 0 101.763-1.544l-3.175-3.626h15.762l7.92 27.041-8.95-10.22a1.172 1.172 0 10-1.763 1.545l12.397 14.155a1.172 1.172 0 001.763 0l13.199-15.074a1.171 1.171 0 10-1.763-1.544L32.57 54.116l7.92-27.04h15.755L48.958 35.4a1.171 1.171 0 101.763 1.544l8.989-10.266c.346-.396.387-.975.098-1.415zm-56.46-.53l7.475-11.345 7.441 11.346H3.348zm9.647-12.307h14.839l-7.42 11.314-7.419-11.314zm17.008.965l7.439 11.343H22.565l7.438-11.343zm0 41.15L21.96 27.075h16.088L30.005 54.54zm9.609-30.772l-7.439-11.343H47.05l-7.438 11.343zm2.17.965L49.22 13.39l7.438 11.343H41.781z"/><path d="M18.42 38.322a5.488 5.488 0 01-5.481-5.482 1.172 1.172 0 00-2.344 0 5.488 5.488 0 01-5.482 5.482 1.172 1.172 0 000 2.343 5.488 5.488 0 015.482 5.482 1.172 1.172 0 002.344 0 5.488 5.488 0 015.482-5.481 1.172 1.172 0 000-2.344zm-6.653 3.71a7.886 7.886 0 00-2.538-2.538 7.886 7.886 0 002.538-2.539 7.888 7.888 0 002.538 2.539 7.887 7.887 0 00-2.538 2.538zM58.828 4.69a3.52 3.52 0 01-3.515-3.515 1.172 1.172 0 00-2.344 0 3.52 3.52 0 01-3.515 3.515 1.172 1.172 0 000 2.344 3.52 3.52 0 013.515 3.515 1.172 1.172 0 002.344 0 3.52 3.52 0 013.515-3.515 1.172 1.172 0 000-2.344zm-4.687 2.347a5.91 5.91 0 00-1.175-1.175 5.92 5.92 0 001.175-1.175c.334.445.73.84 1.175 1.175a5.92 5.92 0 00-1.175 1.175zm-6.94 32.264a1.175 1.175 0 00-.828-.343c-.308 0-.61.124-.829.343a1.18 1.18 0 00-.343.829c0 .308.125.61.343.828.218.218.52.343.829.343.308 0 .61-.125.828-.343a1.18 1.18 0 00.344-.828c0-.308-.126-.61-.344-.829z"/></g><defs><clipPath id="clip0"><path fill="#fff" d="M0 0h60v60H0z"/></clipPath></defs></svg>