<svg width="60" height="60" fill="none" xmlns="http://www.w3.org/2000/svg"><path d="M57 40h-3A26 26 0 0026 4.31V3a3 3 0 00-3-3H3a3 3 0 00-3 3v14a3 3 0 003 3h3a26 26 0 0028 35.69V57a3 3 0 003 3h20a3 3 0 003-3V43a3 3 0 00-3-3zm-5.08 0h-8.63l-4.67-2.91C39.09 37 38 37 52.94 37c-.75 2.47-1.02 2.51-1.02 3zm1.88-13h-11a2.49 2.49 0 01-2.48-2.5A4.5 4.5 0 0035.8 20h-1.16a2.5 2.5 0 010-5h5.8a4.47 4.47 0 004.41-3.85A23.79 23.79 0 0153.8 27zM2 17V3a1 1 0 011-1h20a1 1 0 011 1v19.2l-6.47-4.05c-.35-.22.7-.15-14.53-.15a1 1 0 01-1-1zm6.08 3h8.63l4.65 2.91c-.47.13-.25.09-5.28.09a4.5 4.5 0 100 9h9.28a2.5 2.5 0 010 5H7.06c-2.9-9.49 1.02-16.35 1.02-17zm-.32 19h17.6a4.5 4.5 0 100-9h-9.28a2.5 2.5 0 010-5h4.64a3.92 3.92 0 002.58-.89c1.23.78 1.33.89 1.7.89a1 1 0 001-1V6.34a23.83 23.83 0 0117 3.49 3.76 3.76 0 00-.06.67 2.49 2.49 0 01-2.5 2.5h-5.8a4.5 4.5 0 100 9h1.16a2.5 2.5 0 012.48 2.5 4.5 4.5 0 004.48 4.5H54a22.319 22.319 0 01-.5 6H39.24a3.88 3.88 0 00-2.55.87l-1.16-.72A1 1 0 0034 36v5.28a2.43 2.43 0 01-1.72.72H26a4.506 4.506 0 10.46 9h1.16a2.49 2.49 0 012.48 2.5v.5A24 24 0 017.76 39zm24.36 14.9v-.4a4.5 4.5 0 00-4.48-4.5h-1.16a2.504 2.504 0 01-.27-5h6.07a4.37 4.37 0 001.72-.35v10c-.59.11-1.21.2-1.88.25zM58 57a1 1 0 01-1 1H37a1 1 0 01-1-1V37.8c7.12 4.46 6.6 4.2 7 4.2h14a1 1 0 011 1v14z" fill="url(#paint0_linear)"/><path d="M6 6h1a1 1 0 100-2H6a1 1 0 100 2z" fill="url(#paint1_linear)"/><path d="M11 6h9a1 1 0 100-2h-9a1 1 0 100 2z" fill="url(#paint2_linear)"/><path d="M6 11h10a1 1 0 100-2H6a1 1 0 000 2z" fill="url(#paint3_linear)"/><path d="M21 15a1 1 0 00-1-1H6a1 1 0 100 2h14a1 1 0 001-1z" fill="url(#paint4_linear)"/><path d="M55 49H39a1 1 0 100 2h16a1 1 0 100-2z" fill="url(#paint5_linear)"/><path d="M41 53h-2a1 1 0 100 2h2a1 1 0 100-2z" fill="url(#paint6_linear)"/><path d="M55 53H45a1 1 0 100 2h10a1 1 0 100-2z" fill="url(#paint7_linear)"/><path d="M39 47h10a1 1 0 100-2H39a1 1 0 100 2z" fill="url(#paint8_linear)"/><defs><linearGradient id="paint0_linear" x1="30" y1="0" x2="30" y2="60" gradientUnits="userSpaceOnUse"><stop stop-color="#8888D3"/><stop offset="1" stop-color="#5E60A3"/></linearGradient><linearGradient id="paint1_linear" x1="6.5" y1="4" x2="6.5" y2="6" gradientUnits="userSpaceOnUse"><stop stop-color="#8888D3"/><stop offset="1" stop-color="#5E60A3"/></linearGradient><linearGradient id="paint2_linear" x1="15.5" y1="4" x2="15.5" y2="6" gradientUnits="userSpaceOnUse"><stop stop-color="#8888D3"/><stop offset="1" stop-color="#5E60A3"/></linearGradient><linearGradient id="paint3_linear" x1="11" y1="9" x2="11" y2="11" gradientUnits="userSpaceOnUse"><stop stop-color="#8888D3"/><stop offset="1" stop-color="#5E60A3"/></linearGradient><linearGradient id="paint4_linear" x1="13" y1="14" x2="13" y2="16" gradientUnits="userSpaceOnUse"><stop stop-color="#8888D3"/><stop offset="1" stop-color="#5E60A3"/></linearGradient><linearGradient id="paint5_linear" x1="47" y1="49" x2="47" y2="51" gradientUnits="userSpaceOnUse"><stop stop-color="#8888D3"/><stop offset="1" stop-color="#5E60A3"/></linearGradient><linearGradient id="paint6_linear" x1="40" y1="53" x2="40" y2="55" gradientUnits="userSpaceOnUse"><stop stop-color="#8888D3"/><stop offset="1" stop-color="#5E60A3"/></linearGradient><linearGradient id="paint7_linear" x1="50" y1="53" x2="50" y2="55" gradientUnits="userSpaceOnUse"><stop stop-color="#8888D3"/><stop offset="1" stop-color="#5E60A3"/></linearGradient><linearGradient id="paint8_linear" x1="44" y1="45" x2="44" y2="47" gradientUnits="userSpaceOnUse"><stop stop-color="#8888D3"/><stop offset="1" stop-color="#5E60A3"/></linearGradient></defs></svg>