<svg width="60" height="60" fill="none" xmlns="http://www.w3.org/2000/svg"><g clip-path="url(#clip0)"><path d="M19.322 60c-.15 0-.3-.033-.44-.1L.579 51.15A1.018 1.018 0 010 50.234V16.33a1.018 1.018 0 011.36-.958l18.305 6.563c.405.144.674.527.674.957v36.092A1.017 1.017 0 0119.322 60zM2.034 49.592l16.27 7.778V23.607l-16.27-5.833v31.818z" fill="url(#paint0_linear)"/><path d="M56.95 60c-.143 0-.287-.03-.42-.09l-19.322-8.75a1.016 1.016 0 01-.597-.927V32.23a1.017 1.017 0 112.033 0v17.348l17.288 7.828V22.89a1.017 1.017 0 112.034 0v36.092A1.018 1.018 0 0156.95 60z" fill="url(#paint1_linear)"/><path d="M19.322 60a1.016 1.016 0 01-1.017-1.017V22.89c0-.43.27-.813.673-.958l10.457-3.748a1.017 1.017 0 01.687 1.915l-9.783 3.507V57.37l16.271-7.778V32.697a1.017 1.017 0 112.034 0v17.536c0 .392-.226.75-.578.918L19.761 59.9c-.14.066-.289.099-.439.099z" fill="url(#paint2_linear)"/><path d="M44.218 41.407c-.288 0-.564-.123-.756-.338-.614-.683-15.026-16.84-15.026-25.287C28.436 7.08 35.516 0 44.218 0S60 7.08 60 15.782c0 8.447-14.411 24.603-15.025 25.287a1.016 1.016 0 01-.757.338zm0-39.373c-7.58 0-13.748 6.167-13.748 13.748 0 6.646 10.765 19.601 13.748 23.062 2.982-3.461 13.748-16.419 13.748-23.062 0-7.58-6.167-13.748-13.748-13.748z" fill="url(#paint3_linear)"/><path d="M44.218 23.907c-4.48 0-8.126-3.645-8.126-8.125 0-4.481 3.645-8.126 8.126-8.126s8.126 3.645 8.126 8.126c0 4.48-3.645 8.125-8.126 8.125zm0-14.217a6.1 6.1 0 00-6.092 6.092 6.099 6.099 0 006.092 6.092 6.099 6.099 0 006.092-6.092 6.1 6.1 0 00-6.092-6.092z" fill="url(#paint4_linear)"/><path d="M1.017 48.721A1.018 1.018 0 010 47.704V27.051c0-.523.396-.96.916-1.012l6.101-.61c.458-.044.878.215 1.046.634l3.951 9.877 2.787 1.858c.326.217.498.602.443.99l-1.017 7.119c-.064.447-.415.8-.863.863l-7.118 1.016-5.047.92a1.06 1.06 0 01-.182.015zm1.017-20.75v18.515l3.886-.706 6.402-.916.818-5.73-2.517-1.678a1.027 1.027 0 01-.38-.468l-3.784-9.46-4.425.443z" fill="url(#paint5_linear)"/><path d="M25.593 57.003a1.016 1.016 0 01-.934-.616l-2.204-5.139c-.13-.3-.105-.643.063-.924l3.05-5.084c.025-.039.05-.077.078-.112l4.068-5.085a1.02 1.02 0 011.359-.211l3.05 2.034c.283.189.453.506.453.846v9.152c0 .381-.212.729-.549.904l-7.966 4.121a1.019 1.019 0 01-.468.114zm-1.064-6.078l1.567 3.655 6.446-3.334v-7.99L30.72 42.04l-3.442 4.303-2.749 4.581z" fill="url(#paint6_linear)"/><path d="M20.34 31.525c-.197 0-.393-.056-.565-.17l-1.017-.678a1.016 1.016 0 01-.453-.846v-6.94c0-.43.27-.812.673-.958l7.93-2.842a1.017 1.017 0 011.282.566l2.24 5.375a1.014 1.014 0 01-.617 1.357l-5.874 1.957-2.881 2.881a1.012 1.012 0 01-.719.298zm0-7.918v5.464l2.33-2.333a1.02 1.02 0 01.398-.245l5.064-1.688-1.447-3.474-6.346 2.276z" fill="url(#paint7_linear)"/><path d="M19.322 30.848c-.198 0-.394-.058-.564-.171l-5.085-3.39a1.022 1.022 0 01-.38-.468l-2.509-6.273a1.018 1.018 0 011.288-1.335l7.594 2.722c.404.145.673.528.673.958v6.94a1.018 1.018 0 01-1.017 1.017zm-4.258-5.078l3.241 2.16v-4.324l-4.794-1.718 1.553 3.881z" fill="url(#paint8_linear)"/><path d="M56.95 53.344a1.03 1.03 0 01-.183-.017l-8.135-1.479a1.02 1.02 0 01-.613-.365l-4.068-5.085a1.02 1.02 0 01.595-1.632l4.672-.935 1.8-2.7c.134-.201.335-.348.567-.414l5.085-1.453a1.018 1.018 0 011.296.978v12.085a1.016 1.016 0 01-1.017 1.017zm-7.58-3.429l6.562 1.193V41.59l-3.43.98-1.825 2.74a1.02 1.02 0 01-.647.433l-3.446.689 2.786 3.483z" fill="url(#paint9_linear)"/></g><defs><linearGradient id="paint0_linear" x1="10.169" y1="15.313" x2="10.169" y2="60" gradientUnits="userSpaceOnUse"><stop stop-color="#8888D3"/><stop offset="1" stop-color="#5E60A3"/></linearGradient><linearGradient id="paint1_linear" x1="47.288" y1="21.874" x2="47.288" y2="60" gradientUnits="userSpaceOnUse"><stop stop-color="#8888D3"/><stop offset="1" stop-color="#5E60A3"/></linearGradient><linearGradient id="paint2_linear" x1="28.475" y1="18.125" x2="28.475" y2="60" gradientUnits="userSpaceOnUse"><stop stop-color="#8888D3"/><stop offset="1" stop-color="#5E60A3"/></linearGradient><linearGradient id="paint3_linear" x1="44.218" y1="0" x2="44.218" y2="41.407" gradientUnits="userSpaceOnUse"><stop stop-color="#8888D3"/><stop offset="1" stop-color="#5E60A3"/></linearGradient><linearGradient id="paint4_linear" x1="44.218" y1="7.656" x2="44.218" y2="23.907" gradientUnits="userSpaceOnUse"><stop stop-color="#8888D3"/><stop offset="1" stop-color="#5E60A3"/></linearGradient><linearGradient id="paint5_linear" x1="7.627" y1="25.424" x2="7.627" y2="48.721" gradientUnits="userSpaceOnUse"><stop stop-color="#8888D3"/><stop offset="1" stop-color="#5E60A3"/></linearGradient><linearGradient id="paint6_linear" x1="28.474" y1="39.661" x2="28.474" y2="57.003" gradientUnits="userSpaceOnUse"><stop stop-color="#8888D3"/><stop offset="1" stop-color="#5E60A3"/></linearGradient><linearGradient id="paint7_linear" x1="24.407" y1="19.03" x2="24.407" y2="31.525" gradientUnits="userSpaceOnUse"><stop stop-color="#8888D3"/><stop offset="1" stop-color="#5E60A3"/></linearGradient><linearGradient id="paint8_linear" x1="15.525" y1="19.152" x2="15.525" y2="30.848" gradientUnits="userSpaceOnUse"><stop stop-color="#8888D3"/><stop offset="1" stop-color="#5E60A3"/></linearGradient><linearGradient id="paint9_linear" x1="50.848" y1="39.225" x2="50.848" y2="53.344" gradientUnits="userSpaceOnUse"><stop stop-color="#8888D3"/><stop offset="1" stop-color="#5E60A3"/></linearGradient><clipPath id="clip0"><path fill="#fff" d="M0 0h60v60H0z"/></clipPath></defs></svg>