<svg width="60" height="60" fill="none" xmlns="http://www.w3.org/2000/svg"><path d="M5 56h20v3a1 1 0 001 1h29a1 1 0 001-1V43a1 1 0 00-.445-.832L53.8 41l1.752-1.168A1 1 0 0056 39V1a1 1 0 00-1-1H26a1 1 0 00-1 1v3H5a1 1 0 00-1 1v50a1 1 0 001 1zM27 2h27v36.465l-2.555 1.7a1 1 0 000 1.664L54 43.535V58H27v-2h12a1 1 0 001-1V42h1v-2h-1V16h12v-2H40v-3h10V9H40V5a1 1 0 00-1-1H27V2zM6 6h32v48H6V6z" fill="url(#paint0_linear)"/><path d="M22 36c7.732 0 14-6.268 14-14S29.732 8 22 8a5.13 5.13 0 00-.443.022c-7.651.223-13.703 6.554-13.582 14.208C8.096 29.883 14.345 36.019 22 36zm11.95-15h-4.72a28.372 28.372 0 00-.585-5h3.731a11.894 11.894 0 011.573 5zM21 30v3.8c-1.263-.494-2.26-1.9-2.968-3.8H21zm-3.57-2a25.608 25.608 0 01-.66-5H21v5h-3.57zM23 33.793V30h2.977c-.069.184-.136.372-.209.544A5.793 5.793 0 0123 33.793zM23 28v-5h4.229a25.584 25.584 0 01-.648 5H23zm6.23-5h4.72a11.894 11.894 0 01-1.574 5h-3.73c.342-1.646.538-3.32.584-5zm-2-2H23v-5h3.57c.384 1.641.605 3.316.66 5zM23 14v-3.795c1.263.494 2.26 1.9 2.968 3.8L23 14zm-2-3.795V14h-2.968c.708-1.893 1.705-3.3 2.968-3.795zM21 16v5h-4.23c.055-1.684.276-3.359.66-5H21zm-6.229 5h-4.72a11.895 11.895 0 011.573-5h3.739a27.826 27.826 0 00-.592 5zm0 2c.046 1.68.242 3.354.585 5h-3.732a11.895 11.895 0 01-1.573-5h4.72zm-1.689 7h2.808c.33 1.06.792 2.076 1.374 3.022A12.046 12.046 0 0113.081 30h.001zm13.656 3.022A13.348 13.348 0 0028.11 30h2.808a12.045 12.045 0 01-4.182 3.022zM30.919 14h-2.808a13.353 13.353 0 00-1.374-3.022A12.044 12.044 0 0130.919 14zm-13.638-3.03a11.78 11.78 0 00-.887 1.7c-.18.419-.339.868-.49 1.331H13.08a12.037 12.037 0 014.2-3.03z" fill="url(#paint1_linear)"/><path d="M8 39h28v2H8v-2z" fill="url(#paint2_linear)"/><path d="M8 43h28v2H8v-2z" fill="url(#paint3_linear)"/><path d="M43 40h2v2h-2v-2z" fill="url(#paint4_linear)"/><path d="M47 40h2v2h-2v-2z" fill="url(#paint5_linear)"/><path d="M50 44h2v12h-2V44z" fill="url(#paint6_linear)"/><path d="M46 44h2v12h-2V44z" fill="url(#paint7_linear)"/><path d="M42 44h2v8h-2v-8z" fill="url(#paint8_linear)"/><path d="M50.293 21.293l-1.636 1.636-5.493-.915-.328 1.972 4.083.68-4.12 4.117-1.355-.678-.894 1.79 1.7.85.85 1.7 1.79-.894-.673-1.35 4.076-4.077.717 5.02 1.98-.283-.929-6.5 1.646-1.646a1 1 0 00-1.414-1.414v-.008z" fill="url(#paint9_linear)"/><defs><linearGradient id="paint0_linear" x1="30" y1="0" x2="30" y2="60" gradientUnits="userSpaceOnUse"><stop stop-color="#8888D3"/><stop offset="1" stop-color="#5E60A3"/></linearGradient><linearGradient id="paint1_linear" x1="21.987" y1="8" x2="21.987" y2="36" gradientUnits="userSpaceOnUse"><stop stop-color="#8888D3"/><stop offset="1" stop-color="#5E60A3"/></linearGradient><linearGradient id="paint2_linear" x1="22" y1="39" x2="22" y2="41" gradientUnits="userSpaceOnUse"><stop stop-color="#8888D3"/><stop offset="1" stop-color="#5E60A3"/></linearGradient><linearGradient id="paint3_linear" x1="22" y1="43" x2="22" y2="45" gradientUnits="userSpaceOnUse"><stop stop-color="#8888D3"/><stop offset="1" stop-color="#5E60A3"/></linearGradient><linearGradient id="paint4_linear" x1="44" y1="40" x2="44" y2="42" gradientUnits="userSpaceOnUse"><stop stop-color="#8888D3"/><stop offset="1" stop-color="#5E60A3"/></linearGradient><linearGradient id="paint5_linear" x1="48" y1="40" x2="48" y2="42" gradientUnits="userSpaceOnUse"><stop stop-color="#8888D3"/><stop offset="1" stop-color="#5E60A3"/></linearGradient><linearGradient id="paint6_linear" x1="51" y1="44" x2="51" y2="56" gradientUnits="userSpaceOnUse"><stop stop-color="#8888D3"/><stop offset="1" stop-color="#5E60A3"/></linearGradient><linearGradient id="paint7_linear" x1="47" y1="44" x2="47" y2="56" gradientUnits="userSpaceOnUse"><stop stop-color="#8888D3"/><stop offset="1" stop-color="#5E60A3"/></linearGradient><linearGradient id="paint8_linear" x1="43" y1="44" x2="43" y2="52" gradientUnits="userSpaceOnUse"><stop stop-color="#8888D3"/><stop offset="1" stop-color="#5E60A3"/></linearGradient><linearGradient id="paint9_linear" x1="46.269" y1="21.02" x2="46.269" y2="32.445" gradientUnits="userSpaceOnUse"><stop stop-color="#8888D3"/><stop offset="1" stop-color="#5E60A3"/></linearGradient></defs></svg>