<svg width="60" height="60" fill="none" xmlns="http://www.w3.org/2000/svg"><path d="M26.129 51.29h-.968v-1.935a.96.96 0 00-.083-.393l-3.87-8.71a.967.967 0 00-.885-.575H2.903a.967.967 0 00-.968.968V51.29H.968a.967.967 0 00-.968.968v3.87c0 .536.432.969.968.969h3.04C4.441 58.762 5.943 60 7.742 60s3.301-1.238 3.733-2.903h4.146C16.054 58.762 17.556 60 19.355 60s3.3-1.238 3.733-2.903h3.041a.967.967 0 00.968-.968v-3.871a.967.967 0 00-.968-.968zM7.742 58.064a1.937 1.937 0 01-1.936-1.935c0-1.068.868-1.936 1.936-1.936 1.067 0 1.935.868 1.935 1.936a1.937 1.937 0 01-1.935 1.935zm11.613 0a1.937 1.937 0 01-1.936-1.935c0-1.068.868-1.936 1.936-1.936 1.067 0 1.935.868 1.935 1.936a1.937 1.937 0 01-1.935 1.935zm5.806-2.903h-2.073c-.432-1.666-1.934-2.903-3.733-2.903-1.8 0-3.301 1.237-3.734 2.903h-4.146c-.432-1.666-1.934-2.903-3.733-2.903-1.799 0-3.301 1.237-3.734 2.903H1.935v-1.935h.968a.967.967 0 00.968-.968V41.613h15.824l3.53 7.947v2.698c0 .535.433.968.968.968h.968v1.935z" fill="url(#paint0_linear)"/><path d="M19.286 44.157a.97.97 0 00-.899-.609h-3.87a.967.967 0 00-.969.968v4.839c0 .535.433.968.968.968h5.807a.97.97 0 00.899-1.327l-1.936-4.839zm-3.802 4.23v-2.903h2.248l1.161 2.903h-3.41z" fill="url(#paint1_linear)"/><path d="M10.645 43.548h-3.87a.967.967 0 00-.969.968v4.839c0 .535.433.968.968.968h3.871a.966.966 0 00.968-.968v-4.839a.967.967 0 00-.968-.968zm-.968 4.839H7.742v-2.903h1.935v2.903z" fill="url(#paint2_linear)"/><path d="M16.452 36.774h29.032a4.844 4.844 0 014.839 4.839 4.844 4.844 0 01-4.84 4.839h-16.45v1.935h16.45a6.783 6.783 0 006.775-6.774 6.783 6.783 0 00-6.774-6.774H16.452c-8.005 0-14.517-6.512-14.517-14.516 0-8.005 6.512-14.516 14.517-14.516h28.064V3.87H16.452C7.38 3.871 0 11.251 0 20.323c0 9.071 7.38 16.451 16.452 16.451z" fill="url(#paint3_linear)"/><path d="M45.484 27.097H30.968V24.99c1.665-.54 2.903-2.42 2.903-4.667 0-2.668-1.736-4.84-3.871-4.84s-3.871 2.172-3.871 4.84c0 2.248 1.238 4.125 2.903 4.667v2.107H21.29V24.99c1.666-.54 2.904-2.42 2.904-4.667 0-2.668-1.736-4.84-3.871-4.84s-3.871 2.172-3.871 4.84c0 2.248 1.237 4.125 2.903 4.667v2.107h-2.903a6.783 6.783 0 01-6.775-6.774 6.783 6.783 0 016.775-6.775h28.064v-1.935H16.452c-4.803 0-8.71 3.907-8.71 8.71 0 4.802 3.907 8.71 8.71 8.71h29.032c6.937 0 12.58 5.643 12.58 12.58s-5.643 12.58-12.58 12.58H29.032v1.936h16.452C53.488 56.129 60 49.617 60 41.613c0-8.004-6.512-14.516-14.516-14.516zm-17.42-6.774c0-1.574.887-2.904 1.936-2.904s1.936 1.33 1.936 2.904c0 1.573-.887 2.903-1.936 2.903s-1.936-1.33-1.936-2.903zm-9.677 0c0-1.574.887-2.904 1.936-2.904s1.935 1.33 1.935 2.904c0 1.573-.886 2.903-1.935 2.903-1.05 0-1.936-1.33-1.936-2.903z" fill="url(#paint4_linear)"/><path d="M41.613 7.742h2.903v1.935h-2.903V7.742z" fill="url(#paint5_linear)"/><path d="M33.871 7.742h3.87v1.935h-3.87V7.742z" fill="url(#paint6_linear)"/><path d="M26.129 7.742H30v1.935h-3.871V7.742z" fill="url(#paint7_linear)"/><path d="M18.387 7.742h3.871v1.935h-3.87V7.742z" fill="url(#paint8_linear)"/><path d="M11.13 11.101a10.533 10.533 0 013.547-1.275l-.322-1.91c-1.483.25-2.894.757-4.195 1.511l.97 1.674z" fill="url(#paint9_linear)"/><path d="M6.232 12.983a12.499 12.499 0 00-1.965 4.195l1.875.483c.33-1.28.889-2.474 1.662-3.547l-1.572-1.13z" fill="url(#paint10_linear)"/><path d="M3.913 21.37c.121 1.458.49 2.87 1.1 4.195l1.758-.807a10.555 10.555 0 01-.928-3.547l-1.93.159z" fill="url(#paint11_linear)"/><path d="M9.411 28.307L8.13 29.758a12.508 12.508 0 004.13 2.43l.644-1.825a10.59 10.59 0 01-3.492-2.056z" fill="url(#paint12_linear)"/><path d="M16.452 30.968h3.87v1.935h-3.87v-1.935z" fill="url(#paint13_linear)"/><path d="M24.194 30.968h3.87v1.935h-3.87v-1.935z" fill="url(#paint14_linear)"/><path d="M31.936 30.968h3.87v1.935h-3.87v-1.935z" fill="url(#paint15_linear)"/><path d="M39.678 30.968h3.87v1.935h-3.87v-1.935z" fill="url(#paint16_linear)"/><path d="M51.873 33.097a10.518 10.518 0 00-4.26-1.916l-.384 1.897c1.27.257 2.44.785 3.483 1.567l1.161-1.548z" fill="url(#paint17_linear)"/><path d="M55.242 37.355l-1.772.774a8.66 8.66 0 01.724 3.484h1.935c0-1.48-.298-2.913-.886-4.258z" fill="url(#paint18_linear)"/><path d="M50.71 48.58l1.162 1.549a10.684 10.684 0 003.37-4.257l-1.772-.775a8.748 8.748 0 01-2.76 3.484z" fill="url(#paint19_linear)"/><path d="M43.548 50.323v1.935h1.936c.713 0 1.43-.072 2.127-.213l-.383-1.898a8.78 8.78 0 01-1.744.176h-1.936z" fill="url(#paint20_linear)"/><path d="M35.806 50.323h3.871v1.935h-3.87v-1.935z" fill="url(#paint21_linear)"/><path d="M29.032 50.323h2.904v1.935h-2.904v-1.935z" fill="url(#paint22_linear)"/><path d="M52.258 13.47v9.756h1.936V13.47C57.47 12.999 60 10.18 60 6.774A6.783 6.783 0 0053.226 0a6.783 6.783 0 00-6.774 6.774c0 3.406 2.53 6.225 5.806 6.697zm.968-11.535a4.844 4.844 0 014.839 4.84 4.844 4.844 0 01-4.84 4.838 4.844 4.844 0 01-4.838-4.839 4.844 4.844 0 014.839-4.839z" fill="url(#paint23_linear)"/><path d="M56.13 6.774h-1.936a.968.968 0 01-.968.968v1.936c1.6 0 2.903-1.303 2.903-2.904z" fill="url(#paint24_linear)"/><defs><linearGradient id="paint12_linear" x1="10.516" y1="28.307" x2="10.516" y2="32.187" gradientUnits="userSpaceOnUse"><stop stop-color="#8888D3"/><stop offset="1" stop-color="#5E60A3"/></linearGradient><linearGradient id="paint0_linear" x1="13.548" y1="39.677" x2="13.548" y2="60" gradientUnits="userSpaceOnUse"><stop stop-color="#8888D3"/><stop offset="1" stop-color="#5E60A3"/></linearGradient><linearGradient id="paint2_linear" x1="8.71" y1="43.548" x2="8.71" y2="50.322" gradientUnits="userSpaceOnUse"><stop stop-color="#8888D3"/><stop offset="1" stop-color="#5E60A3"/></linearGradient><linearGradient id="paint3_linear" x1="26.129" y1="3.871" x2="26.129" y2="48.387" gradientUnits="userSpaceOnUse"><stop stop-color="#8888D3"/><stop offset="1" stop-color="#5E60A3"/></linearGradient><linearGradient id="paint4_linear" x1="33.871" y1="11.613" x2="33.871" y2="56.129" gradientUnits="userSpaceOnUse"><stop stop-color="#8888D3"/><stop offset="1" stop-color="#5E60A3"/></linearGradient><linearGradient id="paint5_linear" x1="43.065" y1="7.742" x2="43.065" y2="9.677" gradientUnits="userSpaceOnUse"><stop stop-color="#8888D3"/><stop offset="1" stop-color="#5E60A3"/></linearGradient><linearGradient id="paint6_linear" x1="35.806" y1="7.742" x2="35.806" y2="9.677" gradientUnits="userSpaceOnUse"><stop stop-color="#8888D3"/><stop offset="1" stop-color="#5E60A3"/></linearGradient><linearGradient id="paint7_linear" x1="28.064" y1="7.742" x2="28.064" y2="9.677" gradientUnits="userSpaceOnUse"><stop stop-color="#8888D3"/><stop offset="1" stop-color="#5E60A3"/></linearGradient><linearGradient id="paint8_linear" x1="20.323" y1="7.742" x2="20.323" y2="9.677" gradientUnits="userSpaceOnUse"><stop stop-color="#8888D3"/><stop offset="1" stop-color="#5E60A3"/></linearGradient><linearGradient id="paint9_linear" x1="12.419" y1="7.917" x2="12.419" y2="11.101" gradientUnits="userSpaceOnUse"><stop stop-color="#8888D3"/><stop offset="1" stop-color="#5E60A3"/></linearGradient><linearGradient id="paint10_linear" x1="6.035" y1="12.983" x2="6.035" y2="17.661" gradientUnits="userSpaceOnUse"><stop stop-color="#8888D3"/><stop offset="1" stop-color="#5E60A3"/></linearGradient><linearGradient id="paint11_linear" x1="5.342" y1="21.211" x2="5.342" y2="25.565" gradientUnits="userSpaceOnUse"><stop stop-color="#8888D3"/><stop offset="1" stop-color="#5E60A3"/></linearGradient><linearGradient id="paint1_linear" x1="17.419" y1="43.548" x2="17.419" y2="50.322" gradientUnits="userSpaceOnUse"><stop stop-color="#8888D3"/><stop offset="1" stop-color="#5E60A3"/></linearGradient><linearGradient id="paint13_linear" x1="18.387" y1="30.968" x2="18.387" y2="32.903" gradientUnits="userSpaceOnUse"><stop stop-color="#8888D3"/><stop offset="1" stop-color="#5E60A3"/></linearGradient><linearGradient id="paint14_linear" x1="26.129" y1="30.968" x2="26.129" y2="32.903" gradientUnits="userSpaceOnUse"><stop stop-color="#8888D3"/><stop offset="1" stop-color="#5E60A3"/></linearGradient><linearGradient id="paint15_linear" x1="33.871" y1="30.968" x2="33.871" y2="32.903" gradientUnits="userSpaceOnUse"><stop stop-color="#8888D3"/><stop offset="1" stop-color="#5E60A3"/></linearGradient><linearGradient id="paint16_linear" x1="41.613" y1="30.968" x2="41.613" y2="32.903" gradientUnits="userSpaceOnUse"><stop stop-color="#8888D3"/><stop offset="1" stop-color="#5E60A3"/></linearGradient><linearGradient id="paint17_linear" x1="49.551" y1="31.181" x2="49.551" y2="34.645" gradientUnits="userSpaceOnUse"><stop stop-color="#8888D3"/><stop offset="1" stop-color="#5E60A3"/></linearGradient><linearGradient id="paint18_linear" x1="54.799" y1="37.355" x2="54.799" y2="41.613" gradientUnits="userSpaceOnUse"><stop stop-color="#8888D3"/><stop offset="1" stop-color="#5E60A3"/></linearGradient><linearGradient id="paint19_linear" x1="52.976" y1="45.097" x2="52.976" y2="50.129" gradientUnits="userSpaceOnUse"><stop stop-color="#8888D3"/><stop offset="1" stop-color="#5E60A3"/></linearGradient><linearGradient id="paint20_linear" x1="45.58" y1="50.148" x2="45.58" y2="52.258" gradientUnits="userSpaceOnUse"><stop stop-color="#8888D3"/><stop offset="1" stop-color="#5E60A3"/></linearGradient><linearGradient id="paint21_linear" x1="37.742" y1="50.323" x2="37.742" y2="52.258" gradientUnits="userSpaceOnUse"><stop stop-color="#8888D3"/><stop offset="1" stop-color="#5E60A3"/></linearGradient><linearGradient id="paint22_linear" x1="30.484" y1="50.323" x2="30.484" y2="52.258" gradientUnits="userSpaceOnUse"><stop stop-color="#8888D3"/><stop offset="1" stop-color="#5E60A3"/></linearGradient><linearGradient id="paint23_linear" x1="53.226" y1="0" x2="53.226" y2="23.226" gradientUnits="userSpaceOnUse"><stop stop-color="#8888D3"/><stop offset="1" stop-color="#5E60A3"/></linearGradient><linearGradient id="paint24_linear" x1="54.677" y1="6.774" x2="54.677" y2="9.678" gradientUnits="userSpaceOnUse"><stop stop-color="#8888D3"/><stop offset="1" stop-color="#5E60A3"/></linearGradient></defs></svg>