<svg width="48" height="60" fill="none" xmlns="http://www.w3.org/2000/svg"><path d="M46.148 19.613a.879.879 0 00.88-.879v-6.136A2.64 2.64 0 0044.39 9.96h-.88V7.617a2.64 2.64 0 00-2.636-2.637h-.879V2.637A2.64 2.64 0 0037.36 0H3.61A2.64 2.64 0 00.973 2.637v4.847a.879.879 0 101.757 0V2.637a.88.88 0 01.88-.88h33.75a.88.88 0 01.878.88v44.765a.88.88 0 01-.879.88H3.61a.88.88 0 01-.879-.88V11.234a.879.879 0 10-1.757 0v36.168a2.64 2.64 0 002.636 2.637h.88v2.344a2.64 2.64 0 002.636 2.636h.879v2.344A2.64 2.64 0 0010.64 60h33.75a2.64 2.64 0 002.636-2.637v-34.9a.879.879 0 10-1.758 0v34.9a.88.88 0 01-.878.88H10.64a.88.88 0 01-.88-.88V55.02h21.723a.879.879 0 100-1.758H7.125a.88.88 0 01-.879-.88V50.04H37.36a2.64 2.64 0 002.637-2.637V6.738h.879a.88.88 0 01.879.88v44.765a.88.88 0 01-.879.879h-5.662a.879.879 0 100 1.758h5.662a2.64 2.64 0 002.637-2.637V11.719h.879a.88.88 0 01.879.879v6.136c0 .486.393.879.878.879z" fill="url(#paint0_linear)"/><path d="M6.89 14.531v6.094a1.35 1.35 0 001.348 1.348h6.094a1.35 1.35 0 001.348-1.348v-4.532l1.8-1.538a.879.879 0 10-1.14-1.337l-.812.693a1.349 1.349 0 00-1.196-.727H8.238a1.35 1.35 0 00-1.347 1.347zm1.758.41h5.274v.341l-1.744 1.489-.833-.902a.88.88 0 00-1.292 1.192l1.407 1.523a.879.879 0 001.216.073l1.246-1.064v2.622H8.649V14.94z" fill="url(#paint1_linear)"/><path d="M33.2 14.59H19.136a.879.879 0 100 1.758h14.062a.879.879 0 100-1.758z" fill="url(#paint2_linear)"/><path d="M33.2 18.34H19.136a.879.879 0 100 1.758h14.062a.879.879 0 100-1.758z" fill="url(#paint3_linear)"/><path d="M6.89 31.992a1.35 1.35 0 001.348 1.348h6.094a1.35 1.35 0 001.348-1.348v-6.094a1.35 1.35 0 00-1.348-1.347H8.238a1.35 1.35 0 00-1.347 1.347v6.094zm1.758-5.683h5.274v5.273H8.648v-5.273z" fill="url(#paint4_linear)"/><path d="M33.2 25.957H19.136a.879.879 0 100 1.758h14.062a.879.879 0 100-1.758z" fill="url(#paint5_linear)"/><path d="M33.2 29.707H19.136a.879.879 0 100 1.758h14.062a.879.879 0 100-1.758z" fill="url(#paint6_linear)"/><path d="M6.89 43.36a1.35 1.35 0 001.348 1.347h6.094a1.35 1.35 0 001.348-1.348v-6.093a1.35 1.35 0 00-1.348-1.348H8.238a1.35 1.35 0 00-1.347 1.348v6.093zm1.758-5.684h5.274v5.273H8.648v-5.273z" fill="url(#paint7_linear)"/><path d="M33.2 37.324H19.136a.879.879 0 100 1.758h14.062a.879.879 0 100-1.758z" fill="url(#paint8_linear)"/><path d="M33.2 41.074H19.136a.879.879 0 100 1.758h14.062a.879.879 0 100-1.758z" fill="url(#paint9_linear)"/><path d="M28.746 4.16H12.574a2.933 2.933 0 00-2.93 2.93 2.933 2.933 0 002.93 2.93h16.172a2.933 2.933 0 002.93-2.93 2.933 2.933 0 00-2.93-2.93zm0 4.102H12.574a1.173 1.173 0 01-1.172-1.172c0-.646.526-1.172 1.172-1.172h16.172c.646 0 1.172.526 1.172 1.172 0 .646-.526 1.172-1.172 1.172z" fill="url(#paint10_linear)"/><defs><linearGradient id="paint0_linear" x1="24" y1="0" x2="24" y2="60" gradientUnits="userSpaceOnUse"><stop stop-color="#8888D3"/><stop offset="1" stop-color="#5E60A3"/></linearGradient><linearGradient id="paint1_linear" x1="12.34" y1="13.008" x2="12.34" y2="21.973" gradientUnits="userSpaceOnUse"><stop stop-color="#8888D3"/><stop offset="1" stop-color="#5E60A3"/></linearGradient><linearGradient id="paint2_linear" x1="26.168" y1="14.59" x2="26.168" y2="16.348" gradientUnits="userSpaceOnUse"><stop stop-color="#8888D3"/><stop offset="1" stop-color="#5E60A3"/></linearGradient><linearGradient id="paint3_linear" x1="26.168" y1="18.34" x2="26.168" y2="20.098" gradientUnits="userSpaceOnUse"><stop stop-color="#8888D3"/><stop offset="1" stop-color="#5E60A3"/></linearGradient><linearGradient id="paint4_linear" x1="11.285" y1="24.551" x2="11.285" y2="33.34" gradientUnits="userSpaceOnUse"><stop stop-color="#8888D3"/><stop offset="1" stop-color="#5E60A3"/></linearGradient><linearGradient id="paint5_linear" x1="26.168" y1="25.957" x2="26.168" y2="27.715" gradientUnits="userSpaceOnUse"><stop stop-color="#8888D3"/><stop offset="1" stop-color="#5E60A3"/></linearGradient><linearGradient id="paint6_linear" x1="26.168" y1="29.707" x2="26.168" y2="31.465" gradientUnits="userSpaceOnUse"><stop stop-color="#8888D3"/><stop offset="1" stop-color="#5E60A3"/></linearGradient><linearGradient id="paint7_linear" x1="11.285" y1="35.918" x2="11.285" y2="44.707" gradientUnits="userSpaceOnUse"><stop stop-color="#8888D3"/><stop offset="1" stop-color="#5E60A3"/></linearGradient><linearGradient id="paint8_linear" x1="26.168" y1="37.324" x2="26.168" y2="39.082" gradientUnits="userSpaceOnUse"><stop stop-color="#8888D3"/><stop offset="1" stop-color="#5E60A3"/></linearGradient><linearGradient id="paint9_linear" x1="26.168" y1="41.074" x2="26.168" y2="42.832" gradientUnits="userSpaceOnUse"><stop stop-color="#8888D3"/><stop offset="1" stop-color="#5E60A3"/></linearGradient><linearGradient id="paint10_linear" x1="20.66" y1="4.16" x2="20.66" y2="10.02" gradientUnits="userSpaceOnUse"><stop stop-color="#8888D3"/><stop offset="1" stop-color="#5E60A3"/></linearGradient></defs></svg>