<svg width="56" height="60" fill="none" xmlns="http://www.w3.org/2000/svg"><path d="M54.088 2.526C51.561 1.583 46.114 0 38.021 0c-5.202 0-8.666.875-12.335 1.8-4.111 1.04-8.364 2.113-15.736 2.203a1.953 1.953 0 00-1.93 1.94v2.075H5.892v-3.07a2.947 2.947 0 00-2.943-2.943A2.947 2.947 0 00.004 4.948V59.06c0 .52.42.94.94.94h4.008a.94.94 0 00.94-.94V34.948H8.02v2.058c0 .523.206 1.013.579 1.382.367.363.851.562 1.364.562h.025c7.584-.094 12.139-1.244 16.157-2.259 3.552-.896 6.907-1.743 11.875-1.743 7.761 0 12.957 1.497 15.364 2.39a1.936 1.936 0 002.61-1.822V5.282c0-1.222-.766-2.33-1.907-2.756zM4.013 58.12h-2.13V7.891h2.13v50.23zm0-52.108h-2.13V4.948a1.066 1.066 0 012.13 0v1.065zM8.02 33.069H5.89V9.896h2.13v23.173zm46.096 2.447c0 .012 0 .036-.027.055a.05.05 0 01-.052.005c-2.524-.936-7.962-2.507-16.017-2.507-5.202 0-8.666.874-12.335 1.8-4.11 1.038-8.359 2.11-15.72 2.202a.064.064 0 01-.046-.02.062.062 0 01-.02-.045V5.942c0-.032.034-.06.072-.06 7.594-.093 12.153-1.244 16.175-2.26 3.551-.896 6.906-1.743 11.874-1.743 7.798 0 13.002 1.508 15.41 2.407.417.156.686.547.686.996v30.234z" fill="url(#paint0_linear)"/><path d="M25.389 14.108a1.388 1.388 0 00-1.311-.96l-2.67-.021-.845-2.533a1.39 1.39 0 00-2.637 0l-.845 2.533-2.67.02a1.388 1.388 0 00-.815 2.508l2.148 1.587-.805 2.546a1.388 1.388 0 002.133 1.55l2.172-1.553 2.173 1.552a1.387 1.387 0 001.624-.006c.485-.352.69-.972.509-1.543l-.806-2.546 2.148-1.586a1.39 1.39 0 00.497-1.548zm-4.3 2.021a.94.94 0 00-.339 1.04l.566 1.787-1.525-1.09a.94.94 0 00-1.093 0l-1.525 1.09.565-1.788a.94.94 0 00-.338-1.039l-1.508-1.114 1.875-.014a.94.94 0 00.884-.643l.593-1.778.593 1.778a.94.94 0 00.884.643l1.875.014-1.508 1.114z" fill="url(#paint1_linear)"/><path d="M29.002 8.017c-.794 0-1.44.646-1.44 1.44 0 .794.646 1.44 1.44 1.44.794 0 1.44-.646 1.44-1.44 0-.794-.646-1.44-1.44-1.44z" fill="url(#paint2_linear)"/><path d="M29.002 22.046a1.441 1.441 0 101.44 1.44c0-.794-.646-1.44-1.44-1.44z" fill="url(#paint3_linear)"/><path d="M32.51 18.038c-.795 0-1.441.646-1.441 1.44a1.441 1.441 0 101.44-1.44z" fill="url(#paint4_linear)"/><path d="M32.51 12.025c-.795 0-1.441.647-1.441 1.44a1.441 1.441 0 101.44-1.439z" fill="url(#paint5_linear)"/><defs><linearGradient id="paint0_linear" x1="28" y1="0" x2="28" y2="60" gradientUnits="userSpaceOnUse"><stop stop-color="#8888D3"/><stop offset="1" stop-color="#5E60A3"/></linearGradient><linearGradient id="paint1_linear" x1="19.244" y1="9.644" x2="19.244" y2="21.597" gradientUnits="userSpaceOnUse"><stop stop-color="#8888D3"/><stop offset="1" stop-color="#5E60A3"/></linearGradient><linearGradient id="paint2_linear" x1="29.002" y1="8.017" x2="29.002" y2="10.898" gradientUnits="userSpaceOnUse"><stop stop-color="#8888D3"/><stop offset="1" stop-color="#5E60A3"/></linearGradient><linearGradient id="paint3_linear" x1="29.002" y1="22.046" x2="29.002" y2="24.927" gradientUnits="userSpaceOnUse"><stop stop-color="#8888D3"/><stop offset="1" stop-color="#5E60A3"/></linearGradient><linearGradient id="paint4_linear" x1="32.509" y1="18.038" x2="32.509" y2="20.919" gradientUnits="userSpaceOnUse"><stop stop-color="#8888D3"/><stop offset="1" stop-color="#5E60A3"/></linearGradient><linearGradient id="paint5_linear" x1="32.509" y1="12.025" x2="32.509" y2="14.906" gradientUnits="userSpaceOnUse"><stop stop-color="#8888D3"/><stop offset="1" stop-color="#5E60A3"/></linearGradient></defs></svg>