<svg width="54" height="53" fill="none" xmlns="http://www.w3.org/2000/svg"><path d="M53.409.154a1.172 1.172 0 00-1.177.01L30.757 12.861a1.172 1.172 0 101.192 2.017l15.409-9.11-28.7 29.778L4.382 31.18l18.629-11.016a1.172 1.172 0 00-1.193-2.017L.904 30.515a1.172 1.172 0 00.253 2.13l17.047 5.214 7.521 13.69a.276.276 0 00.024.036 1.168 1.168 0 001.822.237l8.648-8.451 16.266 4.976A1.172 1.172 0 0054 47.227V1.172c0-.42-.226-.81-.591-1.018zm-27.62 38.428a1.172 1.172 0 00-.209.667v7.168l-5.135-9.347L43.17 13.49 25.789 38.583zm2.135 9.618v-7.367l5.741 1.757-5.74 5.61zm23.732-2.557L28.63 38.598 51.656 5.356v40.287z" fill="url(#paint0_linear)"/><defs><linearGradient id="paint0_linear" x1="27.164" y1="0" x2="27.164" y2="52.156" gradientUnits="userSpaceOnUse"><stop stop-color="#8888D3"/><stop offset="1" stop-color="#5E60A3"/></linearGradient></defs></svg>