<svg width="63" height="60" fill="none" xmlns="http://www.w3.org/2000/svg"><path d="M52.739 19.707H.889a.888.888 0 00-.889.887v24.889c0 .49.396.888.887.888h35.258a.889.889 0 100-1.777H1.777v-23.11h50.071v2.223c0 .49.396.888.887.888h.002c.49 0 .888-.396.888-.886v-3.113a.888.888 0 00-.886-.889z" fill="url(#paint0_linear)"/><path d="M46.71 15.58L5.23 6.249a.892.892 0 00-1.062.674l-2.074 9.333a.89.89 0 001.736.386l1.88-8.463 40.609 9.136a.889.889 0 00.39-1.734z" fill="url(#paint1_linear)"/><path d="M41.673 10.438L16.786.068a.892.892 0 00-1.14.425L13.572 4.64a.892.892 0 101.595.796v.002l1.701-3.405 24.119 10.049a.891.891 0 00.686-1.645z" fill="url(#paint2_linear)"/><path d="M42.302 23.855h-8.23a.889.889 0 000 1.777h8.23a.889.889 0 000-1.777z" fill="url(#paint3_linear)"/><path d="M25.776 23.914a9.125 9.125 0 00-9.125 9.125 9.135 9.135 0 009.125 9.125 9.125 9.125 0 000-18.25zm0 16.59a7.466 7.466 0 01-7.466-7.465 7.474 7.474 0 017.466-7.466 7.466 7.466 0 010 14.932z" fill="url(#paint4_linear)"/><path d="M50.663 26.817c-5.496 0-11.407 1.299-11.407 4.148v24.887c0 2.85 5.91 4.148 11.407 4.148 5.496 0 11.406-1.298 11.406-4.148V30.965c0-2.85-5.91-4.148-11.406-4.148zm9.332 29.02c-.156.575-3.266 2.09-9.332 2.09-6.066 0-9.176-1.515-9.333-2.075v-1.63c2.207 1.112 5.852 1.63 9.333 1.63 3.48 0 7.127-.523 9.332-1.63v1.615zm0-4.148c-.156.575-3.266 2.09-9.332 2.09-6.066 0-9.176-1.515-9.333-2.075v-1.63c2.207 1.112 5.852 1.63 9.333 1.63 3.48 0 7.127-.523 9.332-1.63v1.615zm0-4.148c-.156.576-3.266 2.09-9.332 2.09-6.066 0-9.176-1.514-9.333-2.074v-1.63c2.207 1.111 5.852 1.63 9.333 1.63 3.48 0 7.127-.524 9.332-1.632v1.616zm0-4.148c-.156.576-3.266 2.09-9.332 2.09-6.066 0-9.176-1.514-9.333-2.074v-1.63c2.207 1.111 5.852 1.63 9.333 1.63 3.48 0 7.127-.524 9.332-1.631v1.615zm0-4.148c-.156.576-3.266 2.09-9.332 2.09-6.066 0-9.176-1.514-9.333-2.074v-1.63c2.207 1.106 5.852 1.63 9.333 1.63 3.48 0 7.127-.524 9.332-1.631v1.615zm0-4.148c-.156.576-3.266 2.09-9.332 2.09-6.066 0-9.176-1.514-9.333-2.074v-1.63c2.207 1.106 5.852 1.63 9.333 1.63 3.48 0 7.127-.524 9.332-1.631v1.615zm-9.332-2.058c-6.057 0-9.166-1.51-9.333-2.055v-.006c.167-.578 3.276-2.087 9.333-2.087 6.014 0 9.125 1.487 9.332 2.074-.207.587-3.318 2.074-9.332 2.074z" fill="url(#paint5_linear)"/><path d="M17.48 40.445H9.642L5.925 36.38v-6.74l4.105-4.008h7.45a.889.889 0 100-1.777H9.669a.89.89 0 00-.623.252l-4.632 4.518a1.11 1.11 0 00-.267.725v7.375a.89.89 0 00.232.6l4.213 4.608c.169.184.407.29.657.29h8.231a.889.889 0 000-1.778z" fill="url(#paint6_linear)"/><path d="M26.294 32.002h-1.037c-.322 0-.518-.18-.518-.26 0-.078.196-.259.518-.259h2.593a1.037 1.037 0 000-2.073h-1.037a1.037 1.037 0 00-2.074 0v.046a2.414 2.414 0 00-2.074 2.282 2.476 2.476 0 002.592 2.338h1.037c.323 0 .519.18.519.26 0 .078-.196.258-.519.258h-2.592a1.037 1.037 0 000 2.074h1.037a1.037 1.037 0 002.074 0v-.046a2.414 2.414 0 002.074-2.282 2.476 2.476 0 00-2.593-2.338z" fill="url(#paint7_linear)"/><defs><linearGradient id="paint0_linear" x1="26.813" y1="19.707" x2="26.813" y2="46.371" gradientUnits="userSpaceOnUse"><stop stop-color="#8888D3"/><stop offset="1" stop-color="#5E60A3"/></linearGradient><linearGradient id="paint1_linear" x1="24.738" y1="6.227" x2="24.738" y2="17.337" gradientUnits="userSpaceOnUse"><stop stop-color="#8888D3"/><stop offset="1" stop-color="#5E60A3"/></linearGradient><linearGradient id="paint2_linear" x1="27.843" y1="0" x2="27.843" y2="12.152" gradientUnits="userSpaceOnUse"><stop stop-color="#8888D3"/><stop offset="1" stop-color="#5E60A3"/></linearGradient><linearGradient id="paint3_linear" x1="38.187" y1="23.855" x2="38.187" y2="25.632" gradientUnits="userSpaceOnUse"><stop stop-color="#8888D3"/><stop offset="1" stop-color="#5E60A3"/></linearGradient><linearGradient id="paint4_linear" x1="25.776" y1="23.914" x2="25.776" y2="42.164" gradientUnits="userSpaceOnUse"><stop stop-color="#8888D3"/><stop offset="1" stop-color="#5E60A3"/></linearGradient><linearGradient id="paint5_linear" x1="50.663" y1="26.817" x2="50.663" y2="60" gradientUnits="userSpaceOnUse"><stop stop-color="#8888D3"/><stop offset="1" stop-color="#5E60A3"/></linearGradient><linearGradient id="paint6_linear" x1="11.258" y1="23.855" x2="11.258" y2="42.222" gradientUnits="userSpaceOnUse"><stop stop-color="#8888D3"/><stop offset="1" stop-color="#5E60A3"/></linearGradient><linearGradient id="paint7_linear" x1="25.776" y1="28.373" x2="25.776" y2="37.705" gradientUnits="userSpaceOnUse"><stop stop-color="#8888D3"/><stop offset="1" stop-color="#5E60A3"/></linearGradient></defs></svg>