<svg width="60" height="52" fill="none" xmlns="http://www.w3.org/2000/svg"><path d="M13.548 15.195v-.324h-1.935v.324c0 .555.014 1.11.043 1.66l1.933-.098c-.026-.52-.04-1.04-.04-1.562z" fill="url(#paint0_linear)"/><path d="M13.743 18.632l-1.923.22a32.365 32.365 0 004.913 13.775l1.628-1.047a30.44 30.44 0 01-4.618-12.948z" fill="url(#paint1_linear)"/><path d="M35.672 5.399A10.094 10.094 0 0130 7.129c-2.034 0-3.995-.598-5.67-1.73l-1.084 1.605A12.026 12.026 0 0030 9.064c2.421 0 4.757-.712 6.755-2.06l-1.083-1.605z" fill="url(#paint2_linear)"/><path d="M8.71 33.258H6.774A6.783 6.783 0 010 40.032v1.936a6.783 6.783 0 016.774 6.774H8.71a6.783 6.783 0 016.774-6.774v-1.936a6.783 6.783 0 01-6.774-6.774zM7.742 44.77A8.753 8.753 0 003.972 41a8.752 8.752 0 003.77-3.77 8.752 8.752 0 003.77 3.77 8.753 8.753 0 00-3.77 3.77z" fill="url(#paint3_linear)"/><path d="M53.226 8.097h-1.853C49.54 3.537 45.053.355 39.97.355c-2.4 0-4.657.65-6.527 1.876a6.312 6.312 0 01-6.886 0C24.688 1.004 22.43.355 20.03.355c-6.776 0-12.288 5.512-12.288 12.288v2.552c0 6.939 1.984 13.69 5.736 19.526a34.117 34.117 0 014.407 10.19l1.053 4.214a3.318 3.318 0 003.225 2.52 3.304 3.304 0 003.289-2.832l2.17-14.476A2.391 2.391 0 0130 32.29a2.39 2.39 0 012.377 2.047l2.17 14.476a3.306 3.306 0 003.29 2.832 3.318 3.318 0 003.225-2.52l1.054-4.213a34.1 34.1 0 014.408-10.19 36.393 36.393 0 004.762-11.242c0 .034.004.067.004.1h1.936A6.783 6.783 0 0160 16.808V14.87a6.783 6.783 0 01-6.774-6.774zm-8.33 25.577a36.05 36.05 0 00-4.657 10.77l-1.055 4.213a1.385 1.385 0 01-1.347 1.053 1.381 1.381 0 01-1.374-1.185L34.292 34.05A4.313 4.313 0 0030 30.355a4.313 4.313 0 00-4.292 3.695l-2.17 14.475a1.38 1.38 0 01-1.375 1.185 1.39 1.39 0 01-1.349-1.053l-1.054-4.214a36.005 36.005 0 00-4.656-10.769 34.111 34.111 0 01-5.427-18.479v-2.552c0-5.708 4.645-10.353 10.353-10.353 2.022 0 3.911.54 5.463 1.56A8.073 8.073 0 0030 5.194a8.067 8.067 0 004.506-1.345c1.553-1.02 3.442-1.559 5.464-1.559 5.105 0 9.51 3.805 10.236 8.772l.041.63a6.77 6.77 0 01-5.73 3.18v1.935a6.764 6.764 0 015.51 2.85 34.383 34.383 0 01-5.132 14.017zm7.362-14.066a8.752 8.752 0 00-3.77-3.77 8.753 8.753 0 003.77-3.768 8.752 8.752 0 003.77 3.769 8.752 8.752 0 00-3.77 3.77z" fill="url(#paint4_linear)"/><defs><linearGradient id="paint0_linear" x1="12.601" y1="14.871" x2="12.601" y2="16.856" gradientUnits="userSpaceOnUse"><stop stop-color="#8888D3"/><stop offset="1" stop-color="#5E60A3"/></linearGradient><linearGradient id="paint1_linear" x1="15.091" y1="18.632" x2="15.091" y2="32.627" gradientUnits="userSpaceOnUse"><stop stop-color="#8888D3"/><stop offset="1" stop-color="#5E60A3"/></linearGradient><linearGradient id="paint2_linear" x1="30" y1="5.399" x2="30" y2="9.065" gradientUnits="userSpaceOnUse"><stop stop-color="#8888D3"/><stop offset="1" stop-color="#5E60A3"/></linearGradient><linearGradient id="paint3_linear" x1="7.742" y1="33.258" x2="7.742" y2="48.742" gradientUnits="userSpaceOnUse"><stop stop-color="#8888D3"/><stop offset="1" stop-color="#5E60A3"/></linearGradient><linearGradient id="paint4_linear" x1="33.871" y1=".355" x2="33.871" y2="51.645" gradientUnits="userSpaceOnUse"><stop stop-color="#8888D3"/><stop offset="1" stop-color="#5E60A3"/></linearGradient></defs></svg>